{
.appVersion = "1230";
DisplayStrings = (
"/hyphen.tf -"
);
classes = (
{
code = "B D E F H' I K L M N P R b h i j k l m n p r bar dotlessi Egrave Eacute Ecircumflex Edieresis Igrave Iacute Icircumflex Idieresis Ntilde igrave iacute icircumflex idieresis ntilde bracketleft";
disabled = 1;
name = .LeftVertical;
},
{
code = "one H' I M N bracketright d i j l q bar dotlessi Igrave Iacute Icircumflex Idieresis Ntilde igrave iacute icircumflex idieresis ugrave uacute ucircumflex udieresis one.prop zero nine D O Q o p Ograve Oacute Ocircumflex Otilde Odieresis ograve oacute ocircumflex otilde odieresis zero.prop nine.prop";
disabled = 1;
name = .RightVertical;
},
{
code = "zero six C G O' Q c e o q Ograve Oacute Ocircumflex Otilde Odieresis egrave eacute ecircumflex edieresis ograve oacute ocircumflex otilde odieresis zero.prop six.prop";
disabled = 1;
name = .LeftRounded;
},
{
code = "zero nine D O' Q o p Ograve Oacute Ocircumflex Otilde Odieresis ograve oacute ocircumflex otilde odieresis zero.prop nine.prop";
disabled = 1;
name = .RightRounded;
},
{
code = "h m n' ntilde";
disabled = 1;
name = .VerticalOutstroke;
},
{
code = "U u' Ugrave Uacute Ucircumflex Udieresis ugrave uacute ucircumflex udieresis";
disabled = 1;
name = .VerticalInstroke;
},
{
code = "A' Agrave Aacute Acircumflex Atilde Adieresis";
disabled = 1;
name = .Adiacritics;
},
{
code = "E' Egrave Eacute Ecircumflex Edieresis";
disabled = 1;
name = .Ediacritics;
},
{
code = "I' Igrave Iacute Icircumflex Idieresis";
disabled = 1;
name = .Idiacritics;
},
{
code = "N', Ntilde";
disabled = 1;
name = .Ndiacritics;
},
{
code = "O' Ograve Oacute Ocircumflex Otilde Odieresis";
disabled = 1;
name = .Odiacritics;
},
{
code = "U' Ugrave Uacute Ucircumflex Udieresis";
disabled = 1;
name = .Udiacritics;
},
{
code = "a' agrave aacute acircumflex atilde adieresis";
disabled = 1;
name = .adiacritics;
},
{
code = "e' egrave eacute ecircumflex edieresis";
disabled = 1;
name = .ediacritics;
},
{

glyphs = (
{
glyphname = comma;
lastChange = "2019-04-17 22:16:06 +0000";
layers = (
{
background = {
paths = (
{
closed = 1;
nodes = (
"42 12 OFFCURVE",
"60 -2 OFFCURVE",
"83 -4 CURVE",
"77 -33 OFFCURVE",
"55 -52 OFFCURVE",
"25 -68 CURVE",
"69 -91 LINE",
"115 -67 OFFCURVE",
"138 -23 OFFCURVE",
"138 14 CURVE SMOOTH",
"138 51 OFFCURVE",
"117 79 OFFCURVE",
"86 79 CURVE SMOOTH",
"59 79 OFFCURVE",
"42 59 OFFCURVE",
"42 36 CURVE SMOOTH"
);
}
);
};
layerId = UUID0;
paths = (
{
closed = 1;
nodes = (
"125 -80 OFFCURVE",
"157 -27 OFFCURVE",
"161 19 CURVE SMOOTH",
"166 63 OFFCURVE",
"144 97 OFFCURVE",
"107 97 CURVE SMOOTH",
"76 97 OFFCURVE",
"53 74 OFFCURVE",
"50 46 CURVE SMOOTH",
"48 16 OFFCURVE",
"67 -2 OFFCURVE",
"94 -5 CURVE",
"83 -38 OFFCURVE",
"55 -62 OFFCURVE",
"19 -80 CURVE",
"69 -109 LINE"
);
}
);
width = 189;
},
{
background = {
paths = (
{
closed = 1;
nodes = (
"42 12 OFFCURVE",
"60 -2 OFFCURVE",
"83 -4 CURVE",
"77 -33 OFFCURVE",
"55 -52 OFFCURVE",
"25 -68 CURVE",
"69 -91 LINE",
"115 -67 OFFCURVE",
"138 -23 OFFCURVE",
"138 14 CURVE SMOOTH",
"138 51 OFFCURVE",
"117 79 OFFCURVE",
"86 79 CURVE SMOOTH",
"59 79 OFFCURVE",
"42 59 OFFCURVE",
"42 36 CURVE SMOOTH"
);
}
);
};
layerId = UUID1;
paths = (
{
closed = 1;
nodes = (
"154 -101 OFFCURVE",
"199 -33 OFFCURVE",
"205 29 CURVE SMOOTH",
"211 88 OFFCURVE",
"183 136 OFFCURVE",
"130 136 CURVE SMOOTH",
"87 136 OFFCURVE",
"53 104 OFFCURVE",
"49 64 CURVE SMOOTH",
"46 26 OFFCURVE",
"71 2 OFFCURVE",
"103 -5 CURVE",
"90 -42 OFFCURVE",
"54 -70 OFFCURVE",
"13 -92 CURVE",
"87 -136 LINE"
);
}
);
width = 228;
}
);
unicode = 002C;
},
{
glyphname = period;
lastChange = "2019-04-17 22:16:16 +0000";
layers = (
{
background = {
paths = (
{
closed = 1;
nodes = (
"25 12 OFFCURVE",
"44 -7 OFFCURVE",
"70 -7 CURVE SMOOTH",
"96 -7 OFFCURVE",
"116 12 OFFCURVE",
"116 37 CURVE SMOOTH",
"116 63 OFFCURVE",
"96 83 OFFCURVE",
"70 83 CURVE SMOOTH",
"44 83 OFFCURVE",
"25 63 OFFCURVE",
"25 37 CURVE SMOOTH"
);
}
);
};
layerId = UUID0;
paths = (
{
closed = 1;
nodes = (
"110 -9 OFFCURVE",
"134 16 OFFCURVE",
"137 47 CURVE SMOOTH",
"140 79 OFFCURVE",
"120 104 OFFCURVE",
"88 104 CURVE SMOOTH",
"58 104 OFFCURVE",
"34 79 OFFCURVE",
"31 47 CURVE SMOOTH",
"28 16 OFFCURVE",
"49 -9 OFFCURVE",
"78 -9 CURVE SMOOTH"
);
}
);
width = 161;
},
{
background = {
paths = (
{
closed = 1;
nodes = (
"25 12 OFFCURVE",
"44 -7 OFFCURVE",
"70 -7 CURVE SMOOTH",
"96 -7 OFFCURVE",
"116 12 OFFCURVE",
"116 37 CURVE SMOOTH",
"116 63 OFFCURVE",
"96 83 OFFCURVE",
"70 83 CURVE SMOOTH",
"44 83 OFFCURVE",
"25 63 OFFCURVE",
"25 37 CURVE SMOOTH"
);
}
);
};
layerId = UUID1;
paths = (
{
closed = 1;
nodes = (
"138 -9 OFFCURVE",
"173 24 OFFCURVE",
"177 70 CURVE SMOOTH",
"181 114 OFFCURVE",
"152 149 OFFCURVE",
"109 149 CURVE SMOOTH",
"66 149 OFFCURVE",
"31 114 OFFCURVE",
"28 70 CURVE SMOOTH",
"23 24 OFFCURVE",
"51 -9 OFFCURVE",
"94 -9 CURVE SMOOTH"
);
}
);
width = 193;
}
);
unicode = 002E;
},
{
glyphname = semicolon;
lastChange = "2019-04-17 22:16:33 +0000";
layers = (
{
background = {
paths = (
{
closed = 1;
nodes = (
"64 12 OFFCURVE",
"82 -2 OFFCURVE",
"106 -4 CURVE",
"99 -33 OFFCURVE",
"77 -52 OFFCURVE",
"47 -68 CURVE",
"91 -91 LINE",
"137 -67 OFFCURVE",
"160 -23 OFFCURVE",
"160 14 CURVE SMOOTH",
"160 51 OFFCURVE",
"139 79 OFFCURVE",
"108 79 CURVE SMOOTH",
"81 79 OFFCURVE",
"64 59 OFFCURVE",
"64 36 CURVE SMOOTH"
);
},
{
closed = 1;
nodes = (
"66 324 OFFCURVE",
"85 306 OFFCURVE",
"110 306 CURVE SMOOTH",
"137 306 OFFCURVE",
"157 324 OFFCURVE",
"157 350 CURVE SMOOTH",
"157 376 OFFCURVE",
"137 396 OFFCURVE",
"110 396 CURVE SMOOTH",
"85 396 OFFCURVE",
"66 376 OFFCURVE",
"66 350 CURVE SMOOTH"
);
}
);
};
layerId = UUID0;
paths = (
{
closed = 1;
nodes = (
"149 -80 OFFCURVE",
"181 -27 OFFCURVE",
"185 19 CURVE SMOOTH",
"190 63 OFFCURVE",
"168 97 OFFCURVE",
"131 97 CURVE SMOOTH",
"100 97 OFFCURVE",
"77 74 OFFCURVE",
"74 46 CURVE SMOOTH",
"72 16 OFFCURVE",
"91 -2 OFFCURVE",
"118 -5 CURVE",
"107 -38 OFFCURVE",
"79 -62 OFFCURVE",
"43 -80 CURVE",
"93 -109 LINE"
);
},
{
closed = 1;
nodes = (
"188 329 OFFCURVE",
"212 354 OFFCURVE",
"215 385 CURVE SMOOTH",
"218 417 OFFCURVE",
"198 442 OFFCURVE",
"166 442 CURVE SMOOTH",
"136 442 OFFCURVE",
"112 417 OFFCURVE",
"109 385 CURVE SMOOTH",
"106 354 OFFCURVE",
"127 329 OFFCURVE",
"156 329 CURVE SMOOTH"
);
}
);
width = 236;
},
{
background = {
paths = (
{
closed = 1;
nodes = (
"64 12 OFFCURVE",
"82 -2 OFFCURVE",
"106 -4 CURVE",
"99 -33 OFFCURVE",
"77 -52 OFFCURVE",
"47 -68 CURVE",
"91 -91 LINE",
"137 -67 OFFCURVE",
"160 -23 OFFCURVE",
"160 14 CURVE SMOOTH",
"160 51 OFFCURVE",
"139 79 OFFCURVE",
"108 79 CURVE SMOOTH",
"81 79 OFFCURVE",
"64 59 OFFCURVE",
"64 36 CURVE SMOOTH"
);
},
{
closed = 1;
nodes = (
"66 324 OFFCURVE",
"85 306 OFFCURVE",
"110 306 CURVE SMOOTH",
"137 306 OFFCURVE",
"157 324 OFFCURVE",
"157 350 CURVE SMOOTH",
"157 376 OFFCURVE",
"137 396 OFFCURVE",
"110 396 CURVE SMOOTH",
"85 396 OFFCURVE",
"66 376 OFFCURVE",
"66 350 CURVE SMOOTH"
);
}
);
};
layerId = UUID1;
paths = (
{
closed = 1;
nodes = (
"181 -101 OFFCURVE",
"226 -33 OFFCURVE",
"232 29 CURVE SMOOTH",
"238 88 OFFCURVE",
"210 136 OFFCURVE",
"157 136 CURVE SMOOTH",
"114 136 OFFCURVE",
"80 104 OFFCURVE",
"76 64 CURVE SMOOTH",
"73 26 OFFCURVE",
"98 2 OFFCURVE",
"130 -5 CURVE",
"117 -42 OFFCURVE",
"81 -70 OFFCURVE",
"40 -92 CURVE",
"114 -136 LINE"
);
},
{
closed = 1;
nodes = (
"223 305 OFFCURVE",
"258 338 OFFCURVE",
"262 384 CURVE SMOOTH",
"266 428 OFFCURVE",
"237 463 OFFCURVE",
"194 463 CURVE SMOOTH",
"151 463 OFFCURVE",
"116 428 OFFCURVE",
"113 384 CURVE SMOOTH",
"108 338 OFFCURVE",
"136 305 OFFCURVE",
"179 305 CURVE SMOOTH"
);
}
);
width = 277;
}
);
unicode = 003B;
},
{
glyphname = colon;
lastChange = "2019-04-17 22:17:36 +0000";
layers = (
{
background = {
paths = (
{
closed = 1;
nodes = (
"47 324 OFFCURVE",
"65 306 OFFCURVE",
"91 306 CURVE SMOOTH",
"117 306 OFFCURVE",
"137 324 OFFCURVE",
"137 350 CURVE SMOOTH",
"137 376 OFFCURVE",
"117 396 OFFCURVE",
"91 396 CURVE SMOOTH",
"65 396 OFFCURVE",
"47 376 OFFCURVE",
"47 350 CURVE SMOOTH"
);
},
{
closed = 1;
nodes = (
"47 12 OFFCURVE",
"65 -7 OFFCURVE",
"91 -7 CURVE SMOOTH",
"117 -7 OFFCURVE",
"137 12 OFFCURVE",
"137 37 CURVE SMOOTH",
"137 63 OFFCURVE",
"117 83 OFFCURVE",
"91 83 CURVE SMOOTH",
"65 83 OFFCURVE",
"47 63 OFFCURVE",
"47 37 CURVE SMOOTH"
);
}
);
};
layerId = UUID0;
paths = (
{
closed = 1;
nodes = (
"165 329 OFFCURVE",
"189 354 OFFCURVE",
"192 385 CURVE SMOOTH",
"195 417 OFFCURVE",
"175 442 OFFCURVE",
"143 442 CURVE SMOOTH",
"113 442 OFFCURVE",
"89 417 OFFCURVE",
"86 385 CURVE SMOOTH",
"83 354 OFFCURVE",
"104 329 OFFCURVE",
"133 329 CURVE SMOOTH"
);
},
{
closed = 1;
nodes = (
"136 23 OFFCURVE",
"160 48 OFFCURVE",
"163 79 CURVE SMOOTH",
"166 111 OFFCURVE",
"146 136 OFFCURVE",
"114 136 CURVE SMOOTH",
"84 136 OFFCURVE",
"60 111 OFFCURVE",
"57 79 CURVE SMOOTH",
"54 48 OFFCURVE",
"75 23 OFFCURVE",
"104 23 CURVE SMOOTH"
);
}
);
width = 208;
},
{
background = {
paths = (
{
closed = 1;
nodes = (
"47 324 OFFCURVE",
"65 306 OFFCURVE",
"91 306 CURVE SMOOTH",
"117 306 OFFCURVE",
"137 324 OFFCURVE",
"137 350 CURVE SMOOTH",
"137 376 OFFCURVE",
"117 396 OFFCURVE",
"91 396 CURVE SMOOTH",
"65 396 OFFCURVE",
"47 376 OFFCURVE",
"47 350 CURVE SMOOTH"
);
},
{
closed = 1;
nodes = (
"47 12 OFFCURVE",
"65 -7 OFFCURVE",
"91 -7 CURVE SMOOTH",
"117 -7 OFFCURVE",
"137 12 OFFCURVE",
"137 37 CURVE SMOOTH",
"137 63 OFFCURVE",
"117 83 OFFCURVE",
"91 83 CURVE SMOOTH",
"65 83 OFFCURVE",
"47 63 OFFCURVE",
"47 37 CURVE SMOOTH"
);
}
);
};
guideLines = (
{
position = "{119, 8}";
},
{
position = "{164, 457}";
}
);
layerId = UUID1;
paths = (
{
closed = 1;
nodes = (
"193 299 OFFCURVE",
"228 332 OFFCURVE",
"232 378 CURVE SMOOTH",
"236 422 OFFCURVE",
"207 457 OFFCURVE",
"164 457 CURVE SMOOTH",
"121 457 OFFCURVE",
"86 422 OFFCURVE",
"83 378 CURVE SMOOTH",
"80 332 OFFCURVE",
"106 299 OFFCURVE",
"149 299 CURVE SMOOTH"
);
},
{
closed = 1;
nodes = (
"163 8 OFFCURVE",
"198 41 OFFCURVE",
"202 87 CURVE SMOOTH",
"206 131 OFFCURVE",
"177 166 OFFCURVE",
"134 166 CURVE SMOOTH",
"91 166 OFFCURVE",
"56 131 OFFCURVE",
"53 87 CURVE SMOOTH",
"50 41 OFFCURVE",
"76 8 OFFCURVE",
"119 8 CURVE SMOOTH"
);
}
);
width = 243;
}
);
unicode = 003A;
},
{
glyphname = hyphen;
lastChange = "2019-04-15 20:26:35 +0000";
layers = (
{
background = {
paths = (
{
closed = 1;
nodes = (
"32 224 LINE",
"254 224 LINE",
"254 278 LINE",
"32 278 LINE"
);
}
);
};
layerId = UUID0;
paths = (
{
closed = 1;
nodes = (
"303 257 LINE",
"310 325 LINE",
"65 325 LINE",
"58 257 LINE"
);
}
);
width = 314;
},
{
background = {
paths = (
{
closed = 1;
nodes = (
"32 224 LINE",
"254 224 LINE",
"254 278 LINE",
"32 278 LINE"
);
}
);
};
layerId = UUID1;
paths = (
{
closed = 1;
nodes = (
"318 250 LINE",
"328 353 LINE",
"75 353 LINE",
"65 250 LINE"
);
}
);
width = 336;
}
);
unicode = 002D;
},
{
glyphname = endash;
lastChange = "2019-04-15 20:26:35 +0000";
layers = (
{
background = {
paths = (
{
closed = 1;
nodes = (
"45 224 LINE",
"337 224 LINE",
"337 278 LINE",
"45 278 LINE"
);
}
);
};
layerId = UUID0;
paths = (
{
closed = 1;
nodes = (
"401 257 LINE",
"408 325 LINE",
"80 325 LINE",
"74 257 LINE"
);
}
);
width = 427;
},
{
background = {
paths = (
{
closed = 1;
nodes = (
"45 224 LINE",
"337 224 LINE",
"337 278 LINE",
"45 278 LINE"
);
}
);
};
layerId = UUID1;
paths = (
{
closed = 1;
nodes = (
"446 250 LINE",
"456 353 LINE",
"83 353 LINE",
"73 250 LINE"
);
}
);
width = 472;
}
);
unicode = 2013;
},
{
glyphname = emdash;
lastChange = "2019-04-15 20:26:35 +0000";
layers = (
{
background = {
paths = (
{
closed = 1;
nodes = (
"45 224 LINE",
"546 224 LINE",
"546 278 LINE",
"45 278 LINE"
);
}
);
};
layerId = UUID0;
paths = (
{
closed = 1;
nodes = (
"628 257 LINE",
"634 325 LINE",
"80 325 LINE",
"74 257 LINE"
);
}
);
width = 653;
},
{
background = {
paths = (
{
closed = 1;
nodes = (
"45 224 LINE",
"546 224 LINE",
"546 278 LINE",
"45 278 LINE"
);
}
);
};
layerId = UUID1;
paths = (
{
closed = 1;
nodes = (
"666 250 LINE",
"676 353 LINE",
"83 353 LINE",
"73 250 LINE"
);
}
);
width = 691;
}
);
unicode = 2014;
},
{
glyphname = exclam;
lastChange = "2019-04-17 22:17:57 +0000";
layers = (
{
background = {
paths = (
{
closed = 1;
nodes = (
"90 147 LINE",
"139 147 LINE",
"146 540 LINE",
"83 540 LINE"
);
},
{
closed = 1;
nodes = (
"70 12 OFFCURVE",
"89 -7 OFFCURVE",
"114 -7 CURVE SMOOTH",
"140 -7 OFFCURVE",
"160 12 OFFCURVE",
"160 37 CURVE SMOOTH",
"160 63 OFFCURVE",
"140 83 OFFCURVE",
"114 83 CURVE SMOOTH",
"89 83 OFFCURVE",
"70 63 OFFCURVE",
"70 37 CURVE SMOOTH"
);
}
);
};
layerId = UUID0;
paths = (
{
closed = 1;
nodes = (
"172 176 LINE",
"222 627 LINE",
"148 627 LINE",
"114 176 LINE"
);
},
{
closed = 1;
nodes = (
"156 -9 OFFCURVE",
"182 16 OFFCURVE",
"184 47 CURVE SMOOTH",
"188 79 OFFCURVE",
"166 104 OFFCURVE",
"135 104 CURVE SMOOTH",
"105 104 OFFCURVE",
"81 79 OFFCURVE",
"77 47 CURVE SMOOTH",
"75 16 OFFCURVE",
"95 -9 OFFCURVE",
"125 -9 CURVE SMOOTH"
);
}
);
width = 250;
},
{
background = {
paths = (
{
closed = 1;
nodes = (
"90 147 LINE",
"139 147 LINE",
"146 540 LINE",
"83 540 LINE"
);
},
{
closed = 1;
nodes = (
"70 12 OFFCURVE",
"89 -7 OFFCURVE",
"114 -7 CURVE SMOOTH",
"140 -7 OFFCURVE",
"160 12 OFFCURVE",
"160 37 CURVE SMOOTH",
"160 63 OFFCURVE",
"140 83 OFFCURVE",
"114 83 CURVE SMOOTH",
"89 83 OFFCURVE",
"70 63 OFFCURVE",
"70 37 CURVE SMOOTH"
);
}
);
};
layerId = UUID1;
paths = (
{
closed = 1;
nodes = (
"201 219 LINE",
"255 664 LINE",
"139 664 LINE",
"110 219 LINE"
);
},
{
closed = 1;
nodes = (
"177 -9 OFFCURVE",
"212 24 OFFCURVE",
"217 70 CURVE SMOOTH",
"220 114 OFFCURVE",
"192 149 OFFCURVE",
"148 149 CURVE SMOOTH",
"105 149 OFFCURVE",
"71 114 OFFCURVE",
"67 70 CURVE SMOOTH",
"63 24 OFFCURVE",
"91 -9 OFFCURVE",
"134 -9 CURVE SMOOTH"
);
}
);
width = 264;
}
);
unicode = 0021;
},
{
glyphname = a;
lastChange = "2019-04-17 22:18:13 +0000";
layers = (
{
anchors = (
{
name = above;
position = "{262, 507}";
}
);
layerId = UUID0;
paths = (
{
closed = 1;
nodes = (
"282 -11 OFFCURVE",
"335 20 OFFCURVE",
"367 80 CURVE",
"367 53 OFFCURVE",
"366 27 OFFCURVE",
"366 0 CURVE",
"427 0 LINE",
"456 308 LINE SMOOTH",
"468 437 OFFCURVE",
"404 490 OFFCURVE",
"304 490 CURVE SMOOTH",
"202 490 OFFCURVE",
"123 450 OFFCURVE",
"113 346 CURVE",
"192 346 LINE",
"197 405 OFFCURVE",
"243 431 OFFCURVE",
"299 431 CURVE SMOOTH",
"366 431 OFFCURVE",
"394 395 OFFCURVE",
"386 310 CURVE SMOOTH",
"380 249 LINE",
"341 266 OFFCURVE",
"299 275 OFFCURVE",
"255 275 CURVE SMOOTH",
"162 275 OFFCURVE",
"85 229 OFFCURVE",
"76 134 CURVE",
"68 60 OFFCURVE",
"118 -11 OFFCURVE",
"214 -11 CURVE SMOOTH"
);
},
{
closed = 1;
nodes = (
"168 50 OFFCURVE",
"147 87 OFFCURVE",
"151 134 CURVE SMOOTH",
"157 197 OFFCURVE",
"204 219 OFFCURVE",
"262 219 CURVE SMOOTH",
"297 219 OFFCURVE",
"338 211 OFFCURVE",
"375 199 CURVE",
"375 108 OFFCURVE",
"298 50 OFFCURVE",
"235 50 CURVE SMOOTH"
);
}
);
width = 504;
},
{
anchors = (
{
name = above;
position = "{262, 507}";
}
);
layerId = UUID1;
paths = (
{
closed = 1;
nodes = (
"285 -14 OFFCURVE",
"330 18 OFFCURVE",
"360 66 CURVE",
"361 44 OFFCURVE",
"361 22 OFFCURVE",
"362 0 CURVE",
"454 0 LINE",
"483 309 LINE SMOOTH",
"495 440 OFFCURVE",
"427 499 OFFCURVE",
"313 499 CURVE SMOOTH",
"188 499 OFFCURVE",
"109 452 OFFCURVE",
"98 342 CURVE",
"214 342 LINE",
"219 387 OFFCURVE",
"254 413 OFFCURVE",
"305 413 CURVE SMOOTH",
"364 413 OFFCURVE",
"384 381 OFFCURVE",
"377 313 CURVE SMOOTH",
"372 265 LINE",
"335 276 OFFCURVE",
"297 284 OFFCURVE",
"254 284 CURVE SMOOTH",
"144 284 OFFCURVE",
"70 234 OFFCURVE",
"62 142 CURVE",
"54 59 OFFCURVE",
"105 -14 OFFCURVE",
"222 -14 CURVE SMOOTH"
);
},
{
closed = 1;
nodes = (
"196 76 OFFCURVE",
"172 106 OFFCURVE",
"175 142 CURVE SMOOTH",
"179 188 OFFCURVE",
"219 206 OFFCURVE",
"268 206 CURVE SMOOTH",
"298 206 OFFCURVE",
"336 199 OFFCURVE",
"365 190 CURVE",
"359 125 OFFCURVE",
"308 76 OFFCURVE",
"252 76 CURVE SMOOTH"
);
}
);
width = 526;
}
);
unicode = 0061;
},
{
glyphname = b;
lastChange = "2019-04-17 22:18:26 +0000";
layers = (
{
background = {
paths = (
{
closed = 1;
nodes = (
"281 490 OFFCURVE",
"232 460 OFFCURVE",
"199 406 CURVE",
"226 681 LINE",
"155 681 LINE",
"91 0 LINE",
"140 0 LINE",
"164 84 LINE",
"184 22 OFFCURVE",
"230 -11 OFFCURVE",
"287 -11 CURVE SMOOTH",
"391 -11 OFFCURVE",
"489 87 OFFCURVE",
"503 241 CURVE SMOOTH",
"517 394 OFFCURVE",
"440 490 OFFCURVE",
"339 490 CURVE SMOOTH"
);
},
{
closed = 1;
nodes = (
"391 420 OFFCURVE",
"441 353 OFFCURVE",
"430 241 CURVE SMOOTH",
"419 127 OFFCURVE",
"355 59 OFFCURVE",
"286 59 CURVE SMOOTH",
"226 59 OFFCURVE",
"173 111 OFFCURVE",
"180 204 CURVE SMOOTH",
"186 275 LINE",
"197 369 OFFCURVE",
"257 420 OFFCURVE",
"319 420 CURVE SMOOTH"
);
}
);
};
layerId = UUID0;
paths = (
{
closed = 1;
nodes = (
"435 -11 OFFCURVE",
"505 158 OFFCURVE",
"505 276 CURVE SMOOTH",
"505 408 OFFCURVE",
"432 490 OFFCURVE",
"339 490 CURVE SMOOTH",
"281 490 OFFCURVE",
"232 460 OFFCURVE",
"199 406 CURVE",
"226 681 LINE",
"155 681 LINE",
"91 0 LINE",
"140 0 LINE",
"164 84 LINE",
"184 22 OFFCURVE",
"230 -11 OFFCURVE",
"287 -11 CURVE SMOOTH"
);
},
{
closed = 1;
nodes = (
"212 59 OFFCURVE",
"172 124 OFFCURVE",
"181 216 CURVE SMOOTH",
"186 268 LINE SMOOTH",
"194 366 OFFCURVE",
"257 420 OFFCURVE",
"319 420 CURVE SMOOTH",
"384 420 OFFCURVE",
"432 365 OFFCURVE",
"432 271 CURVE SMOOTH",
"432 183 OFFCURVE",
"387 59 OFFCURVE",
"286 59 CURVE SMOOTH"
);
}
);
width = 526;
},
{
background = {
paths = (
{
closed = 1;
nodes = (
"307 499 OFFCURVE",
"262 473 OFFCURVE",
"230 425 CURVE",
"255 686 LINE",
"148 686 LINE",
"84 0 LINE",
"153 0 LINE",
"186 84 LINE",
"206 19 OFFCURVE",
"251 -14 OFFCURVE",
"305 -14 CURVE SMOOTH",
"416 -14 OFFCURVE",
"514 89 OFFCURVE",
"529 245 CURVE SMOOTH",
"543 399 OFFCURVE",
"468 499 OFFCURVE",
"362 499 CURVE SMOOTH"
);
},
{
closed = 1;
nodes = (
"390 393 OFFCURVE",
"432 335 OFFCURVE",
"422 245 CURVE SMOOTH",
"414 153 OFFCURVE",
"362 93 OFFCURVE",
"300 93 CURVE SMOOTH",
"250 93 OFFCURVE",
"202 142 OFFCURVE",
"210 215 CURVE SMOOTH",
"216 285 LINE",
"227 353 OFFCURVE",
"278 393 OFFCURVE",
"328 393 CURVE SMOOTH"
);
}
);
};
layerId = UUID1;
paths = (
{
closed = 1;
nodes = (
"458 -14 OFFCURVE",
"531 159 OFFCURVE",
"531 281 CURVE SMOOTH",
"531 415 OFFCURVE",
"460 499 OFFCURVE",
"362 499 CURVE SMOOTH",
"307 499 OFFCURVE",
"262 473 OFFCURVE",
"230 425 CURVE",
"255 686 LINE",
"148 686 LINE",
"84 0 LINE",
"153 0 LINE",
"186 84 LINE",
"206 19 OFFCURVE",
"251 -14 OFFCURVE",
"305 -14 CURVE SMOOTH"
);
},
{
closed = 1;
nodes = (
"246 93 OFFCURVE",
"204 143 OFFCURVE",
"210 215 CURVE SMOOTH",
"216 285 LINE SMOOTH",
"222 354 OFFCURVE",
"278 393 OFFCURVE",
"328 393 CURVE SMOOTH",
"384 393 OFFCURVE",
"423 345 OFFCURVE",
"423 269 CURVE SMOOTH",
"423 190 OFFCURVE",
"383 93 OFFCURVE",
"300 93 CURVE SMOOTH"
);
}
);
width = 553;
}
);
unicode = 0062;
},
{
glyphname = c;
lastChange = "2019-04-17 22:18:39 +0000";
layers = (
{
background = {
paths = (
{
closed = 1;
nodes = (
"319 403 OFFCURVE",
"378 332 OFFCURVE",
"378 239 CURVE",
"309 233 LINE",
"309 305 OFFCURVE",
"272 346 OFFCURVE",
"219 346 CURVE SMOOTH",
"161 346 OFFCURVE",
"108 296 OFFCURVE",
"108 197 CURVE SMOOTH",
"108 98 OFFCURVE",
"161 48 OFFCURVE",
"219 48 CURVE SMOOTH",
"273 48 OFFCURVE",
"309 85 OFFCURVE",
"309 159 CURVE",
"378 159 LINE",
"378 62 OFFCURVE",
"324 -9 OFFCURVE",
"219 -9 CURVE SMOOTH",
"124 -9 OFFCURVE",
"41 70 OFFCURVE",
"41 197 CURVE SMOOTH",
"41 328 OFFCURVE",
"124 403 OFFCURVE",
"219 403 CURVE SMOOTH"
);
}
);
};
layerId = UUID0;
paths = (
{
closed = 1;
nodes = (
"345 -11 OFFCURVE",
"420 61 OFFCURVE",
"429 161 CURVE",
"356 161 LINE",
"351 96 OFFCURVE",
"312 59 OFFCURVE",
"246 59 CURVE SMOOTH",
"175 59 OFFCURVE",
"130 130 OFFCURVE",
"140 240 CURVE SMOOTH",
"151 359 OFFCURVE",
"216 420 OFFCURVE",
"280 420 CURVE SMOOTH",
"330 420 OFFCURVE",
"363 386 OFFCURVE",
"373 331 CURVE",
"445 338 LINE",
"436 418 OFFCURVE",
"385 490 OFFCURVE",
"287 490 CURVE SMOOTH",
"183 490 OFFCURVE",
"82 399 OFFCURVE",
"67 240 CURVE SMOOTH",
"53 86 OFFCURVE",
"135 -11 OFFCURVE",
"239 -11 CURVE SMOOTH"
);
}
);
width = 463;
},
{
background = {
paths = (
{
closed = 1;
nodes = (
"319 403 OFFCURVE",
"378 332 OFFCURVE",
"378 239 CURVE",
"309 233 LINE",
"309 305 OFFCURVE",
"272 346 OFFCURVE",
"219 346 CURVE SMOOTH",
"161 346 OFFCURVE",
"108 296 OFFCURVE",
"108 197 CURVE SMOOTH",
"108 98 OFFCURVE",
"161 48 OFFCURVE",
"219 48 CURVE SMOOTH",
"273 48 OFFCURVE",
"309 85 OFFCURVE",
"309 159 CURVE",
"378 159 LINE",
"378 62 OFFCURVE",
"324 -9 OFFCURVE",
"219 -9 CURVE SMOOTH",
"124 -9 OFFCURVE",
"41 70 OFFCURVE",
"41 197 CURVE SMOOTH",
"41 328 OFFCURVE",
"124 403 OFFCURVE",
"219 403 CURVE SMOOTH"
);
}
);
};
layerId = UUID1;
paths = (
{
closed = 1;
nodes = (
"366 -14 OFFCURVE",
"439 70 OFFCURVE",
"449 173 CURVE",
"342 173 LINE",
"337 124 OFFCURVE",
"310 93 OFFCURVE",
"256 93 CURVE SMOOTH",
"202 93 OFFCURVE",
"163 143 OFFCURVE",
"172 243 CURVE SMOOTH",
"182 348 OFFCURVE",
"235 393 OFFCURVE",
"285 393 CURVE SMOOTH",
"327 393 OFFCURVE",
"349 361 OFFCURVE",
"355 319 CURVE",
"463 322 LINE",
"462 408 OFFCURVE",
"409 499 OFFCURVE",
"296 499 CURVE SMOOTH",
"186 499 OFFCURVE",
"80 408 OFFCURVE",
"65 243 CURVE SMOOTH",
"50 87 OFFCURVE",
"138 -14 OFFCURVE",
"247 -14 CURVE SMOOTH"
);
}
);
width = 477;
}
);
unicode = 0063;
},
{
glyphname = d;
lastChange = "2019-04-17 22:35:54 +0000";
layers = (
{
background = {
paths = (
{
closed = 1;
nodes = (
"344 490 OFFCURVE",
"387 461 OFFCURVE",
"410 408 CURVE",
"436 681 LINE",
"507 681 LINE",
"443 0 LINE",
"385 0 LINE",
"383 80 LINE",
"350 20 OFFCURVE",
"299 -11 OFFCURVE",
"244 -11 CURVE SMOOTH",
"139 -11 OFFCURVE",
"62 87 OFFCURVE",
"76 241 CURVE",
"91 394 OFFCURVE",
"185 490 OFFCURVE",
"287 490 CURVE SMOOTH"
);
},
{
closed = 1;
nodes = (
"223 420 OFFCURVE",
"160 353 OFFCURVE",
"149 241 CURVE",
"139 127 OFFCURVE",
"189 59 OFFCURVE",
"259 59 CURVE SMOOTH",
"316 59 OFFCURVE",
"378 108 OFFCURVE",
"390 195 CURVE SMOOTH",
"390 198 LINE",
"399 293 LINE",
"400 375 OFFCURVE",
"351 420 OFFCURVE",
"293 420 CURVE SMOOTH"
);
}
);
};
layerId = UUID0;
paths = (
{
closed = 1;
nodes = (
"299 -11 OFFCURVE",
"350 20 OFFCURVE",
"383 80 CURVE",
"385 0 LINE",
"443 0 LINE",
"507 681 LINE",
"436 681 LINE",
"410 408 LINE",
"387 461 OFFCURVE",
"344 490 OFFCURVE",
"287 490 CURVE SMOOTH",
"147 490 OFFCURVE",
"74 331 OFFCURVE",
"74 206 CURVE SMOOTH",
"74 72 OFFCURVE",
"147 -11 OFFCURVE",
"244 -11 CURVE SMOOTH"
);
},
{
closed = 1;
nodes = (
"195 59 OFFCURVE",
"148 116 OFFCURVE",
"148 213 CURVE SMOOTH",
"148 293 OFFCURVE",
"188 420 OFFCURVE",
"293 420 CURVE SMOOTH",
"347 420 OFFCURVE",
"399 381 OFFCURVE",
"400 310 CURVE SMOOTH",
"400 304 OFFCURVE",
"400 299 OFFCURVE",
"399 293 CURVE SMOOTH",
"390 195 LINE SMOOTH",
"382 108 OFFCURVE",
"316 59 OFFCURVE",
"259 59 CURVE SMOOTH"
);
}
);
width = 535;
},
{
background = {
paths = (
{
closed = 1;
nodes = (
"339 499 OFFCURVE",
"379 474 OFFCURVE",
"402 426 CURVE",
"427 686 LINE",
"534 686 LINE",
"469 0 LINE",
"382 0 LINE",
"376 77 LINE",
"343 16 OFFCURVE",
"294 -14 OFFCURVE",
"243 -14 CURVE SMOOTH",
"133 -14 OFFCURVE",
"54 89 OFFCURVE",
"68 245 CURVE",
"83 399 OFFCURVE",
"178 499 OFFCURVE",
"284 499 CURVE SMOOTH"
);
},
{
closed = 1;
nodes = (
"235 393 OFFCURVE",
"184 334 OFFCURVE",
"175 245 CURVE",
"167 153 OFFCURVE",
"207 93 OFFCURVE",
"269 93 CURVE SMOOTH",
"317 93 OFFCURVE",
"371 139 OFFCURVE",
"381 209 CURVE SMOOTH",
"382 215 LINE",
"387 273 LINE",
"394 349 OFFCURVE",
"352 393 OFFCURVE",
"299 393 CURVE SMOOTH"
);
}
);
};
layerId = UUID1;
paths = (
{
closed = 1;
nodes = (
"294 -14 OFFCURVE",
"343 16 OFFCURVE",
"376 77 CURVE",
"382 0 LINE",
"469 0 LINE",
"534 686 LINE",
"427 686 LINE",
"402 426 LINE",
"379 474 OFFCURVE",
"339 499 OFFCURVE",
"284 499 CURVE SMOOTH",
"153 499 OFFCURVE",
"66 359 OFFCURVE",
"66 210 CURVE SMOOTH",
"66 74 OFFCURVE",
"141 -14 OFFCURVE",
"243 -14 CURVE SMOOTH"
);
},
{
closed = 1;
nodes = (
"212 93 OFFCURVE",
"174 143 OFFCURVE",
"174 222 CURVE SMOOTH",
"174 297 OFFCURVE",
"212 393 OFFCURVE",
"299 393 CURVE SMOOTH",
"348 393 OFFCURVE",
"388 355 OFFCURVE",
"388 289 CURVE SMOOTH",
"388 284 OFFCURVE",
"388 279 OFFCURVE",
"387 273 CURVE SMOOTH",
"381 213 LINE SMOOTH",
"374 139 OFFCURVE",
"317 93 OFFCURVE",
"269 93 CURVE SMOOTH"
);
}
);
width = 553;
}
);
unicode = 0064;
},
{
glyphname = e;
lastChange = "2019-04-17 22:36:07 +0000";
layers = (
{
anchors = (
{
name = above;
position = "{232, 507}";
}
);
background = {
paths = (
{
closed = 1;
nodes = (
"313 403 OFFCURVE",
"362 347 OFFCURVE",
"378 280 CURVE",
"312 268 LINE",
"299 316 OFFCURVE",
"266 346 OFFCURVE",
"220 346 CURVE SMOOTH",
"161 346 OFFCURVE",
"108 296 OFFCURVE",
"108 197 CURVE SMOOTH",
"108 107 OFFCURVE",
"155 48 OFFCURVE",
"220 48 CURVE SMOOTH",
"281 48 OFFCURVE",
"312 80 OFFCURVE",
"312 135 CURVE",
"379 135 LINE",
"379 53 OFFCURVE",
"317 -9 OFFCURVE",
"220 -9 CURVE SMOOTH",
"125 -9 OFFCURVE",
"41 70 OFFCURVE",
"41 197 CURVE SMOOTH",
"41 328 OFFCURVE",
"125 403 OFFCURVE",
"220 403 CURVE SMOOTH"
);
}
);
};
layerId = UUID0;
paths = (
{
closed = 1;
nodes = (
"331 -11 OFFCURVE",
"404 45 OFFCURVE",
"427 140 CURVE",
"354 140 LINE",
"340 82 OFFCURVE",
"300 53 OFFCURVE",
"244 53 CURVE SMOOTH",
"162 53 OFFCURVE",
"129 125 OFFCURVE",
"136 222 CURVE",
"431 222 LINE",
"436 245 OFFCURVE",
"439 269 OFFCURVE",
"440 291 CURVE SMOOTH",
"444 402 OFFCURVE",
"396 490 OFFCURVE",
"285 490 CURVE SMOOTH",
"173 490 OFFCURVE",
"82 395 OFFCURVE",
"67 238 CURVE SMOOTH",
"52 83 OFFCURVE",
"126 -11 OFFCURVE",
"238 -11 CURVE SMOOTH"
);
},
{
closed = 1;
nodes = (
"157 361 OFFCURVE",
"205 427 OFFCURVE",
"280 427 CURVE SMOOTH",
"361 427 OFFCURVE",
"380 357 OFFCURVE",
"373 282 CURVE",
"143 282 LINE"
);
}
);
width = 463;
},
{
anchors = (
{
name = above;
position = "{232, 507}";
}
);
background = {
paths = (
{
closed = 1;
nodes = (
"313 403 OFFCURVE",
"362 347 OFFCURVE",
"378 280 CURVE",
"312 268 LINE",
"299 316 OFFCURVE",
"266 346 OFFCURVE",
"220 346 CURVE SMOOTH",
"161 346 OFFCURVE",
"108 296 OFFCURVE",
"108 197 CURVE SMOOTH",
"108 107 OFFCURVE",
"155 48 OFFCURVE",
"220 48 CURVE SMOOTH",
"281 48 OFFCURVE",
"312 80 OFFCURVE",
"312 135 CURVE",
"379 135 LINE",
"379 53 OFFCURVE",
"317 -9 OFFCURVE",
"220 -9 CURVE SMOOTH",
"125 -9 OFFCURVE",
"41 70 OFFCURVE",
"41 197 CURVE SMOOTH",
"41 328 OFFCURVE",
"125 403 OFFCURVE",
"220 403 CURVE SMOOTH"
);
}
);
};
layerId = UUID1;
paths = (
{
closed = 1;
nodes = (
"346 -14 OFFCURVE",
"424 51 OFFCURVE",
"446 145 CURVE",
"339 145 LINE",
"327 102 OFFCURVE",
"295 81 OFFCURVE",
"255 81 CURVE SMOOTH",
"189 81 OFFCURVE",
"161 136 OFFCURVE",
"167 214 CURVE",
"450 214 LINE",
"454 232 OFFCURVE",
"457 249 OFFCURVE",
"459 267 CURVE SMOOTH",
"470 388 OFFCURVE",
"421 499 OFFCURVE",
"294 499 CURVE SMOOTH",
"181 499 OFFCURVE",
"80 403 OFFCURVE",
"65 243 CURVE SMOOTH",
"50 88 OFFCURVE",
"133 -14 OFFCURVE",
"246 -14 CURVE SMOOTH"
);
},
{
closed = 1;
nodes = (
"187 356 OFFCURVE",
"227 405 OFFCURVE",
"286 405 CURVE SMOOTH",
"352 405 OFFCURVE",
"367 348 OFFCURVE",
"362 289 CURVE",
"175 289 LINE"
);
}
);
width = 477;
}
);
unicode = 0065;
},
{
glyphname = f;
lastChange = "2019-04-15 20:26:35 +0000";
layers = (
{
layerId = UUID0;
paths = (
{
closed = 1;
nodes = (
"154 424 LINE",
"115 0 LINE",
"185 0 LINE",
"225 424 LINE",
"314 424 LINE",
"319 478 LINE",
"230 478 LINE",
"237 550 LINE SMOOTH",
"243 612 OFFCURVE",
"276 627 OFFCURVE",
"305 627 CURVE SMOOTH",
"321 627 OFFCURVE",
"340 622 OFFCURVE",
"357 614 CURVE",
"376 676 LINE",
"351 685 OFFCURVE",
"326 689 OFFCURVE",
"301 689 CURVE SMOOTH",
"233 689 OFFCURVE",
"175 646 OFFCURVE",
"166 551 CURVE SMOOTH",
"159 478 LINE",
"89 478 LINE",
"84 424 LINE"
);
}
);
width = 309;
},
{
layerId = UUID1;
paths = (
{
closed = 1;
nodes = (
"139 407 LINE",
"101 0 LINE",
"208 0 LINE",
"245 407 LINE",
"326 407 LINE",
"334 486 LINE",
"253 486 LINE",
"258 542 LINE SMOOTH",
"263 587 OFFCURVE",
"289 601 OFFCURVE",
"314 601 CURVE SMOOTH",
"329 601 OFFCURVE",
"345 597 OFFCURVE",
"360 591 CURVE",
"389 682 LINE",
"360 689 OFFCURVE",
"328 694 OFFCURVE",
"299 694 CURVE SMOOTH",
"228 694 OFFCURVE",
"162 649 OFFCURVE",
"152 543 CURVE SMOOTH",
"146 486 LINE",
"82 486 LINE",
"74 407 LINE"
);
}
);
width = 329;
}
);
unicode = 0066;
},
{
glyphname = g;
lastChange = "2019-04-17 22:36:52 +0000";
layers = (
{
background = {
paths = (
{
closed = 1;
nodes = (
"194 165 LINE",
"165 165 OFFCURVE",
"130 146 OFFCURVE",
"130 108 CURVE SMOOTH",
"130 79 OFFCURVE",
"151 55 OFFCURVE",
"219 55 CURVE SMOOTH",
"404 55 LINE SMOOTH",
"493 55 OFFCURVE",
"549 12 OFFCURVE",
"549 -56 CURVE SMOOTH",
"549 -152 OFFCURVE",
"444 -246 OFFCURVE",
"270 -246 CURVE SMOOTH",
"123 -246 OFFCURVE",
"28 -181 OFFCURVE",
"28 -97 CURVE SMOOTH",
"28 -18 OFFCURVE",
"102 27 OFFCURVE",
"181 27 CURVE",
"181 27 OFFCURVE",
"218 -5 OFFCURVE",
"218 -5 CURVE",
"152 -5 OFFCURVE",
"106 -35 OFFCURVE",
"106 -88 CURVE SMOOTH",
"106 -140 OFFCURVE",
"163 -183 OFFCURVE",
"270 -183 CURVE SMOOTH",
"390 -183 OFFCURVE",
"471 -125 OFFCURVE",
"471 -61 CURVE SMOOTH",
"471 -31 OFFCURVE",
"449 -5 OFFCURVE",
"404 -5 CURVE SMOOTH",
"218 -5 LINE SMOOTH",
"114 -5 OFFCURVE",
"61 47 OFFCURVE",
"61 103 CURVE SMOOTH",
"61 162 OFFCURVE",
"117 195 OFFCURVE",
"171 195 CURVE"
);
},
{
closed = 1;
nodes = (
"391 490 OFFCURVE",
"477 421 OFFCURVE",
"477 316 CURVE SMOOTH",
"477 211 OFFCURVE",
"391 140 OFFCURVE",
"283 140 CURVE SMOOTH",
"174 140 OFFCURVE",
"89 211 OFFCURVE",
"89 316 CURVE SMOOTH",
"89 421 OFFCURVE",
"174 490 OFFCURVE",
"283 490 CURVE SMOOTH"
);
},
{
closed = 1;
nodes = (
"211 433 OFFCURVE",
"167 385 OFFCURVE",
"167 316 CURVE SMOOTH",
"167 247 OFFCURVE",
"212 197 OFFCURVE",
"284 197 CURVE SMOOTH",
"356 197 OFFCURVE",
"400 248 OFFCURVE",
"400 316 CURVE SMOOTH",
"400 385 OFFCURVE",
"356 433 OFFCURVE",
"284 433 CURVE SMOOTH"
);
},
{
closed = 1;
nodes = (
"404 430 LINE",
"404 514 OFFCURVE",
"456 571 OFFCURVE",
"541 571 CURVE",
"534 493 LINE",
"475 493 OFFCURVE",
"442 469 OFFCURVE",
"442 414 CURVE"
);
}
);
};
layerId = UUID0;
paths = (
{
closed = 1;
nodes = (
"376 -246 OFFCURVE",
"480 -152 OFFCURVE",
"489 -56 CURVE SMOOTH",
"495 12 OFFCURVE",
"448 52 OFFCURVE",
"368 52 CURVE SMOOTH",
"201 52 LINE SMOOTH",
"140 52 OFFCURVE",
"123 74 OFFCURVE",
"127 105 CURVE",
"129 138 OFFCURVE",
"154 158 OFFCURVE",
"179 163 CURVE",
"203 148 OFFCURVE",
"233 140 OFFCURVE",
"267 140 CURVE SMOOTH",
"364 140 OFFCURVE",
"449 211 OFFCURVE",
"459 316 CURVE SMOOTH",
"463 357 OFFCURVE",
"454 392 OFFCURVE",
"437 420 CURVE",
"444 471 OFFCURVE",
"475 493 OFFCURVE",
"526 493 CURVE",
"541 571 LINE",
"471 571 OFFCURVE",
"422 524 OFFCURVE",
"407 454 CURVE",
"380 477 OFFCURVE",
"343 490 OFFCURVE",
"301 490 CURVE SMOOTH",
"202 490 OFFCURVE",
"120 421 OFFCURVE",
"110 316 CURVE SMOOTH",
"105 264 OFFCURVE",
"119 221 OFFCURVE",
"146 190 CURVE",
"103 179 OFFCURVE",
"68 147 OFFCURVE",
"64 100 CURVE",
"60 65 OFFCURVE",
"77 34 OFFCURVE",
"110 15 CURVE",
"58 1 OFFCURVE",
"20 -36 OFFCURVE",
"16 -93 CURVE SMOOTH",
"8 -178 OFFCURVE",
"87 -246 OFFCURVE",
"220 -246 CURVE SMOOTH"
);
},
{
closed = 1;
nodes = (
"129 -183 OFFCURVE",
"82 -141 OFFCURVE",
"86 -90 CURVE SMOOTH",
"92 -40 OFFCURVE",
"127 -7 OFFCURVE",
"188 -5 CURVE SMOOTH",
"195 -5 LINE",
"363 -5 LINE SMOOTH",
"403 -5 OFFCURVE",
"420 -31 OFFCURVE",
"418 -61 CURVE SMOOTH",
"411 -125 OFFCURVE",
"333 -183 OFFCURVE",
"225 -183 CURVE SMOOTH"
);
},
{
closed = 1;
nodes = (
"209 197 OFFCURVE",
"173 247 OFFCURVE",
"180 316 CURVE SMOOTH",
"186 385 OFFCURVE",
"230 433 OFFCURVE",
"296 433 CURVE SMOOTH",
"361 433 OFFCURVE",
"396 385 OFFCURVE",
"390 316 CURVE SMOOTH",
"383 248 OFFCURVE",
"338 197 OFFCURVE",
"274 197 CURVE SMOOTH"
);
}
);
width = 508;
},
{
background = {
paths = (
{
closed = 1;
nodes = (
"194 165 LINE",
"165 165 OFFCURVE",
"130 146 OFFCURVE",
"130 108 CURVE SMOOTH",
"130 79 OFFCURVE",
"151 55 OFFCURVE",
"219 55 CURVE SMOOTH",
"404 55 LINE SMOOTH",
"493 55 OFFCURVE",
"549 12 OFFCURVE",
"549 -56 CURVE SMOOTH",
"549 -152 OFFCURVE",
"444 -246 OFFCURVE",
"270 -246 CURVE SMOOTH",
"123 -246 OFFCURVE",
"28 -181 OFFCURVE",
"28 -97 CURVE SMOOTH",
"28 -18 OFFCURVE",
"102 27 OFFCURVE",
"181 27 CURVE",
"181 27 OFFCURVE",
"218 -5 OFFCURVE",
"218 -5 CURVE",
"152 -5 OFFCURVE",
"106 -35 OFFCURVE",
"106 -88 CURVE SMOOTH",
"106 -140 OFFCURVE",
"163 -183 OFFCURVE",
"270 -183 CURVE SMOOTH",
"390 -183 OFFCURVE",
"471 -125 OFFCURVE",
"471 -61 CURVE SMOOTH",
"471 -31 OFFCURVE",
"449 -5 OFFCURVE",
"404 -5 CURVE SMOOTH",
"218 -5 LINE SMOOTH",
"114 -5 OFFCURVE",
"61 47 OFFCURVE",
"61 103 CURVE SMOOTH",
"61 162 OFFCURVE",
"117 195 OFFCURVE",
"171 195 CURVE"
);
},
{
closed = 1;
nodes = (
"391 490 OFFCURVE",
"477 421 OFFCURVE",
"477 316 CURVE SMOOTH",
"477 211 OFFCURVE",
"391 140 OFFCURVE",
"283 140 CURVE SMOOTH",
"174 140 OFFCURVE",
"89 211 OFFCURVE",
"89 316 CURVE SMOOTH",
"89 421 OFFCURVE",
"174 490 OFFCURVE",
"283 490 CURVE SMOOTH"
);
},
{
closed = 1;
nodes = (
"211 433 OFFCURVE",
"167 385 OFFCURVE",
"167 316 CURVE SMOOTH",
"167 247 OFFCURVE",
"212 197 OFFCURVE",
"284 197 CURVE SMOOTH",
"356 197 OFFCURVE",
"400 248 OFFCURVE",
"400 316 CURVE SMOOTH",
"400 385 OFFCURVE",
"356 433 OFFCURVE",
"284 433 CURVE SMOOTH"
);
},
{
closed = 1;
nodes = (
"404 430 LINE",
"404 514 OFFCURVE",
"456 571 OFFCURVE",
"541 571 CURVE",
"534 493 LINE",
"475 493 OFFCURVE",
"442 469 OFFCURVE",
"442 414 CURVE"
);
}
);
};
layerId = UUID1;
paths = (
{
closed = 1;
nodes = (
"383 -251 OFFCURVE",
"491 -149 OFFCURVE",
"501 -44 CURVE SMOOTH",
"508 35 OFFCURVE",
"455 72 OFFCURVE",
"363 72 CURVE SMOOTH",
"216 72 LINE SMOOTH",
"166 72 OFFCURVE",
"149 90 OFFCURVE",
"152 117 CURVE",
"154 143 OFFCURVE",
"173 159 OFFCURVE",
"193 165 CURVE",
"216 155 OFFCURVE",
"242 150 OFFCURVE",
"271 150 CURVE SMOOTH",
"373 150 OFFCURVE",
"466 219 OFFCURVE",
"476 324 CURVE SMOOTH",
"480 364 OFFCURVE",
"470 399 OFFCURVE",
"452 427 CURVE",
"457 466 OFFCURVE",
"487 484 OFFCURVE",
"537 484 CURVE",
"553 597 LINE",
"485 597 OFFCURVE",
"423 547 OFFCURVE",
"408 470 CURVE",
"379 488 OFFCURVE",
"343 499 OFFCURVE",
"304 499 CURVE SMOOTH",
"201 499 OFFCURVE",
"109 431 OFFCURVE",
"99 324 CURVE SMOOTH",
"94 272 OFFCURVE",
"110 230 OFFCURVE",
"140 199 CURVE",
"96 186 OFFCURVE",
"64 153 OFFCURVE",
"60 107 CURVE",
"57 71 OFFCURVE",
"74 40 OFFCURVE",
"105 18 CURVE",
"51 9 OFFCURVE",
"11 -28 OFFCURVE",
"4 -87 CURVE SMOOTH",
"-3 -174 OFFCURVE",
"77 -251 OFFCURVE",
"228 -251 CURVE SMOOTH"
);
},
{
closed = 1;
nodes = (
"153 -157 OFFCURVE",
"105 -127 OFFCURVE",
"110 -81 CURVE SMOOTH",
"114 -38 OFFCURVE",
"147 -13 OFFCURVE",
"201 -11 CURVE SMOOTH",
"208 -11 LINE",
"355 -11 LINE SMOOTH",
"383 -11 OFFCURVE",
"398 -28 OFFCURVE",
"395 -52 CURVE SMOOTH",
"390 -106 OFFCURVE",
"328 -157 OFFCURVE",
"237 -157 CURVE SMOOTH"
);
},
{
closed = 1;
nodes = (
"225 233 OFFCURVE",
"199 272 OFFCURVE",
"204 324 CURVE SMOOTH",
"209 380 OFFCURVE",
"242 417 OFFCURVE",
"296 417 CURVE SMOOTH",
"352 417 OFFCURVE",
"375 380 OFFCURVE",
"371 324 CURVE SMOOTH",
"365 272 OFFCURVE",
"335 233 OFFCURVE",
"280 233 CURVE SMOOTH"
);
}
);
width = 524;
}
);
unicode = 0067;
},
{
glyphname = h;
lastChange = "2019-04-17 22:37:11 +0000";
layers = (
{
layerId = UUID0;
paths = (
{
closed = 1;
nodes = (
"162 0 LINE",
"183 226 LINE",
"183 226 OFFCURVE",
"183 226 OFFCURVE",
"183 226 CURVE",
"194 347 OFFCURVE",
"249 420 OFFCURVE",
"327 420 CURVE SMOOTH",
"394 420 OFFCURVE",
"432 372 OFFCURVE",
"423 281 CURVE SMOOTH",
"397 0 LINE",
"467 0 LINE",
"493 281 LINE SMOOTH",
"506 410 OFFCURVE",
"453 490 OFFCURVE",
"351 490 CURVE SMOOTH",
"284 490 OFFCURVE",
"232 454 OFFCURVE",
"198 390 CURVE",
"226 681 LINE",
"155 681 LINE",
"91 0 LINE"
);
}
);
width = 544;
},
{
layerId = UUID1;
paths = (
{
closed = 1;
nodes = (
"190 0 LINE",
"213 241 LINE",
"213 242 OFFCURVE",
"213 242 OFFCURVE",
"213 243 CURVE",
"228 343 OFFCURVE",
"277 393 OFFCURVE",
"336 393 CURVE SMOOTH",
"386 393 OFFCURVE",
"417 356 OFFCURVE",
"409 284 CURVE SMOOTH",
"383 0 LINE",
"490 0 LINE",
"516 284 LINE SMOOTH",
"528 413 OFFCURVE",
"481 499 OFFCURVE",
"373 499 CURVE SMOOTH",
"314 499 OFFCURVE",
"264 469 OFFCURVE",
"228 408 CURVE",
"255 686 LINE",
"148 686 LINE",
"84 0 LINE"
);
}
);
width = 561;
}
);
unicode = 0068;
},
{
glyphname = i;
lastChange = "2019-04-17 22:37:22 +0000";
layers = (
{
layerId = UUID0;
paths = (
{
closed = 1;
nodes = (
"166 0 LINE",
"211 479 LINE",
"140 479 LINE",
"95 0 LINE"
);
},
{
closed = 1;
nodes = (
"215 591 OFFCURVE",
"236 611 OFFCURVE",
"238 640 CURVE SMOOTH",
"241 670 OFFCURVE",
"224 690 OFFCURVE",
"196 690 CURVE SMOOTH",
"166 690 OFFCURVE",
"148 670 OFFCURVE",
"145 640 CURVE SMOOTH",
"142 611 OFFCURVE",
"157 591 OFFCURVE",
"187 591 CURVE SMOOTH"
);
}
);
width = 269;
},
{
layerId = UUID1;
paths = (
{
closed = 1;
nodes = (
"199 0 LINE",
"245 487 LINE",
"139 487 LINE",
"93 0 LINE"
);
},
{
closed = 1;
nodes = (
"240 574 OFFCURVE",
"268 600 OFFCURVE",
"272 643 CURVE SMOOTH",
"275 685 OFFCURVE",
"253 712 OFFCURVE",
"212 712 CURVE SMOOTH",
"171 712 OFFCURVE",
"144 685 OFFCURVE",
"140 643 CURVE SMOOTH",
"137 600 OFFCURVE",
"158 574 OFFCURVE",
"200 574 CURVE SMOOTH"
);
}
);
width = 295;
}
);
unicode = 0069;
},
{
glyphname = j;
lastChange = "2019-04-17 22:37:32 +0000";
layers = (
{
background = {
paths = (
{
closed = 1;
nodes = (
"92 503 OFFCURVE",
"108 486 OFFCURVE",
"135 486 CURVE SMOOTH",
"161 486 OFFCURVE",
"178 503 OFFCURVE",
"178 527 CURVE SMOOTH",
"178 551 OFFCURVE",
"161 568 OFFCURVE",
"135 568 CURVE SMOOTH",
"108 568 OFFCURVE",
"92 551 OFFCURVE",
"92 527 CURVE SMOOTH"
);
}
);
};
layerId = UUID0;
paths = (
{
closed = 1;
nodes = (
"101 -246 OFFCURVE",
"161 -195 OFFCURVE",
"173 -67 CURVE SMOOTH",
"225 480 LINE",
"154 480 LINE",
"102 -67 LINE",
"94 -143 OFFCURVE",
"64 -177 OFFCURVE",
"13 -177 CURVE SMOOTH",
"-23 -177 OFFCURVE",
"-54 -163 OFFCURVE",
"-86 -140 CURVE",
"-96 -209 LINE",
"-58 -233 OFFCURVE",
"-21 -246 OFFCURVE",
"20 -246 CURVE SMOOTH"
);
},
{
closed = 1;
nodes = (
"229 591 OFFCURVE",
"249 611 OFFCURVE",
"252 640 CURVE SMOOTH",
"255 670 OFFCURVE",
"238 690 OFFCURVE",
"209 690 CURVE SMOOTH",
"180 690 OFFCURVE",
"161 670 OFFCURVE",
"158 640 CURVE SMOOTH",
"156 611 OFFCURVE",
"171 591 OFFCURVE",
"200 591 CURVE SMOOTH"
);
}
);
width = 283;
},
{
background = {
paths = (
{
closed = 1;
nodes = (
"92 503 OFFCURVE",
"108 486 OFFCURVE",
"135 486 CURVE SMOOTH",
"161 486 OFFCURVE",
"178 503 OFFCURVE",
"178 527 CURVE SMOOTH",
"178 551 OFFCURVE",
"161 568 OFFCURVE",
"135 568 CURVE SMOOTH",
"108 568 OFFCURVE",
"92 551 OFFCURVE",
"92 527 CURVE SMOOTH"
);
}
);
};
layerId = UUID1;
paths = (
{
closed = 1;
nodes = (
"126 -251 OFFCURVE",
"186 -197 OFFCURVE",
"199 -58 CURVE SMOOTH",
"251 488 LINE",
"145 488 LINE",
"94 -56 LINE",
"87 -123 OFFCURVE",
"61 -148 OFFCURVE",
"17 -148 CURVE SMOOTH",
"-14 -148 OFFCURVE",
"-49 -135 OFFCURVE",
"-77 -118 CURVE",
"-89 -220 LINE",
"-50 -239 OFFCURVE",
"-13 -251 OFFCURVE",
"33 -251 CURVE SMOOTH"
);
},
{
closed = 1;
nodes = (
"247 574 OFFCURVE",
"274 600 OFFCURVE",
"277 643 CURVE SMOOTH",
"281 685 OFFCURVE",
"259 712 OFFCURVE",
"218 712 CURVE SMOOTH",
"177 712 OFFCURVE",
"149 685 OFFCURVE",
"146 643 CURVE SMOOTH",
"142 600 OFFCURVE",
"165 574 OFFCURVE",
"205 574 CURVE SMOOTH"
);
}
);
width = 301;
}
);
unicode = 006A;
},
{
glyphname = k;
lastChange = "2019-04-15 20:26:35 +0000";
layers = (
{
background = {
paths = (
{
closed = 1;
nodes = (
"83 561 LINE",
"83 0 LINE",
"148 0 LINE",
"148 561 LINE"
);
},
{
closed = 1;
nodes = (
"145 193 LINE",
"248 186 OFFCURVE",
"292 142 OFFCURVE",
"313 58 CURVE SMOOTH",
"331 0 LINE",
"398 0 LINE",
"380 58 LINE SMOOTH",
"353 172 OFFCURVE",
"297 212 OFFCURVE",
"197 221 CURVE",
"284 237 OFFCURVE",
"355 290 OFFCURVE",
"396 394 CURVE",
"324 394 LINE",
"282 299 OFFCURVE",
"219 256 OFFCURVE",
"145 240 CURVE"
);
},
{
closed = 1;
nodes = (
"260 264 OFFCURVE",
"267 257 OFFCURVE",
"275 257 CURVE SMOOTH",
"283 257 OFFCURVE",
"290 264 OFFCURVE",
"290 272 CURVE SMOOTH",
"290 280 OFFCURVE",
"283 287 OFFCURVE",
"275 287 CURVE SMOOTH",
"267 287 OFFCURVE",
"260 280 OFFCURVE",
"260 272 CURVE SMOOTH"
);
},
{
closed = 1;
nodes = (
"115 149 OFFCURVE",
"122 142 OFFCURVE",
"130 142 CURVE SMOOTH",
"138 142 OFFCURVE",
"145 149 OFFCURVE",
"145 157 CURVE SMOOTH",
"145 165 OFFCURVE",
"138 172 OFFCURVE",
"130 172 CURVE SMOOTH",
"122 172 OFFCURVE",
"115 165 OFFCURVE",
"115 157 CURVE SMOOTH"
);
}
);
};
layerId = UUID0;
paths = (
{
closed = 1;
nodes = (
"479 0 LINE",
"299 299 LINE",
"514 478 LINE",
"415 478 LINE",
"189 286 LINE",
"226 681 LINE",
"155 681 LINE",
"91 0 LINE",
"162 0 LINE",
"181 201 LINE",
"243 253 LINE",
"391 0 LINE"
);
}
);
width = 508;
},
{
background = {
paths = (
{
closed = 1;
nodes = (
"83 561 LINE",
"83 0 LINE",
"148 0 LINE",
"148 561 LINE"
);
},
{
closed = 1;
nodes = (
"145 193 LINE",
"248 186 OFFCURVE",
"292 142 OFFCURVE",
"313 58 CURVE SMOOTH",
"331 0 LINE",
"398 0 LINE",
"380 58 LINE SMOOTH",
"353 172 OFFCURVE",
"297 212 OFFCURVE",
"197 221 CURVE",
"284 237 OFFCURVE",
"355 290 OFFCURVE",
"396 394 CURVE",
"324 394 LINE",
"282 299 OFFCURVE",
"219 256 OFFCURVE",
"145 240 CURVE"
);
},
{
closed = 1;
nodes = (
"260 264 OFFCURVE",
"267 257 OFFCURVE",
"275 257 CURVE SMOOTH",
"283 257 OFFCURVE",
"290 264 OFFCURVE",
"290 272 CURVE SMOOTH",
"290 280 OFFCURVE",
"283 287 OFFCURVE",
"275 287 CURVE SMOOTH",
"267 287 OFFCURVE",
"260 280 OFFCURVE",
"260 272 CURVE SMOOTH"
);
},
{
closed = 1;
nodes = (
"115 149 OFFCURVE",
"122 142 OFFCURVE",
"130 142 CURVE SMOOTH",
"138 142 OFFCURVE",
"145 149 OFFCURVE",
"145 157 CURVE SMOOTH",
"145 165 OFFCURVE",
"138 172 OFFCURVE",
"130 172 CURVE SMOOTH",
"122 172 OFFCURVE",
"115 165 OFFCURVE",
"115 157 CURVE SMOOTH"
);
}
);
};
layerId = UUID1;
paths = (
{
closed = 1;
nodes = (
"517 0 LINE",
"342 306 LINE",
"553 486 LINE",
"409 486 LINE",
"220 316 LINE",
"255 686 LINE",
"148 686 LINE",
"84 0 LINE",
"190 0 LINE",
"208 193 LINE",
"260 237 LINE",
"388 0 LINE"
);
}
);
width = 517;
}
);
unicode = 006B;
},
{
glyphname = l;
lastChange = "2019-04-15 20:26:35 +0000";
layers = (
{
background = {
paths = (
{
closed = 1;
nodes = (
"86 0 LINE",
"145 0 LINE",
"145 589 LINE",
"86 589 LINE"
);
}
);
};
layerId = UUID0;
paths = (
{
closed = 1;
nodes = (
"162 0 LINE",
"226 681 LINE",
"155 681 LINE",
"91 0 LINE"
);
}
);
width = 252;
},
{
background = {
paths = (
{
closed = 1;
nodes = (
"86 0 LINE",
"145 0 LINE",
"145 589 LINE",
"86 589 LINE"
);
}
);
};
layerId = UUID1;
paths = (
{
closed = 1;
nodes = (
"190 0 LINE",
"255 686 LINE",
"148 686 LINE",
"84 0 LINE"
);
}
);
width = 274;
}
);
unicode = 006C;
},
{
glyphname = m;
lastChange = "2019-04-17 22:37:54 +0000";
layers = (
{
layerId = UUID0;
paths = (
{
closed = 1;
nodes = (
"161 0 LINE",
"182 226 LINE SMOOTH",
"193 347 OFFCURVE",
"248 420 OFFCURVE",
"326 420 CURVE SMOOTH",
"393 420 OFFCURVE",
"431 372 OFFCURVE",
"422 281 CURVE SMOOTH",
"396 0 LINE",
"466 0 LINE",
"487 232 LINE",
"500 349 OFFCURVE",
"546 420 OFFCURVE",
"625 420 CURVE SMOOTH",
"692 420 OFFCURVE",
"730 372 OFFCURVE",
"721 281 CURVE SMOOTH",
"695 0 LINE",
"765 0 LINE",
"791 281 LINE",
"804 410 OFFCURVE",
"751 490 OFFCURVE",
"649 490 CURVE SMOOTH",
"577 490 OFFCURVE",
"522 452 OFFCURVE",
"488 375 CURVE",
"472 447 OFFCURVE",
"424 490 OFFCURVE",
"350 490 CURVE SMOOTH",
"282 490 OFFCURVE",
"229 453 OFFCURVE",
"195 385 CURVE",
"195 416 OFFCURVE",
"196 447 OFFCURVE",
"196 478 CURVE",
"135 478 LINE",
"90 0 LINE"
);
}
);
width = 841;
},
{
layerId = UUID1;
paths = (
{
closed = 1;
nodes = (
"190 0 LINE",
"210 217 LINE SMOOTH",
"221 334 OFFCURVE",
"272 393 OFFCURVE",
"336 393 CURVE SMOOTH",
"386 393 OFFCURVE",
"417 356 OFFCURVE",
"409 284 CURVE SMOOTH",
"383 0 LINE",
"490 0 LINE",
"510 220 LINE",
"520 336 OFFCURVE",
"565 393 OFFCURVE",
"629 393 CURVE SMOOTH",
"679 393 OFFCURVE",
"709 356 OFFCURVE",
"703 284 CURVE SMOOTH",
"677 0 LINE",
"784 0 LINE",
"810 284 LINE",
"822 413 OFFCURVE",
"776 499 OFFCURVE",
"668 499 CURVE SMOOTH",
"602 499 OFFCURVE",
"546 468 OFFCURVE",
"509 394 CURVE",
"491 459 OFFCURVE",
"446 499 OFFCURVE",
"373 499 CURVE SMOOTH",
"312 499 OFFCURVE",
"261 467 OFFCURVE",
"225 403 CURVE",
"224 431 OFFCURVE",
"223 458 OFFCURVE",
"222 486 CURVE",
"130 486 LINE",
"84 0 LINE"
);
}
);
width = 854;
}
);
unicode = 006D;
},
{
glyphname = n;
lastChange = "2019-04-17 22:38:07 +0000";
layers = (
{
anchors = (
{
name = above;
position = "{274, 507}";
}
);
layerId = UUID0;
paths = (
{
closed = 1;
nodes = (
"161 0 LINE",
"182 226 LINE SMOOTH",
"193 347 OFFCURVE",
"248 420 OFFCURVE",
"326 420 CURVE SMOOTH",
"393 420 OFFCURVE",
"431 372 OFFCURVE",
"422 281 CURVE SMOOTH",
"396 0 LINE",
"466 0 LINE",
"492 281 LINE",
"505 410 OFFCURVE",
"452 490 OFFCURVE",
"350 490 CURVE SMOOTH",
"282 490 OFFCURVE",
"229 453 OFFCURVE",
"195 385 CURVE",
"196 478 LINE",
"135 478 LINE",
"90 0 LINE"
);
}
);
width = 543;
},
{
anchors = (
{
name = above;
position = "{274, 507}";
}
);
layerId = UUID1;
paths = (
{
closed = 1;
nodes = (
"190 0 LINE",
"210 217 LINE SMOOTH",
"221 334 OFFCURVE",
"272 393 OFFCURVE",
"336 393 CURVE SMOOTH",
"386 393 OFFCURVE",
"417 356 OFFCURVE",
"409 284 CURVE SMOOTH",
"383 0 LINE",
"490 0 LINE",
"516 284 LINE",
"528 413 OFFCURVE",
"481 499 OFFCURVE",
"373 499 CURVE SMOOTH",
"312 499 OFFCURVE",
"261 467 OFFCURVE",
"225 403 CURVE",
"222 486 LINE",
"130 486 LINE",
"84 0 LINE"
);
}
);
width = 561;
}
);
unicode = 006E;
},
{
glyphname = o;
lastChange = "2019-04-17 22:38:33 +0000";
layers = (
{
anchors = (
{
name = above;
position = "{246, 507}";
}
);
layerId = UUID0;
paths = (
{
closed = 1;
nodes = (
"360 -11 OFFCURVE",
"453 75 OFFCURVE",
"469 239 CURVE SMOOTH",
"484 404 OFFCURVE",
"408 490 OFFCURVE",
"292 490 CURVE SMOOTH",
"175 490 OFFCURVE",
"83 404 OFFCURVE",
"67 239 CURVE SMOOTH",
"51 75 OFFCURVE",
"128 -11 OFFCURVE",
"244 -11 CURVE SMOOTH"
);
},
{
closed = 1;
nodes = (
"165 57 OFFCURVE",
"130 126 OFFCURVE",
"140 239 CURVE SMOOTH",
"151 353 OFFCURVE",
"203 422 OFFCURVE",
"287 422 CURVE SMOOTH",
"370 422 OFFCURVE",
"408 353 OFFCURVE",
"397 239 CURVE SMOOTH",
"386 126 OFFCURVE",
"331 57 OFFCURVE",
"248 57 CURVE SMOOTH"
);
}
);
width = 491;
},
{
anchors = (
{
name = above;
position = "{246, 507}";
}
);
layerId = UUID1;
paths = (
{
closed = 1;
nodes = (
"372 -14 OFFCURVE",
"473 71 OFFCURVE",
"490 242 CURVE SMOOTH",
"506 416 OFFCURVE",
"420 499 OFFCURVE",
"302 499 CURVE SMOOTH",
"183 499 OFFCURVE",
"81 416 OFFCURVE",
"65 242 CURVE SMOOTH",
"49 71 OFFCURVE",
"134 -14 OFFCURVE",
"254 -14 CURVE SMOOTH"
);
},
{
closed = 1;
nodes = (
"197 89 OFFCURVE",
"162 141 OFFCURVE",
"172 242 CURVE SMOOTH",
"182 345 OFFCURVE",
"232 397 OFFCURVE",
"296 397 CURVE SMOOTH",
"359 397 OFFCURVE",
"393 345 OFFCURVE",
"383 242 CURVE SMOOTH",
"373 141 OFFCURVE",
"323 89 OFFCURVE",
"260 89 CURVE SMOOTH"
);
}
);
width = 509;
}
);
unicode = 006F;
},
{
glyphname = p;
lastChange = "2019-04-17 22:39:13 +0000";
layers = (
{
layerId = UUID0;
paths = (
{
closed = 1;
nodes = (
"139 -235 LINE",
"167 58 LINE",
"189 13 OFFCURVE",
"230 -11 OFFCURVE",
"284 -11 CURVE SMOOTH",
"387 -11 OFFCURVE",
"488 83 OFFCURVE",
"503 240 CURVE SMOOTH",
"517 396 OFFCURVE",
"435 490 OFFCURVE",
"335 490 CURVE SMOOTH",
"279 490 OFFCURVE",
"229 461 OFFCURVE",
"195 405 CURVE",
"195 429 OFFCURVE",
"194 454 OFFCURVE",
"194 478 CURVE",
"136 478 LINE",
"68 -235 LINE"
);
},
{
closed = 1;
nodes = (
"223 59 OFFCURVE",
"172 107 OFFCURVE",
"179 194 CURVE SMOOTH",
"187 278 LINE SMOOTH",
"197 371 OFFCURVE",
"256 420 OFFCURVE",
"319 420 CURVE SMOOTH",
"390 420 OFFCURVE",
"441 353 OFFCURVE",
"430 240 CURVE SMOOTH",
"418 121 OFFCURVE",
"349 59 OFFCURVE",
"283 59 CURVE SMOOTH"
);
}
);
width = 535;
},
{
layerId = UUID1;
paths = (
{
closed = 1;
nodes = (
"167 -237 LINE",
"193 39 LINE",
"215 3 OFFCURVE",
"251 -14 OFFCURVE",
"301 -14 CURVE SMOOTH",
"408 -14 OFFCURVE",
"514 81 OFFCURVE",
"529 243 CURVE SMOOTH",
"544 404 OFFCURVE",
"457 499 OFFCURVE",
"354 499 CURVE SMOOTH",
"302 499 OFFCURVE",
"254 474 OFFCURVE",
"221 420 CURVE",
"220 442 OFFCURVE",
"218 464 OFFCURVE",
"217 486 CURVE",
"130 486 LINE",
"61 -237 LINE"
);
},
{
closed = 1;
nodes = (
"236 93 OFFCURVE",
"202 132 OFFCURVE",
"208 196 CURVE SMOOTH",
"216 278 LINE SMOOTH",
"223 351 OFFCURVE",
"271 393 OFFCURVE",
"326 393 CURVE SMOOTH",
"390 393 OFFCURVE",
"431 336 OFFCURVE",
"422 243 CURVE SMOOTH",
"412 142 OFFCURVE",
"348 93 OFFCURVE",
"295 93 CURVE SMOOTH"
);
}
);
width = 549;
}
);
unicode = 0070;
},
{
glyphname = q;
lastChange = "2019-04-17 22:39:36 +0000";
layers = (
{
background = {
paths = (
{
closed = 1;
nodes = (
"239 -9 OFFCURVE",
"259 68 OFFCURVE",
"259 197 CURVE SMOOTH",
"259 326 OFFCURVE",
"239 403 OFFCURVE",
"213 403 CURVE SMOOTH",
"183 403 OFFCURVE",
"165 343 OFFCURVE",
"165 229 CURVE",
"163 229 LINE",
"163 306 OFFCURVE",
"195 346 OFFCURVE",
"222 346 CURVE SMOOTH",
"251 346 OFFCURVE",
"281 291 OFFCURVE",
"281 197 CURVE SMOOTH",
"281 100 OFFCURVE",
"257 48 OFFCURVE",
"223 48 CURVE SMOOTH",
"193 48 OFFCURVE",
"163 88 OFFCURVE",
"163 160 CURVE",
"165 160 LINE",
"165 51 OFFCURVE",
"191 -9 OFFCURVE",
"215 -9 CURVE SMOOTH"
);
}
);
};
layerId = UUID0;
paths = (
{
closed = 1;
nodes = (
"482 -185 LINE",
"433 -166 OFFCURVE",
"420 -149 OFFCURVE",
"427 -81 CURVE SMOOTH",
"480 478 LINE",
"431 478 LINE",
"408 399 LINE",
"387 459 OFFCURVE",
"341 490 OFFCURVE",
"283 490 CURVE SMOOTH",
"184 490 OFFCURVE",
"83 396 OFFCURVE",
"68 240 CURVE SMOOTH",
"53 83 OFFCURVE",
"136 -11 OFFCURVE",
"238 -11 CURVE SMOOTH",
"297 -11 OFFCURVE",
"343 22 OFFCURVE",
"371 77 CURVE",
"357 -76 LINE",
"347 -173 OFFCURVE",
"372 -221 OFFCURVE",
"454 -246 CURVE"
);
},
{
closed = 1;
nodes = (
"188 59 OFFCURVE",
"130 121 OFFCURVE",
"141 240 CURVE SMOOTH",
"152 353 OFFCURVE",
"216 420 OFFCURVE",
"286 420 CURVE SMOOTH",
"343 420 OFFCURVE",
"393 376 OFFCURVE",
"392 293 CURVE",
"382 194 LINE SMOOTH",
"374 106 OFFCURVE",
"312 59 OFFCURVE",
"253 59 CURVE SMOOTH"
);
}
);
width = 526;
},
{
background = {
paths = (
{
closed = 1;
nodes = (
"239 -9 OFFCURVE",
"259 68 OFFCURVE",
"259 197 CURVE SMOOTH",
"259 326 OFFCURVE",
"239 403 OFFCURVE",
"213 403 CURVE SMOOTH",
"183 403 OFFCURVE",
"165 343 OFFCURVE",
"165 229 CURVE",
"163 229 LINE",
"163 306 OFFCURVE",
"195 346 OFFCURVE",
"222 346 CURVE SMOOTH",
"251 346 OFFCURVE",
"281 291 OFFCURVE",
"281 197 CURVE SMOOTH",
"281 100 OFFCURVE",
"257 48 OFFCURVE",
"223 48 CURVE SMOOTH",
"193 48 OFFCURVE",
"163 88 OFFCURVE",
"163 160 CURVE",
"165 160 LINE",
"165 51 OFFCURVE",
"191 -9 OFFCURVE",
"215 -9 CURVE SMOOTH"
);
}
);
};
layerId = UUID1;
paths = (
{
closed = 1;
nodes = (
"508 -165 LINE",
"464 -149 OFFCURVE",
"452 -134 OFFCURVE",
"458 -75 CURVE SMOOTH",
"511 486 LINE",
"442 486 LINE",
"411 411 LINE",
"388 471 OFFCURVE",
"342 499 OFFCURVE",
"288 499 CURVE SMOOTH",
"185 499 OFFCURVE",
"80 404 OFFCURVE",
"65 243 CURVE SMOOTH",
"49 81 OFFCURVE",
"138 -14 OFFCURVE",
"245 -14 CURVE SMOOTH",
"301 -14 OFFCURVE",
"339 15 OFFCURVE",
"364 64 CURVE",
"352 -66 LINE",
"342 -169 OFFCURVE",
"374 -224 OFFCURVE",
"470 -251 CURVE"
);
},
{
closed = 1;
nodes = (
"216 93 OFFCURVE",
"162 142 OFFCURVE",
"172 243 CURVE SMOOTH",
"181 336 OFFCURVE",
"233 393 OFFCURVE",
"297 393 CURVE SMOOTH",
"351 393 OFFCURVE",
"391 351 OFFCURVE",
"384 278 CURVE",
"376 196 LINE SMOOTH",
"370 131 OFFCURVE",
"319 93 OFFCURVE",
"270 93 CURVE SMOOTH"
);
}
);
width = 549;
}
);
unicode = 0071;
},
{
glyphname = r;
lastChange = "2019-04-17 22:39:51 +0000";
layers = (
{
layerId = UUID0;
paths = (
{
closed = 1;
nodes = (
"161 0 LINE",
"180 216 LINE SMOOTH",
"191 335 OFFCURVE",
"228 411 OFFCURVE",
"305 411 CURVE SMOOTH",
"321 411 OFFCURVE",
"341 407 OFFCURVE",
"359 401 CURVE",
"370 478 LINE",
"355 484 OFFCURVE",
"340 487 OFFCURVE",
"321 487 CURVE SMOOTH",
"268 487 OFFCURVE",
"226 454 OFFCURVE",
"197 388 CURVE",
"206 479 LINE",
"135 479 LINE",
"90 0 LINE"
);
}
);
width = 343;
},
{
layerId = UUID1;
paths = (
{
closed = 1;
nodes = (
"190 0 LINE",
"210 213 LINE SMOOTH",
"220 320 OFFCURVE",
"262 376 OFFCURVE",
"331 376 CURVE SMOOTH",
"346 376 OFFCURVE",
"364 374 OFFCURVE",
"380 370 CURVE",
"393 488 LINE",
"381 492 OFFCURVE",
"369 495 OFFCURVE",
"355 495 CURVE SMOOTH",
"305 495 OFFCURVE",
"259 461 OFFCURVE",
"227 391 CURVE",
"236 487 LINE",
"130 487 LINE",
"84 0 LINE"
);
}
);
width = 374;
}
);
unicode = 0072;
},
{
glyphname = s;
lastChange = "2019-04-17 22:40:15 +0000";
layers = (
{
layerId = UUID0;
paths = (
{
closed = 1;
nodes = (
"349 -11 OFFCURVE",
"423 56 OFFCURVE",
"430 128 CURVE SMOOTH",
"436 190 OFFCURVE",
"399 228 OFFCURVE",
"328 253 CURVE",
"245 285 LINE",
"194 302 OFFCURVE",
"174 324 OFFCURVE",
"176 359 CURVE",
"180 392 OFFCURVE",
"216 428 OFFCURVE",
"274 428 CURVE SMOOTH",
"335 428 OFFCURVE",
"366 406 OFFCURVE",
"368 363 CURVE",
"437 363 LINE",
"441 436 OFFCURVE",
"386 490 OFFCURVE",
"281 490 CURVE SMOOTH",
"181 490 OFFCURVE",
"110 439 OFFCURVE",
"102 361 CURVE SMOOTH",
"96 300 OFFCURVE",
"130 255 OFFCURVE",
"202 231 CURVE",
"283 200 LINE",
"335 184 OFFCURVE",
"356 165 OFFCURVE",
"353 128 CURVE",
"348 84 OFFCURVE",
"300 51 OFFCURVE",
"244 51 CURVE SMOOTH",
"174 51 OFFCURVE",
"132 82 OFFCURVE",
"135 141 CURVE",
"67 141 LINE",
"62 52 OFFCURVE",
"120 -11 OFFCURVE",
"244 -11 CURVE SMOOTH"
);
}
);
width = 473;
},
{
layerId = UUID1;
paths = (
{
closed = 1;
nodes = (
"354 -14 OFFCURVE",
"436 59 OFFCURVE",
"443 136 CURVE SMOOTH",
"448 198 OFFCURVE",
"413 236 OFFCURVE",
"348 261 CURVE",
"248 304 LINE",
"213 316 OFFCURVE",
"198 332 OFFCURVE",
"201 356 CURVE",
"203 383 OFFCURVE",
"233 407 OFFCURVE",
"277 407 CURVE SMOOTH",
"326 407 OFFCURVE",
"349 387 OFFCURVE",
"349 355 CURVE",
"449 355 LINE",
"455 438 OFFCURVE",
"398 499 OFFCURVE",
"286 499 CURVE SMOOTH",
"174 499 OFFCURVE",
"96 444 OFFCURVE",
"89 362 CURVE SMOOTH",
"83 300 OFFCURVE",
"116 255 OFFCURVE",
"182 228 CURVE",
"274 190 LINE",
"311 177 OFFCURVE",
"328 163 OFFCURVE",
"325 136 CURVE",
"321 104 OFFCURVE",
"287 79 OFFCURVE",
"241 79 CURVE SMOOTH",
"185 79 OFFCURVE",
"153 100 OFFCURVE",
"157 148 CURVE",
"58 148 LINE",
"49 46 OFFCURVE",
"119 -14 OFFCURVE",
"245 -14 CURVE SMOOTH"
);
}
);
width = 474;
}
);
unicode = 0073;
},
{
glyphname = t;
lastChange = "2019-04-17 22:40:22 +0000";
layers = (
{
background = {
paths = (
{
closed = 1;
nodes = (
"155 105 LINE",
"155 54 OFFCURVE",
"185 42 OFFCURVE",
"211 42 CURVE SMOOTH",
"227 42 OFFCURVE",
"243 46 OFFCURVE",
"260 53 CURVE",
"272 2 LINE",
"249 -6 OFFCURVE",
"225 -9 OFFCURVE",
"202 -9 CURVE SMOOTH",
"140 -9 OFFCURVE",
"91 26 OFFCURVE",
"91 104 CURVE"
);
}
);
};
layerId = UUID0;
paths = (
{
closed = 1;
nodes = (
"254 -11 OFFCURVE",
"284 -2 OFFCURVE",
"317 14 CURVE",
"312 70 LINE",
"283 58 OFFCURVE",
"260 52 OFFCURVE",
"236 52 CURVE SMOOTH",
"196 52 OFFCURVE",
"176 76 OFFCURVE",
"182 125 CURVE",
"209 418 LINE",
"344 418 LINE",
"350 478 LINE",
"215 478 LINE",
"228 611 LINE",
"157 611 LINE",
"144 478 LINE",
"76 478 LINE",
"69 418 LINE",
"139 418 LINE",
"112 124 LINE SMOOTH",
"103 32 OFFCURVE",
"151 -11 OFFCURVE",
"222 -11 CURVE SMOOTH"
);
}
);
width = 338;
},
{
background = {
paths = (
{
closed = 1;
nodes = (
"155 105 LINE",
"155 54 OFFCURVE",
"185 42 OFFCURVE",
"211 42 CURVE SMOOTH",
"227 42 OFFCURVE",
"243 46 OFFCURVE",
"260 53 CURVE",
"272 2 LINE",
"249 -6 OFFCURVE",
"225 -9 OFFCURVE",
"202 -9 CURVE SMOOTH",
"140 -9 OFFCURVE",
"91 26 OFFCURVE",
"91 104 CURVE"
);
}
);
};
layerId = UUID1;
paths = (
{
closed = 1;
nodes = (
"265 -14 OFFCURVE",
"296 -3 OFFCURVE",
"331 12 CURVE",
"323 95 LINE",
"295 84 OFFCURVE",
"275 79 OFFCURVE",
"255 79 CURVE SMOOTH",
"221 79 OFFCURVE",
"205 99 OFFCURVE",
"209 139 CURVE",
"234 407 LINE",
"353 407 LINE",
"361 486 LINE",
"242 486 LINE",
"254 614 LINE",
"148 614 LINE",
"136 486 LINE",
"75 486 LINE",
"67 407 LINE",
"128 407 LINE",
"103 135 LINE SMOOTH",
"93 33 OFFCURVE",
"152 -14 OFFCURVE",
"229 -14 CURVE SMOOTH"
);
}
);
width = 355;
}
);
unicode = 0074;
},
{
glyphname = u;
lastChange = "2019-04-17 22:40:30 +0000";
layers = (
{
anchors = (
{
name = above;
position = "{271, 507}";
}
);
background = {
paths = (
{
closed = 1;
nodes = (
"355 414 LINE",
"355 0 LINE",
"414 0 LINE",
"414 414 LINE"
);
},
{
closed = 1;
nodes = (
"75 414 LINE",
"75 149 LINE SMOOTH",
"75 47 OFFCURVE",
"133 -7 OFFCURVE",
"222 -7 CURVE SMOOTH",
"318 -7 OFFCURVE",
"378 80 OFFCURVE",
"378 211 CURVE",
"355 211 LINE",
"355 117 OFFCURVE",
"306 47 OFFCURVE",
"227 47 CURVE SMOOTH",
"168 47 OFFCURVE",
"134 81 OFFCURVE",
"134 153 CURVE SMOOTH",
"134 414 LINE"
);
}
);
};
layerId = UUID0;
paths = (
{
closed = 1;
nodes = (
"303 -9 OFFCURVE",
"357 28 OFFCURVE",
"392 95 CURVE",
"383 0 LINE",
"454 0 LINE",
"499 479 LINE",
"428 479 LINE",
"406 246 LINE SMOOTH",
"396 138 OFFCURVE",
"336 60 OFFCURVE",
"256 60 CURVE SMOOTH",
"190 60 OFFCURVE",
"158 101 OFFCURVE",
"166 181 CURVE SMOOTH",
"194 479 LINE",
"123 479 LINE",
"94 175 LINE",
"83 50 OFFCURVE",
"142 -9 OFFCURVE",
"239 -9 CURVE SMOOTH"
);
}
);
width = 545;
},
{
anchors = (
{
name = above;
position = "{271, 507}";
}
);
background = {
paths = (
{
closed = 1;
nodes = (
"355 414 LINE",
"355 0 LINE",
"414 0 LINE",
"414 414 LINE"
);
},
{
closed = 1;
nodes = (
"75 414 LINE",
"75 149 LINE SMOOTH",
"75 47 OFFCURVE",
"133 -7 OFFCURVE",
"222 -7 CURVE SMOOTH",
"318 -7 OFFCURVE",
"378 80 OFFCURVE",
"378 211 CURVE",
"355 211 LINE",
"355 117 OFFCURVE",
"306 47 OFFCURVE",
"227 47 CURVE SMOOTH",
"168 47 OFFCURVE",
"134 81 OFFCURVE",
"134 153 CURVE SMOOTH",
"134 414 LINE"
);
}
);
};
layerId = UUID1;
paths = (
{
closed = 1;
nodes = (
"298 -9 OFFCURVE",
"348 22 OFFCURVE",
"382 87 CURVE",
"374 0 LINE",
"481 0 LINE",
"526 487 LINE",
"420 487 LINE",
"398 255 LINE SMOOTH",
"388 149 OFFCURVE",
"331 94 OFFCURVE",
"268 94 CURVE SMOOTH",
"219 94 OFFCURVE",
"193 126 OFFCURVE",
"198 189 CURVE SMOOTH",
"227 487 LINE",
"121 487 LINE",
"91 177 LINE",
"78 43 OFFCURVE",
"147 -9 OFFCURVE",
"240 -9 CURVE SMOOTH"
);
}
);
width = 564;
}
);
unicode = 0075;
},
{
glyphname = v;
lastChange = "2019-04-15 20:26:35 +0000";
layers = (
{
background = {
paths = (
{
closed = 1;
nodes = (
"191 0 LINE",
"252 394 LINE",
"282 394 LINE",
"205 56 LINE"
);
}
);
};
layerId = UUID0;
paths = (
{
closed = 1;
nodes = (
"187 0 LINE",
"265 0 LINE",
"481 478 LINE",
"401 478 LINE",
"234 83 LINE",
"141 478 LINE",
"61 478 LINE"
);
}
);
width = 453;
},
{
background = {
paths = (
{
closed = 1;
nodes = (
"191 0 LINE",
"252 394 LINE",
"282 394 LINE",
"205 56 LINE"
);
}
);
};
layerId = UUID1;
paths = (
{
closed = 1;
nodes = (
"174 0 LINE",
"293 0 LINE",
"502 486 LINE",
"380 486 LINE",
"244 118 LINE",
"179 486 LINE",
"57 486 LINE"
);
}
);
width = 467;
}
);
unicode = 0076;
},
{
glyphname = w;
lastChange = "2019-04-15 20:26:35 +0000";
layers = (
{
background = {
paths = (
{
closed = 1;
nodes = (
"401 150 LINE",
"326 374 LINE",
"272 374 LINE",
"196 151 LINE",
"163 149 LINE",
"83 394 LINE",
"15 394 LINE",
"145 0 LINE",
"210 0 LINE",
"304 277 LINE",
"293 277 LINE",
"388 0 LINE",
"453 0 LINE",
"582 394 LINE",
"515 394 LINE",
"435 148 LINE"
);
}
);
};
layerId = UUID0;
paths = (
{
closed = 1;
nodes = (
"159 0 LINE",
"228 0 LINE",
"356 335 LINE",
"424 0 LINE",
"493 0 LINE",
"679 478 LINE",
"608 478 LINE",
"467 93 LINE",
"399 455 LINE",
"339 455 LINE",
"204 98 LINE",
"135 478 LINE",
"61 478 LINE"
);
}
);
width = 652;
},
{
background = {
paths = (
{
closed = 1;
nodes = (
"401 150 LINE",
"326 374 LINE",
"272 374 LINE",
"196 151 LINE",
"163 149 LINE",
"83 394 LINE",
"15 394 LINE",
"145 0 LINE",
"210 0 LINE",
"304 277 LINE",
"293 277 LINE",
"388 0 LINE",
"453 0 LINE",
"582 394 LINE",
"515 394 LINE",
"435 148 LINE"
);
}
);
};
layerId = UUID1;
paths = (
{
closed = 1;
nodes = (
"156 0 LINE",
"261 0 LINE",
"367 291 LINE",
"421 0 LINE",
"526 0 LINE",
"715 486 LINE",
"609 486 LINE",
"487 136 LINE",
"434 459 LINE",
"337 459 LINE",
"223 139 LINE",
"168 486 LINE",
"57 486 LINE"
);
}
);
width = 682;
}
);
unicode = 0077;
},
{
glyphname = x;
lastChange = "2019-04-17 22:40:37 +0000";
layers = (
{
background = {
paths = (
{
closed = 1;
nodes = (
"392 0 LINE",
"320 0 LINE",
"205 161 LINE",
"95 0 LINE",
"23 0 LINE",
"171 207 LINE",
"23 414 LINE",
"95 414 LINE",
"210 253 LINE",
"321 414 LINE",
"393 414 LINE",
"243 207 LINE"
);
}
);
};
layerId = UUID0;
paths = (
{
closed = 1;
nodes = (
"110 0 LINE",
"244 181 LINE",
"350 0 LINE",
"436 0 LINE",
"295 239 LINE",
"482 479 LINE",
"396 479 LINE",
"261 299 LINE",
"155 479 LINE",
"68 479 LINE",
"209 239 LINE",
"23 0 LINE"
);
}
);
width = 461;
},
{
background = {
paths = (
{
closed = 1;
nodes = (
"392 0 LINE",
"320 0 LINE",
"205 161 LINE",
"95 0 LINE",
"23 0 LINE",
"171 207 LINE",
"23 414 LINE",
"95 414 LINE",
"210 253 LINE",
"321 414 LINE",
"393 414 LINE",
"243 207 LINE"
);
}
);
};
layerId = UUID1;
paths = (
{
closed = 1;
nodes = (
"145 0 LINE",
"260 156 LINE",
"354 0 LINE",
"483 0 LINE",
"337 242 LINE",
"529 487 LINE",
"400 487 LINE",
"283 331 LINE",
"191 487 LINE",
"60 487 LINE",
"207 242 LINE",
"14 0 LINE"
);
}
);
width = 499;
}
);
unicode = 0078;
},
{
glyphname = y;
lastChange = "2019-04-17 22:40:46 +0000";
layers = (
{
layerId = UUID0;
paths = (
{
closed = 1;
nodes = (
"157 -246 OFFCURVE",
"206 -192 OFFCURVE",
"243 -95 CURVE SMOOTH",
"458 478 LINE",
"386 478 LINE",
"248 98 LINE",
"154 478 LINE",
"75 478 LINE",
"206 0 LINE",
"188 -49 LINE SMOOTH",
"166 -113 OFFCURVE",
"134 -177 OFFCURVE",
"80 -177 CURVE SMOOTH",
"48 -177 OFFCURVE",
"20 -166 OFFCURVE",
"-8 -139 CURVE",
"-15 -211 LINE",
"18 -234 OFFCURVE",
"50 -246 OFFCURVE",
"87 -246 CURVE SMOOTH"
);
}
);
width = 436;
},
{
layerId = UUID1;
paths = (
{
closed = 1;
nodes = (
"168 -251 OFFCURVE",
"221 -203 OFFCURVE",
"266 -88 CURVE SMOOTH",
"489 486 LINE",
"381 486 LINE",
"256 136 LINE",
"184 486 LINE",
"63 486 LINE",
"193 0 LINE",
"175 -47 LINE SMOOTH",
"152 -107 OFFCURVE",
"122 -148 OFFCURVE",
"80 -148 CURVE SMOOTH",
"49 -148 OFFCURVE",
"19 -138 OFFCURVE",
"-11 -115 CURVE",
"-21 -219 LINE",
"17 -241 OFFCURVE",
"55 -251 OFFCURVE",
"96 -251 CURVE SMOOTH"
);
}
);
width = 454;
}
);
unicode = 0079;
},
{
glyphname = z;
lastChange = "2019-04-17 22:40:52 +0000";
layers = (
{
layerId = UUID0;
paths = (
{
closed = 1;
nodes = (
"381 0 LINE",
"386 64 LINE",
"137 64 LINE",
"419 414 LINE",
"426 478 LINE",
"93 478 LINE",
"86 414 LINE",
"339 414 LINE",
"53 64 LINE",
"48 0 LINE"
);
}
);
width = 427;
},
{
layerId = UUID1;
paths = (
{
closed = 1;
nodes = (
"395 0 LINE",
"404 96 LINE",
"184 96 LINE",
"431 390 LINE",
"441 486 LINE",
"97 486 LINE",
"87 390 LINE",
"314 390 LINE",
"60 96 LINE",
"51 0 LINE"
);
}
);
width = 445;
}
);
unicode = 007A;
},
{
glyphname = A;
lastChange = "2019-04-17 22:40:56 +0000";
layers = (
{
anchors = (
{
name = above;
position = "{261, 635}";
}
);
layerId = UUID0;
paths = (
{
closed = 1;
nodes = (
"98 0 LINE",
"162 160 LINE",
"387 160 LINE",
"420 0 LINE",
"494 0 LINE",
"364 629 LINE",
"277 629 LINE",
"23 0 LINE"
);
},
{
closed = 1;
nodes = (
"310 533 LINE",
"374 222 LINE",
"186 222 LINE"
);
}
);
width = 517;
},
{
anchors = (
{
name = above;
position = "{261, 635}";
}
);
layerId = UUID1;
paths = (
{
closed = 1;
nodes = (
"132 0 LINE",
"187 140 LINE",
"403 140 LINE",
"431 0 LINE",
"544 0 LINE",
"413 649 LINE",
"280 649 LINE",
"20 0 LINE"
);
},
{
closed = 1;
nodes = (
"331 509 LINE",
"386 229 LINE",
"222 229 LINE"
);
}
);
width = 563;
}
);
unicode = 0041;
},
{
glyphname = B;
lastChange = "2019-04-15 20:26:35 +0000";
layers = (
{
background = {
paths = (
{
closed = 1;
nodes = (
"89 0 LINE",
"263 0 LINE SMOOTH",
"378 0 OFFCURVE",
"427 59 OFFCURVE",
"427 130 CURVE SMOOTH",
"427 183 OFFCURVE",
"389 234 OFFCURVE",
"324 244 CURVE",
"388 259 OFFCURVE",
"415 301 OFFCURVE",
"415 363 CURVE SMOOTH",
"415 428 OFFCURVE",
"371 492 OFFCURVE",
"259 492 CURVE SMOOTH",
"89 492 LINE"
);
},
{
closed = 1;
nodes = (
"148 54 LINE",
"148 219 LINE",
"268 219 LINE",
"322 219 OFFCURVE",
"364 198 OFFCURVE",
"364 138 CURVE SMOOTH",
"364 73 OFFCURVE",
"313 54 OFFCURVE",
"262 54 CURVE SMOOTH"
);
},
{
closed = 1;
nodes = (
"148 438 LINE",
"260 438 LINE SMOOTH",
"321 438 OFFCURVE",
"358 413 OFFCURVE",
"358 358 CURVE SMOOTH",
"358 303 OFFCURVE",
"319 273 OFFCURVE",
"268 273 CURVE SMOOTH",
"148 273 LINE"
);
}
);
};
layerId = UUID0;
paths = (
{
closed = 1;
nodes = (
"303 0 LINE SMOOTH",
"451 0 OFFCURVE",
"506 86 OFFCURVE",
"514 172 CURVE SMOOTH",
"520 241 OFFCURVE",
"478 304 OFFCURVE",
"410 316 CURVE",
"483 335 OFFCURVE",
"525 393 OFFCURVE",
"531 464 CURVE",
"540 553 OFFCURVE",
"487 629 OFFCURVE",
"362 629 CURVE SMOOTH",
"150 629 LINE",
"91 0 LINE"
);
},
{
closed = 1;
nodes = (
"188 280 LINE",
"328 280 LINE SMOOTH",
"406 280 OFFCURVE",
"445 238 OFFCURVE",
"438 175 CURVE SMOOTH",
"432 112 OFFCURVE",
"394 69 OFFCURVE",
"308 69 CURVE SMOOTH",
"168 69 LINE"
);
},
{
closed = 1;
nodes = (
"353 561 LINE SMOOTH",
"424 561 OFFCURVE",
"463 521 OFFCURVE",
"457 456 CURVE SMOOTH",
"451 388 OFFCURVE",
"402 348 OFFCURVE",
"333 348 CURVE SMOOTH",
"194 348 LINE",
"214 561 LINE"
);
}
);
width = 560;
},
{
background = {
paths = (
{
closed = 1;
nodes = (
"89 0 LINE",
"263 0 LINE SMOOTH",
"378 0 OFFCURVE",
"427 59 OFFCURVE",
"427 130 CURVE SMOOTH",
"427 183 OFFCURVE",
"389 234 OFFCURVE",
"324 244 CURVE",
"388 259 OFFCURVE",
"415 301 OFFCURVE",
"415 363 CURVE SMOOTH",
"415 428 OFFCURVE",
"371 492 OFFCURVE",
"259 492 CURVE SMOOTH",
"89 492 LINE"
);
},
{
closed = 1;
nodes = (
"148 54 LINE",
"148 219 LINE",
"268 219 LINE",
"322 219 OFFCURVE",
"364 198 OFFCURVE",
"364 138 CURVE SMOOTH",
"364 73 OFFCURVE",
"313 54 OFFCURVE",
"262 54 CURVE SMOOTH"
);
},
{
closed = 1;
nodes = (
"148 438 LINE",
"260 438 LINE SMOOTH",
"321 438 OFFCURVE",
"358 413 OFFCURVE",
"358 358 CURVE SMOOTH",
"358 303 OFFCURVE",
"319 273 OFFCURVE",
"268 273 CURVE SMOOTH",
"148 273 LINE"
);
}
);
};
layerId = UUID1;
paths = (
{
closed = 1;
nodes = (
"320 0 LINE SMOOTH",
"485 0 OFFCURVE",
"539 98 OFFCURVE",
"546 180 CURVE SMOOTH",
"554 259 OFFCURVE",
"510 313 OFFCURVE",
"446 328 CURVE",
"514 349 OFFCURVE",
"558 404 OFFCURVE",
"565 477 CURVE",
"574 572 OFFCURVE",
"516 649 OFFCURVE",
"381 649 CURVE SMOOTH",
"145 649 LINE",
"84 0 LINE"
);
},
{
closed = 1;
nodes = (
"215 272 LINE",
"343 272 LINE SMOOTH",
"409 272 OFFCURVE",
"437 238 OFFCURVE",
"432 187 CURVE SMOOTH",
"427 136 OFFCURVE",
"394 103 OFFCURVE",
"327 103 CURVE SMOOTH",
"199 103 LINE"
);
},
{
closed = 1;
nodes = (
"367 547 LINE SMOOTH",
"430 547 OFFCURVE",
"459 513 OFFCURVE",
"454 462 CURVE SMOOTH",
"449 408 OFFCURVE",
"413 375 OFFCURVE",
"350 375 CURVE SMOOTH",
"225 375 LINE",
"241 547 LINE"
);
}
);
width = 583;
}
);
unicode = 0042;
},
{
glyphname = C;
lastChange = "2019-04-17 22:41:12 +0000";
layers = (
{
background = {
paths = (
{
closed = 1;
nodes = (
"824 496 LINE",
"775 515 OFFCURVE",
"722 526 OFFCURVE",
"674 526 CURVE SMOOTH",
"530 526 OFFCURVE",
"441 424 OFFCURVE",
"441 248 CURVE SMOOTH",
"441 107 OFFCURVE",
"529 -9 OFFCURVE",
"674 -9 CURVE SMOOTH",
"728 -9 OFFCURVE",
"777 8 OFFCURVE",
"830 41 CURVE",
"800 94 LINE",
"754 66 OFFCURVE",
"716 52 OFFCURVE",
"674 52 CURVE SMOOTH",
"578 52 OFFCURVE",
"510 123 OFFCURVE",
"510 248 CURVE SMOOTH",
"510 394 OFFCURVE",
"584 466 OFFCURVE",
"676 466 CURVE SMOOTH",
"713 466 OFFCURVE",
"757 455 OFFCURVE",
"797 441 CURVE"
);
}
);
};
layerId = UUID0;
paths = (
{
closed = 1;
nodes = (
"418 -11 OFFCURVE",
"516 69 OFFCURVE",
"528 204 CURVE",
"452 204 LINE",
"444 118 OFFCURVE",
"382 60 OFFCURVE",
"292 60 CURVE SMOOTH",
"182 60 OFFCURVE",
"138 168 OFFCURVE",
"152 318 CURVE SMOOTH",
"167 483 OFFCURVE",
"251 569 OFFCURVE",
"340 569 CURVE SMOOTH",
"408 569 OFFCURVE",
"458 519 OFFCURVE",
"474 441 CURVE",
"553 458 LINE",
"535 566 OFFCURVE",
"468 640 OFFCURVE",
"347 640 CURVE SMOOTH",
"211 640 OFFCURVE",
"95 527 OFFCURVE",
"76 318 CURVE",
"57 122 OFFCURVE",
"135 -11 OFFCURVE",
"285 -11 CURVE SMOOTH"
);
}
);
width = 552;
},
{
background = {
paths = (
{
closed = 1;
nodes = (
"824 496 LINE",
"775 515 OFFCURVE",
"722 526 OFFCURVE",
"674 526 CURVE SMOOTH",
"530 526 OFFCURVE",
"441 424 OFFCURVE",
"441 248 CURVE SMOOTH",
"441 107 OFFCURVE",
"529 -9 OFFCURVE",
"674 -9 CURVE SMOOTH",
"728 -9 OFFCURVE",
"777 8 OFFCURVE",
"830 41 CURVE",
"800 94 LINE",
"754 66 OFFCURVE",
"716 52 OFFCURVE",
"674 52 CURVE SMOOTH",
"578 52 OFFCURVE",
"510 123 OFFCURVE",
"510 248 CURVE SMOOTH",
"510 394 OFFCURVE",
"584 466 OFFCURVE",
"676 466 CURVE SMOOTH",
"713 466 OFFCURVE",
"757 455 OFFCURVE",
"797 441 CURVE"
);
}
);
};
layerId = UUID1;
paths = (
{
closed = 1;
nodes = (
"439 -14 OFFCURVE",
"536 69 OFFCURVE",
"550 214 CURVE",
"436 214 LINE",
"429 144 OFFCURVE",
"380 94 OFFCURVE",
"304 94 CURVE SMOOTH",
"215 94 OFFCURVE",
"174 182 OFFCURVE",
"187 326 CURVE SMOOTH",
"202 479 OFFCURVE",
"271 555 OFFCURVE",
"348 555 CURVE SMOOTH",
"408 555 OFFCURVE",
"445 509 OFFCURVE",
"457 441 CURVE",
"572 464 LINE",
"562 581 OFFCURVE",
"494 662 OFFCURVE",
"358 662 CURVE SMOOTH",
"211 662 OFFCURVE",
"94 546 OFFCURVE",
"73 326 CURVE",
"52 113 OFFCURVE",
"140 -14 OFFCURVE",
"294 -14 CURVE SMOOTH"
);
}
);
width = 571;
}
);
unicode = 0043;
},
{
glyphname = D;
lastChange = "2019-04-15 20:26:35 +0000";
layers = (
{
layerId = UUID0;
paths = (
{
closed = 1;
nodes = (
"90 0 LINE",
"256 0 LINE SMOOTH",
"428 0 OFFCURVE",
"550 124 OFFCURVE",
"568 315 CURVE SMOOTH",
"586 505 OFFCURVE",
"488 629 OFFCURVE",
"316 629 CURVE SMOOTH",
"149 629 LINE"
);
},
{
closed = 1;
nodes = (
"309 559 LINE SMOOTH",
"436 559 OFFCURVE",
"505 456 OFFCURVE",
"492 315 CURVE SMOOTH",
"479 173 OFFCURVE",
"390 69 OFFCURVE",
"263 69 CURVE SMOOTH",
"167 69 LINE",
"213 559 LINE"
);
}
);
width = 595;
},
{
layerId = UUID1;
paths = (
{
closed = 1;
nodes = (
"83 0 LINE",
"273 0 LINE SMOOTH",
"451 0 OFFCURVE",
"582 127 OFFCURVE",
"601 324 CURVE SMOOTH",
"619 523 OFFCURVE",
"512 649 OFFCURVE",
"334 649 CURVE SMOOTH",
"144 649 LINE"
);
},
{
closed = 1;
nodes = (
"323 542 LINE SMOOTH",
"436 542 OFFCURVE",
"498 451 OFFCURVE",
"486 324 CURVE SMOOTH",
"473 199 OFFCURVE",
"396 107 OFFCURVE",
"283 107 CURVE SMOOTH",
"200 107 LINE",
"240 542 LINE"
);
}
);
width = 617;
}
);
unicode = 0044;
},
{
glyphname = E;
lastChange = "2019-04-15 20:26:35 +0000";
layers = (
{
anchors = (
{
name = above;
position = "{265, 635}";
}
);
background = {
paths = (
{
closed = 1;
nodes = (
"81 0 LINE",
"377 0 LINE",
"377 54 LINE",
"139 54 LINE",
"139 222 LINE",
"362 222 LINE",
"362 275 LINE",
"139 275 LINE",
"139 438 LINE",
"377 438 LINE",
"377 492 LINE",
"81 492 LINE"
);
}
);
};
layerId = UUID0;
paths = (
{
closed = 1;
nodes = (
"438 0 LINE",
"445 69 LINE",
"167 69 LINE",
"187 283 LINE",
"448 283 LINE",
"454 350 LINE",
"193 350 LINE",
"213 561 LINE",
"490 561 LINE",
"498 629 LINE",
"149 629 LINE",
"90 0 LINE"
);
}
);
width = 506;
},
{
anchors = (
{
name = above;
position = "{265, 635}";
}
);
background = {
paths = (
{
closed = 1;
nodes = (
"81 0 LINE",
"377 0 LINE",
"377 54 LINE",
"139 54 LINE",
"139 222 LINE",
"362 222 LINE",
"362 275 LINE",
"139 275 LINE",
"139 438 LINE",
"377 438 LINE",
"377 492 LINE",
"81 492 LINE"
);
}
);
};
layerId = UUID1;
paths = (
{
closed = 1;
nodes = (
"459 0 LINE",
"468 103 LINE",
"198 103 LINE",
"214 274 LINE",
"467 274 LINE",
"477 376 LINE",
"224 376 LINE",
"240 547 LINE",
"510 547 LINE",
"520 649 LINE",
"144 649 LINE",
"83 0 LINE"
);
}
);
width = 527;
}
);
unicode = 0045;
},
{
glyphname = F;
lastChange = "2019-04-15 20:26:35 +0000";
layers = (
{
background = {
paths = (
{
closed = 1;
nodes = (
"81 0 LINE",
"140 0 LINE",
"140 224 LINE",
"362 224 LINE",
"362 278 LINE",
"140 278 LINE",
"140 438 LINE",
"377 438 LINE",
"377 492 LINE",
"81 492 LINE"
);
}
);
};
layerId = UUID0;
paths = (
{
closed = 1;
nodes = (
"162 0 LINE",
"188 284 LINE",
"442 284 LINE",
"448 352 LINE",
"194 352 LINE",
"214 561 LINE",
"487 561 LINE",
"494 629 LINE",
"150 629 LINE",
"91 0 LINE"
);
}
);
width = 472;
},
{
background = {
paths = (
{
closed = 1;
nodes = (
"81 0 LINE",
"140 0 LINE",
"140 224 LINE",
"362 224 LINE",
"362 278 LINE",
"140 278 LINE",
"140 438 LINE",
"377 438 LINE",
"377 492 LINE",
"81 492 LINE"
);
}
);
};
layerId = UUID1;
paths = (
{
closed = 1;
nodes = (
"190 0 LINE",
"215 275 LINE",
"454 275 LINE",
"464 376 LINE",
"225 376 LINE",
"241 547 LINE",
"503 547 LINE",
"513 649 LINE",
"145 649 LINE",
"84 0 LINE"
);
}
);
width = 492;
}
);
unicode = 0046;
},
{
glyphname = G;
lastChange = "2019-04-17 22:41:28 +0000";
layers = (
{
background = {
paths = (
{
closed = 1;
nodes = (
"48 262 LINE",
"48 434 OFFCURVE",
"144 527 OFFCURVE",
"269 527 CURVE SMOOTH",
"380 527 OFFCURVE",
"447 466 OFFCURVE",
"473 377 CURVE",
"402 363 LINE",
"382 427 OFFCURVE",
"331 468 OFFCURVE",
"269 468 CURVE SMOOTH",
"188 468 OFFCURVE",
"118 398 OFFCURVE",
"118 262 CURVE"
);
}
);
};
layerId = UUID0;
paths = (
{
closed = 1;
nodes = (
"367 -11 OFFCURVE",
"420 33 OFFCURVE",
"451 109 CURVE",
"451 73 OFFCURVE",
"450 36 OFFCURVE",
"450 0 CURVE",
"508 0 LINE",
"536 311 LINE",
"325 311 LINE",
"320 259 LINE",
"462 253 LINE",
"462 252 OFFCURVE",
"462 252 OFFCURVE",
"462 251 CURVE SMOOTH",
"462 251 OFFCURVE",
"462 251 OFFCURVE",
"462 251 CURVE",
"462 249 OFFCURVE",
"461 247 OFFCURVE",
"461 245 CURVE SMOOTH",
"447 120 OFFCURVE",
"381 61 OFFCURVE",
"300 61 CURVE SMOOTH",
"193 61 OFFCURVE",
"137 163 OFFCURVE",
"150 307 CURVE",
"166 470 OFFCURVE",
"261 568 OFFCURVE",
"362 568 CURVE SMOOTH",
"413 568 OFFCURVE",
"456 542 OFFCURVE",
"491 487 CURVE",
"562 513 LINE",
"523 600 OFFCURVE",
"460 639 OFFCURVE",
"372 639 CURVE SMOOTH",
"229 639 OFFCURVE",
"95 524 OFFCURVE",
"75 307 CURVE SMOOTH",
"56 111 OFFCURVE",
"154 -11 OFFCURVE",
"288 -11 CURVE SMOOTH"
);
}
);
width = 580;
},
{
background = {
paths = (
{
closed = 1;
nodes = (
"48 262 LINE",
"48 434 OFFCURVE",
"144 527 OFFCURVE",
"269 527 CURVE SMOOTH",
"380 527 OFFCURVE",
"447 466 OFFCURVE",
"473 377 CURVE",
"402 363 LINE",
"382 427 OFFCURVE",
"331 468 OFFCURVE",
"269 468 CURVE SMOOTH",
"188 468 OFFCURVE",
"118 398 OFFCURVE",
"118 262 CURVE"
);
}
);
};
layerId = UUID1;
paths = (
{
closed = 1;
nodes = (
"369 -14 OFFCURVE",
"421 30 OFFCURVE",
"452 106 CURVE",
"453 71 OFFCURVE",
"453 35 OFFCURVE",
"454 0 CURVE",
"540 0 LINE",
"571 334 LINE",
"338 334 LINE",
"331 258 LINE",
"462 255 LINE",
"462 206 OFFCURVE",
"452 154 OFFCURVE",
"452 106 CURVE SMOOTH",
"469 146 OFFCURVE",
"480 195 OFFCURVE",
"485 251 CURVE",
"476 251 OFFCURVE",
"460 255 OFFCURVE",
"461 243 CURVE SMOOTH",
"448 149 OFFCURVE",
"388 95 OFFCURVE",
"314 95 CURVE SMOOTH",
"225 95 OFFCURVE",
"173 185 OFFCURVE",
"186 321 CURVE",
"199 466 OFFCURVE",
"279 555 OFFCURVE",
"365 555 CURVE SMOOTH",
"416 555 OFFCURVE",
"453 525 OFFCURVE",
"478 470 CURVE",
"589 498 LINE",
"559 611 OFFCURVE",
"490 662 OFFCURVE",
"381 662 CURVE SMOOTH",
"223 662 OFFCURVE",
"93 533 OFFCURVE",
"72 321 CURVE SMOOTH",
"53 120 OFFCURVE",
"152 -14 OFFCURVE",
"295 -14 CURVE SMOOTH"
);
}
);
width = 609;
}
);
unicode = 0047;
},
{
glyphname = H;
lastChange = "2019-04-17 22:41:34 +0000";
layers = (
{
background = {
paths = (
{
closed = 1;
nodes = (
"81 492 LINE",
"81 0 LINE",
"140 0 LINE",
"140 224 LINE",
"375 224 LINE",
"375 0 LINE",
"434 0 LINE",
"434 492 LINE",
"375 492 LINE",
"375 278 LINE",
"140 278 LINE",
"140 492 LINE"
);
}
);
};
layerId = UUID0;
paths = (
{
closed = 1;
nodes = (
"162 0 LINE",
"188 284 LINE",
"466 284 LINE",
"440 0 LINE",
"511 0 LINE",
"571 629 LINE",
"499 629 LINE",
"472 352 LINE",
"194 352 LINE",
"221 629 LINE",
"150 629 LINE",
"91 0 LINE"
);
}
);
width = 602;
},
{
background = {
paths = (
{
closed = 1;
nodes = (
"81 492 LINE",
"81 0 LINE",
"140 0 LINE",
"140 224 LINE",
"375 224 LINE",
"375 0 LINE",
"434 0 LINE",
"434 492 LINE",
"375 492 LINE",
"375 278 LINE",
"140 278 LINE",
"140 492 LINE"
);
}
);
};
layerId = UUID1;
paths = (
{
closed = 1;
nodes = (
"190 0 LINE",
"215 275 LINE",
"470 275 LINE",
"445 0 LINE",
"551 0 LINE",
"612 649 LINE",
"506 649 LINE",
"480 378 LINE",
"225 378 LINE",
"251 649 LINE",
"145 649 LINE",
"84 0 LINE"
);
}
);
width = 635;
}
);
unicode = 0048;
},
{
glyphname = I;
lastChange = "2019-04-15 20:26:35 +0000";
layers = (
{
anchors = (
{
name = above;
position = "{127, 635}";
}
);
background = {
paths = (
{
closed = 1;
nodes = (
"81 0 LINE",
"140 0 LINE",
"140 492 LINE",
"81 492 LINE"
);
}
);
};
layerId = UUID0;
paths = (
{
closed = 1;
nodes = (
"162 0 LINE",
"221 629 LINE",
"150 629 LINE",
"91 0 LINE"
);
}
);
width = 252;
},
{
anchors = (
{
name = above;
position = "{127, 635}";
}
);
background = {
paths = (
{
closed = 1;
nodes = (
"81 0 LINE",
"140 0 LINE",
"140 492 LINE",
"81 492 LINE"
);
}
);
};
layerId = UUID1;
paths = (
{
closed = 1;
nodes = (
"190 0 LINE",
"251 649 LINE",
"145 649 LINE",
"84 0 LINE"
);
}
);
width = 274;
}
);
unicode = 0049;
},
{
glyphname = J;
lastChange = "2019-04-15 20:26:35 +0000";
layers = (
{
background = {
paths = (
{
closed = 1;
nodes = (
"-8 59 LINE",
"23 12 OFFCURVE",
"64 -9 OFFCURVE",
"116 -9 CURVE SMOOTH",
"192 -9 OFFCURVE",
"248 35 OFFCURVE",
"248 155 CURVE SMOOTH",
"248 492 LINE",
"189 492 LINE",
"189 155 LINE SMOOTH",
"189 80 OFFCURVE",
"168 45 OFFCURVE",
"116 45 CURVE SMOOTH",
"82 45 OFFCURVE",
"51 63 OFFCURVE",
"26 94 CURVE"
);
}
);
};
layerId = UUID0;
paths = (
{
closed = 1;
nodes = (
"48 7 OFFCURVE",
"87 -11 OFFCURVE",
"137 -11 CURVE SMOOTH",
"229 -11 OFFCURVE",
"295 45 OFFCURVE",
"309 182 CURVE",
"351 629 LINE",
"280 629 LINE",
"238 182 LINE",
"230 107 OFFCURVE",
"202 65 OFFCURVE",
"139 65 CURVE SMOOTH",
"98 65 OFFCURVE",
"57 81 OFFCURVE",
"17 113 CURVE",
"10 31 LINE"
);
}
);
width = 364;
},
{
background = {
paths = (
{
closed = 1;
nodes = (
"-8 59 LINE",
"23 12 OFFCURVE",
"64 -9 OFFCURVE",
"116 -9 CURVE SMOOTH",
"192 -9 OFFCURVE",
"248 35 OFFCURVE",
"248 155 CURVE SMOOTH",
"248 492 LINE",
"189 492 LINE",
"189 155 LINE SMOOTH",
"189 80 OFFCURVE",
"168 45 OFFCURVE",
"116 45 CURVE SMOOTH",
"82 45 OFFCURVE",
"51 63 OFFCURVE",
"26 94 CURVE"
);
}
);
};
layerId = UUID1;
paths = (
{
closed = 1;
nodes = (
"57 3 OFFCURVE",
"103 -14 OFFCURVE",
"156 -14 CURVE SMOOTH",
"256 -14 OFFCURVE",
"333 45 OFFCURVE",
"348 202 CURVE",
"391 649 LINE",
"283 649 LINE",
"241 202 LINE",
"235 134 OFFCURVE",
"209 101 OFFCURVE",
"157 101 CURVE SMOOTH",
"118 101 OFFCURVE",
"72 114 OFFCURVE",
"28 145 CURVE",
"16 27 LINE"
);
}
);
width = 400;
}
);
unicode = 004A;
},
{
glyphname = K;
lastChange = "2019-04-15 20:26:35 +0000";
layers = (
{
background = {
paths = (
{
closed = 1;
nodes = (
"364 492 LINE",
"129 251 LINE",
"129 174 LINE",
"437 492 LINE"
);
},
{
closed = 1;
nodes = (
"216 281 LINE",
"172 243 LINE",
"373 0 LINE",
"450 0 LINE"
);
},
{
closed = 1;
nodes = (
"82 492 LINE",
"82 0 LINE",
"141 0 LINE",
"141 492 LINE"
);
},
{
closed = 1;
nodes = (
"237 319 OFFCURVE",
"262 294 OFFCURVE",
"294 294 CURVE SMOOTH",
"326 294 OFFCURVE",
"352 319 OFFCURVE",
"352 351 CURVE SMOOTH",
"352 383 OFFCURVE",
"326 409 OFFCURVE",
"294 409 CURVE SMOOTH",
"262 409 OFFCURVE",
"237 383 OFFCURVE",
"237 351 CURVE SMOOTH"
);
},
{
closed = 1;
nodes = (
"294 249 OFFCURVE",
"319 224 OFFCURVE",
"351 224 CURVE SMOOTH",
"383 224 OFFCURVE",
"409 249 OFFCURVE",
"409 281 CURVE SMOOTH",
"409 313 OFFCURVE",
"383 339 OFFCURVE",
"351 339 CURVE SMOOTH",
"319 339 OFFCURVE",
"294 313 OFFCURVE",
"294 281 CURVE SMOOTH"
);
}
);
};
layerId = UUID0;
paths = (
{
closed = 1;
nodes = (
"91 0 LINE",
"163 0 LINE",
"184 228 LINE",
"246 291 LINE",
"437 0 LINE",
"529 0 LINE",
"299 347 LINE",
"573 629 LINE",
"475 629 LINE",
"195 338 LINE",
"222 629 LINE",
"150 629 LINE"
);
}
);
width = 548;
},
{
background = {
paths = (
{
closed = 1;
nodes = (
"364 492 LINE",
"129 251 LINE",
"129 174 LINE",
"437 492 LINE"
);
},
{
closed = 1;
nodes = (
"216 281 LINE",
"172 243 LINE",
"373 0 LINE",
"450 0 LINE"
);
},
{
closed = 1;
nodes = (
"82 492 LINE",
"82 0 LINE",
"141 0 LINE",
"141 492 LINE"
);
},
{
closed = 1;
nodes = (
"237 319 OFFCURVE",
"262 294 OFFCURVE",
"294 294 CURVE SMOOTH",
"326 294 OFFCURVE",
"352 319 OFFCURVE",
"352 351 CURVE SMOOTH",
"352 383 OFFCURVE",
"326 409 OFFCURVE",
"294 409 CURVE SMOOTH",
"262 409 OFFCURVE",
"237 383 OFFCURVE",
"237 351 CURVE SMOOTH"
);
},
{
closed = 1;
nodes = (
"294 249 OFFCURVE",
"319 224 OFFCURVE",
"351 224 CURVE SMOOTH",
"383 224 OFFCURVE",
"409 249 OFFCURVE",
"409 281 CURVE SMOOTH",
"409 313 OFFCURVE",
"383 339 OFFCURVE",
"351 339 CURVE SMOOTH",
"319 339 OFFCURVE",
"294 313 OFFCURVE",
"294 281 CURVE SMOOTH"
);
}
);
};
layerId = UUID1;
paths = (
{
closed = 1;
nodes = (
"84 0 LINE",
"191 0 LINE",
"212 221 LINE",
"264 275 LINE",
"446 0 LINE",
"584 0 LINE",
"344 357 LINE",
"628 649 LINE",
"482 649 LINE",
"227 382 LINE",
"252 649 LINE",
"145 649 LINE"
);
}
);
width = 589;
}
);
unicode = 004B;
},
{
glyphname = L;
lastChange = "2019-04-17 22:41:45 +0000";
layers = (
{
background = {
paths = (
{
closed = 1;
nodes = (
"143 492 LINE",
"85 492 LINE",
"85 0 LINE",
"364 0 LINE",
"364 54 LINE",
"143 54 LINE"
);
}
);
};
layerId = UUID0;
paths = (
{
closed = 1;
nodes = (
"414 0 LINE",
"420 69 LINE",
"168 69 LINE",
"221 629 LINE",
"150 629 LINE",
"91 0 LINE"
);
}
);
width = 421;
},
{
background = {
paths = (
{
closed = 1;
nodes = (
"143 492 LINE",
"85 492 LINE",
"85 0 LINE",
"364 0 LINE",
"364 54 LINE",
"143 54 LINE"
);
}
);
};
layerId = UUID1;
paths = (
{
closed = 1;
nodes = (
"430 0 LINE",
"439 103 LINE",
"199 103 LINE",
"251 649 LINE",
"145 649 LINE",
"84 0 LINE"
);
}
);
width = 445;
}
);
unicode = 004C;
},
{
glyphname = M;
lastChange = "2019-04-17 22:41:50 +0000";
layers = (
{
layerId = UUID0;
paths = (
{
closed = 1;
nodes = (
"162 0 LINE",
"211 525 LINE",
"366 79 LINE",
"414 79 LINE",
"649 516 LINE",
"601 0 LINE",
"672 0 LINE",
"732 629 LINE",
"632 629 LINE",
"402 203 LINE",
"252 629 LINE",
"150 629 LINE",
"91 0 LINE"
);
}
);
width = 763;
},
{
layerId = UUID1;
paths = (
{
closed = 1;
nodes = (
"190 0 LINE",
"237 508 LINE",
"367 71 LINE",
"436 71 LINE",
"641 492 LINE",
"596 0 LINE",
"703 0 LINE",
"764 649 LINE",
"617 649 LINE",
"420 263 LINE",
"297 649 LINE",
"145 649 LINE",
"84 0 LINE"
);
}
);
width = 787;
}
);
unicode = 004D;
},
{
glyphname = N;
lastChange = "2019-04-17 22:41:56 +0000";
layers = (
{
anchors = (
{
name = above;
position = "{307, 635}";
}
);
layerId = UUID0;
paths = (
{
closed = 1;
nodes = (
"161 0 LINE",
"209 513 LINE",
"446 0 LINE",
"526 0 LINE",
"585 629 LINE",
"514 629 LINE",
"465 125 LINE",
"233 629 LINE",
"148 629 LINE",
"89 0 LINE"
);
}
);
width = 616;
},
{
anchors = (
{
name = above;
position = "{307, 635}";
}
);
layerId = UUID1;
paths = (
{
closed = 1;
nodes = (
"188 0 LINE",
"233 476 LINE",
"454 0 LINE",
"562 0 LINE",
"623 649 LINE",
"517 649 LINE",
"473 189 LINE",
"259 649 LINE",
"143 649 LINE",
"82 0 LINE"
);
}
);
width = 645;
}
);
unicode = 004E;
},
{
glyphname = O;
lastChange = "2019-04-17 22:42:13 +0000";
layers = (
{
anchors = (
{
name = above;
position = "{291, 635}";
}
);
background = {
paths = (
{
closed = 1;
nodes = (
"390 192 OFFCURVE",
"485 216 OFFCURVE",
"485 270 CURVE SMOOTH",
"485 322 OFFCURVE",
"390 349 OFFCURVE",
"263 349 CURVE SMOOTH",
"137 349 OFFCURVE",
"42 324 OFFCURVE",
"42 270 CURVE SMOOTH",
"42 217 OFFCURVE",
"137 192 OFFCURVE",
"263 192 CURVE SMOOTH"
);
},
{
closed = 1;
nodes = (
"165 175 OFFCURVE",
"104 206 OFFCURVE",
"104 270 CURVE SMOOTH",
"104 332 OFFCURVE",
"165 367 OFFCURVE",
"263 367 CURVE SMOOTH",
"362 367 OFFCURVE",
"423 332 OFFCURVE",
"423 270 CURVE SMOOTH",
"423 206 OFFCURVE",
"362 175 OFFCURVE",
"263 175 CURVE SMOOTH"
);
}
);
};
layerId = UUID0;
paths = (
{
closed = 1;
nodes = (
"430 -11 OFFCURVE",
"544 94 OFFCURVE",
"566 314 CURVE",
"586 531 OFFCURVE",
"492 640 OFFCURVE",
"351 640 CURVE SMOOTH",
"210 640 OFFCURVE",
"96 533 OFFCURVE",
"76 314 CURVE",
"55 96 OFFCURVE",
"148 -11 OFFCURVE",
"289 -11 CURVE SMOOTH"
);
},
{
closed = 1;
nodes = (
"191 61 OFFCURVE",
"133 148 OFFCURVE",
"149 314 CURVE SMOOTH",
"165 477 OFFCURVE",
"238 569 OFFCURVE",
"344 569 CURVE SMOOTH",
"449 569 OFFCURVE",
"508 477 OFFCURVE",
"492 314 CURVE SMOOTH",
"476 148 OFFCURVE",
"401 61 OFFCURVE",
"296 61 CURVE SMOOTH"
);
}
);
width = 581;
},
{
anchors = (
{
name = above;
position = "{291, 635}";
}
);
background = {
paths = (
{
closed = 1;
nodes = (
"390 192 OFFCURVE",
"485 216 OFFCURVE",
"485 270 CURVE SMOOTH",
"485 322 OFFCURVE",
"390 349 OFFCURVE",
"263 349 CURVE SMOOTH",
"137 349 OFFCURVE",
"42 324 OFFCURVE",
"42 270 CURVE SMOOTH",
"42 217 OFFCURVE",
"137 192 OFFCURVE",
"263 192 CURVE SMOOTH"
);
},
{
closed = 1;
nodes = (
"165 175 OFFCURVE",
"104 206 OFFCURVE",
"104 270 CURVE SMOOTH",
"104 332 OFFCURVE",
"165 367 OFFCURVE",
"263 367 CURVE SMOOTH",
"362 367 OFFCURVE",
"423 332 OFFCURVE",
"423 270 CURVE SMOOTH",
"423 206 OFFCURVE",
"362 175 OFFCURVE",
"263 175 CURVE SMOOTH"
);
}
);
};
layerId = UUID1;
paths = (
{
closed = 1;
nodes = (
"463 -14 OFFCURVE",
"581 98 OFFCURVE",
"603 325 CURVE",
"624 548 OFFCURVE",
"526 662 OFFCURVE",
"369 662 CURVE SMOOTH",
"213 662 OFFCURVE",
"94 553 OFFCURVE",
"73 325 CURVE",
"51 101 OFFCURVE",
"149 -14 OFFCURVE",
"305 -14 CURVE SMOOTH"
);
},
{
closed = 1;
nodes = (
"221 93 OFFCURVE",
"168 175 OFFCURVE",
"183 325 CURVE SMOOTH",
"196 471 OFFCURVE",
"265 556 OFFCURVE",
"359 556 CURVE SMOOTH",
"454 556 OFFCURVE",
"507 471 OFFCURVE",
"493 326 CURVE SMOOTH",
"479 175 OFFCURVE",
"410 93 OFFCURVE",
"315 93 CURVE SMOOTH"
);
}
);
width = 615;
}
);
unicode = 004F;
},
{
glyphname = P;
lastChange = "2019-04-17 22:42:27 +0000";
layers = (
{
background = {
paths = (
{
closed = 1;
nodes = (
"401 423 OFFCURVE",
"351 492 OFFCURVE",
"236 492 CURVE SMOOTH",
"80 492 LINE",
"80 0 LINE",
"139 0 LINE",
"139 190 LINE",
"239 190 LINE",
"351 190 OFFCURVE",
"401 261 OFFCURVE",
"401 341 CURVE SMOOTH"
);
},
{
closed = 1;
nodes = (
"139 244 LINE",
"139 438 LINE",
"239 438 LINE",
"306 438 OFFCURVE",
"342 399 OFFCURVE",
"342 342 CURVE SMOOTH",
"342 284 OFFCURVE",
"306 244 OFFCURVE",
"239 244 CURVE SMOOTH"
);
}
);
};
layerId = UUID0;
paths = (
{
closed = 1;
nodes = (
"160 0 LINE",
"183 243 LINE",
"294 243 LINE SMOOTH",
"418 243 OFFCURVE",
"493 317 OFFCURVE",
"504 434 CURVE SMOOTH",
"516 553 OFFCURVE",
"455 629 OFFCURVE",
"331 629 CURVE SMOOTH",
"148 629 LINE",
"89 0 LINE"
);
},
{
closed = 1;
nodes = (
"212 561 LINE",
"324 561 LINE SMOOTH",
"401 561 OFFCURVE",
"438 511 OFFCURVE",
"431 434 CURVE SMOOTH",
"424 359 OFFCURVE",
"378 311 OFFCURVE",
"301 311 CURVE SMOOTH",
"189 311 LINE"
);
}
);
width = 499;
},
{
background = {
paths = (
{
closed = 1;
nodes = (
"401 423 OFFCURVE",
"351 492 OFFCURVE",
"236 492 CURVE SMOOTH",
"80 492 LINE",
"80 0 LINE",
"139 0 LINE",
"139 190 LINE",
"239 190 LINE",
"351 190 OFFCURVE",
"401 261 OFFCURVE",
"401 341 CURVE SMOOTH"
);
},
{
closed = 1;
nodes = (
"139 244 LINE",
"139 438 LINE",
"239 438 LINE",
"306 438 OFFCURVE",
"342 399 OFFCURVE",
"342 342 CURVE SMOOTH",
"342 284 OFFCURVE",
"306 244 OFFCURVE",
"239 244 CURVE SMOOTH"
);
}
);
};
layerId = UUID1;
paths = (
{
closed = 1;
nodes = (
"188 0 LINE",
"210 236 LINE",
"309 236 LINE SMOOTH",
"440 236 OFFCURVE",
"526 311 OFFCURVE",
"538 442 CURVE SMOOTH",
"551 575 OFFCURVE",
"480 649 OFFCURVE",
"348 649 CURVE SMOOTH",
"142 649 LINE",
"81 0 LINE"
);
},
{
closed = 1;
nodes = (
"239 547 LINE",
"338 547 LINE SMOOTH",
"404 547 OFFCURVE",
"434 503 OFFCURVE",
"428 442 CURVE SMOOTH",
"423 382 OFFCURVE",
"384 339 OFFCURVE",
"319 339 CURVE SMOOTH",
"220 339 LINE"
);
}
);
width = 523;
}
);
unicode = 0050;
},
{
glyphname = Q;
lastChange = "2019-04-17 22:42:47 +0000";
layers = (
{
background = {
paths = (
{
closed = 1;
nodes = (
"178 204 OFFCURVE",
"145 174 OFFCURVE",
"145 130 CURVE SMOOTH",
"145 111 OFFCURVE",
"151 96 OFFCURVE",
"163 81 CURVE",
"187 74 LINE",
"179 84 OFFCURVE",
"174 97 OFFCURVE",
"174 113 CURVE SMOOTH",
"174 141 OFFCURVE",
"195 161 OFFCURVE",
"221 161 CURVE SMOOTH",
"244 161 OFFCURVE",
"264 143 OFFCURVE",
"279 114 CURVE SMOOTH",
"360 -47 LINE SMOOTH",
"387 -100 OFFCURVE",
"432 -123 OFFCURVE",
"480 -114 CURVE SMOOTH",
"501 -111 OFFCURVE",
"519 -103 OFFCURVE",
"537 -92 CURVE",
"537 -10 LINE",
"509 -29 OFFCURVE",
"485 -39 OFFCURVE",
"458 -43 CURVE SMOOTH",
"427 -47 OFFCURVE",
"407 -32 OFFCURVE",
"393 -5 CURVE SMOOTH",
"322 132 LINE SMOOTH",
"299 178 OFFCURVE",
"265 204 OFFCURVE",
"221 204 CURVE SMOOTH"
);
},
{
closed = 1;
nodes = (
"145 524 OFFCURVE",
"41 436 OFFCURVE",
"41 258 CURVE SMOOTH",
"41 76 OFFCURVE",
"145 -7 OFFCURVE",
"273 -7 CURVE SMOOTH",
"403 -7 OFFCURVE",
"506 78 OFFCURVE",
"506 258 CURVE SMOOTH",
"506 438 OFFCURVE",
"403 524 OFFCURVE",
"273 524 CURVE SMOOTH"
);
},
{
closed = 1;
nodes = (
"370 466 OFFCURVE",
"438 394 OFFCURVE",
"438 258 CURVE SMOOTH",
"438 123 OFFCURVE",
"370 52 OFFCURVE",
"273 52 CURVE SMOOTH",
"177 52 OFFCURVE",
"109 123 OFFCURVE",
"109 258 CURVE SMOOTH",
"109 394 OFFCURVE",
"177 466 OFFCURVE",
"273 466 CURVE SMOOTH"
);
}
);
};
layerId = UUID0;
paths = (
{
closed = 1;
nodes = (
"469 -167 OFFCURVE",
"493 -162 OFFCURVE",
"522 -148 CURVE",
"530 -62 LINE",
"497 -78 OFFCURVE",
"472 -87 OFFCURVE",
"440 -87 CURVE",
"419 -86 OFFCURVE",
"400 -76 OFFCURVE",
"382 -46 CURVE",
"358 -2 LINE",
"466 28 OFFCURVE",
"548 131 OFFCURVE",
"566 314 CURVE",
"586 531 OFFCURVE",
"492 640 OFFCURVE",
"351 640 CURVE SMOOTH",
"210 640 OFFCURVE",
"96 533 OFFCURVE",
"76 314 CURVE",
"55 98 OFFCURVE",
"146 -9 OFFCURVE",
"285 -11 CURVE",
"321 -78 LINE SMOOTH",
"352 -136 OFFCURVE",
"391 -167 OFFCURVE",
"445 -167 CURVE SMOOTH"
);
},
{
closed = 1;
nodes = (
"191 61 OFFCURVE",
"133 148 OFFCURVE",
"149 314 CURVE SMOOTH",
"165 477 OFFCURVE",
"238 569 OFFCURVE",
"344 569 CURVE SMOOTH",
"449 569 OFFCURVE",
"508 477 OFFCURVE",
"492 314 CURVE SMOOTH",
"476 148 OFFCURVE",
"401 61 OFFCURVE",
"296 61 CURVE SMOOTH"
);
}
);
width = 587;
},
{
background = {
paths = (
{
closed = 1;
nodes = (
"178 204 OFFCURVE",
"145 174 OFFCURVE",
"145 130 CURVE SMOOTH",
"145 111 OFFCURVE",
"151 96 OFFCURVE",
"163 81 CURVE",
"187 74 LINE",
"179 84 OFFCURVE",
"174 97 OFFCURVE",
"174 113 CURVE SMOOTH",
"174 141 OFFCURVE",
"195 161 OFFCURVE",
"221 161 CURVE SMOOTH",
"244 161 OFFCURVE",
"264 143 OFFCURVE",
"279 114 CURVE SMOOTH",
"360 -47 LINE SMOOTH",
"387 -100 OFFCURVE",
"432 -123 OFFCURVE",
"480 -114 CURVE SMOOTH",
"501 -111 OFFCURVE",
"519 -103 OFFCURVE",
"537 -92 CURVE",
"537 -10 LINE",
"509 -29 OFFCURVE",
"485 -39 OFFCURVE",
"458 -43 CURVE SMOOTH",
"427 -47 OFFCURVE",
"407 -32 OFFCURVE",
"393 -5 CURVE SMOOTH",
"322 132 LINE SMOOTH",
"299 178 OFFCURVE",
"265 204 OFFCURVE",
"221 204 CURVE SMOOTH"
);
},
{
closed = 1;
nodes = (
"145 524 OFFCURVE",
"41 436 OFFCURVE",
"41 258 CURVE SMOOTH",
"41 76 OFFCURVE",
"145 -7 OFFCURVE",
"273 -7 CURVE SMOOTH",
"403 -7 OFFCURVE",
"506 78 OFFCURVE",
"506 258 CURVE SMOOTH",
"506 438 OFFCURVE",
"403 524 OFFCURVE",
"273 524 CURVE SMOOTH"
);
},
{
closed = 1;
nodes = (
"370 466 OFFCURVE",
"438 394 OFFCURVE",
"438 258 CURVE SMOOTH",
"438 123 OFFCURVE",
"370 52 OFFCURVE",
"273 52 CURVE SMOOTH",
"177 52 OFFCURVE",
"109 123 OFFCURVE",
"109 258 CURVE SMOOTH",
"109 394 OFFCURVE",
"177 466 OFFCURVE",
"273 466 CURVE SMOOTH"
);
}
);
};
layerId = UUID1;
paths = (
{
closed = 1;
nodes = (
"495 -180 OFFCURVE",
"520 -175 OFFCURVE",
"549 -162 CURVE",
"561 -40 LINE",
"529 -54 OFFCURVE",
"501 -63 OFFCURVE",
"472 -63 CURVE",
"448 -62 OFFCURVE",
"426 -52 OFFCURVE",
"411 -24 CURVE",
"399 1 LINE",
"508 38 OFFCURVE",
"585 146 OFFCURVE",
"603 325 CURVE",
"624 548 OFFCURVE",
"526 662 OFFCURVE",
"369 662 CURVE SMOOTH",
"213 662 OFFCURVE",
"94 553 OFFCURVE",
"73 325 CURVE",
"51 104 OFFCURVE",
"146 -10 OFFCURVE",
"297 -14 CURVE",
"329 -79 LINE SMOOTH",
"361 -143 OFFCURVE",
"410 -180 OFFCURVE",
"469 -180 CURVE SMOOTH"
);
},
{
closed = 1;
nodes = (
"221 93 OFFCURVE",
"168 175 OFFCURVE",
"183 325 CURVE SMOOTH",
"196 471 OFFCURVE",
"265 556 OFFCURVE",
"359 556 CURVE SMOOTH",
"454 556 OFFCURVE",
"507 471 OFFCURVE",
"493 326 CURVE SMOOTH",
"479 175 OFFCURVE",
"410 93 OFFCURVE",
"315 93 CURVE SMOOTH"
);
}
);
width = 617;
}
);
unicode = 0051;
},
{
glyphname = R;
lastChange = "2019-04-17 22:42:59 +0000";
layers = (
{
background = {
paths = (
{
closed = 1;
nodes = (
"217 235 LINE",
"353 0 LINE",
"436 0 LINE",
"288 235 LINE"
);
},
{
closed = 1;
nodes = (
"426 455 OFFCURVE",
"363 518 OFFCURVE",
"246 518 CURVE SMOOTH",
"83 518 LINE",
"83 0 LINE",
"148 0 LINE",
"148 212 LINE",
"246 212 LINE SMOOTH",
"363 212 OFFCURVE",
"426 274 OFFCURVE",
"426 364 CURVE SMOOTH"
);
},
{
closed = 1;
nodes = (
"148 257 LINE",
"148 462 LINE",
"246 462 LINE SMOOTH",
"319 462 OFFCURVE",
"359 422 OFFCURVE",
"359 359 CURVE SMOOTH",
"359 299 OFFCURVE",
"317 257 OFFCURVE",
"241 257 CURVE SMOOTH"
);
}
);
};
layerId = UUID0;
paths = (
{
closed = 1;
nodes = (
"162 0 LINE",
"186 257 LINE",
"285 257 LINE",
"408 0 LINE",
"499 0 LINE",
"361 261 LINE",
"460 278 OFFCURVE",
"517 347 OFFCURVE",
"526 442 CURVE SMOOTH",
"537 553 OFFCURVE",
"477 629 OFFCURVE",
"347 629 CURVE SMOOTH",
"150 629 LINE",
"91 0 LINE"
);
},
{
closed = 1;
nodes = (
"214 561 LINE",
"340 561 LINE SMOOTH",
"420 561 OFFCURVE",
"460 513 OFFCURVE",
"453 437 CURVE SMOOTH",
"446 363 OFFCURVE",
"396 312 OFFCURVE",
"311 312 CURVE SMOOTH",
"191 312 LINE"
);
}
);
width = 552;
},
{
background = {
paths = (
{
closed = 1;
nodes = (
"217 235 LINE",
"353 0 LINE",
"436 0 LINE",
"288 235 LINE"
);
},
{
closed = 1;
nodes = (
"426 455 OFFCURVE",
"363 518 OFFCURVE",
"246 518 CURVE SMOOTH",
"83 518 LINE",
"83 0 LINE",
"148 0 LINE",
"148 212 LINE",
"246 212 LINE SMOOTH",
"363 212 OFFCURVE",
"426 274 OFFCURVE",
"426 364 CURVE SMOOTH"
);
},
{
closed = 1;
nodes = (
"148 257 LINE",
"148 462 LINE",
"246 462 LINE SMOOTH",
"319 462 OFFCURVE",
"359 422 OFFCURVE",
"359 359 CURVE SMOOTH",
"359 299 OFFCURVE",
"317 257 OFFCURVE",
"241 257 CURVE SMOOTH"
);
}
);
};
layerId = UUID1;
paths = (
{
closed = 1;
nodes = (
"190 0 LINE",
"213 253 LINE",
"294 253 LINE",
"400 0 LINE",
"538 0 LINE",
"406 263 LINE",
"496 289 OFFCURVE",
"550 357 OFFCURVE",
"560 450 CURVE SMOOTH",
"571 570 OFFCURVE",
"500 649 OFFCURVE",
"361 649 CURVE SMOOTH",
"145 649 LINE",
"84 0 LINE"
);
},
{
closed = 1;
nodes = (
"241 547 LINE",
"351 547 LINE SMOOTH",
"422 547 OFFCURVE",
"454 504 OFFCURVE",
"449 439 CURVE SMOOTH",
"443 376 OFFCURVE",
"398 332 OFFCURVE",
"320 332 CURVE SMOOTH",
"220 332 LINE"
);
}
);
width = 580;
}
);
unicode = 0052;
},
{
glyphname = S;
lastChange = "2019-04-17 22:43:24 +0000";
layers = (
{
background = {
paths = (
{
closed = 1;
nodes = (
"236 222 OFFCURVE",
"265 193 OFFCURVE",
"303 193 CURVE SMOOTH",
"341 193 OFFCURVE",
"371 222 OFFCURVE",
"371 260 CURVE SMOOTH",
"371 298 OFFCURVE",
"341 328 OFFCURVE",
"303 328 CURVE SMOOTH",
"265 328 OFFCURVE",
"236 298 OFFCURVE",
"236 260 CURVE SMOOTH"
);
}
);
};
layerId = UUID0;
paths = (
{
closed = 1;
nodes = (
"407 -11 OFFCURVE",
"489 67 OFFCURVE",
"498 167 CURVE SMOOTH",
"506 254 OFFCURVE",
"460 305 OFFCURVE",
"382 336 CURVE SMOOTH",
"269 381 LINE SMOOTH",
"215 401 OFFCURVE",
"193 425 OFFCURVE",
"197 471 CURVE SMOOTH",
"202 527 OFFCURVE",
"249 568 OFFCURVE",
"324 568 CURVE SMOOTH",
"396 568 OFFCURVE",
"434 534 OFFCURVE",
"437 476 CURVE",
"507 476 LINE",
"506 576 OFFCURVE",
"446 640 OFFCURVE",
"331 640 CURVE SMOOTH",
"206 640 OFFCURVE",
"130 571 OFFCURVE",
"120 474 CURVE SMOOTH",
"112 386 OFFCURVE",
"157 345 OFFCURVE",
"247 310 CURVE SMOOTH",
"343 269 LINE SMOOTH",
"399 248 OFFCURVE",
"425 218 OFFCURVE",
"420 165 CURVE SMOOTH",
"415 108 OFFCURVE",
"358 61 OFFCURVE",
"276 61 CURVE SMOOTH",
"201 61 OFFCURVE",
"140 101 OFFCURVE",
"148 189 CURVE",
"79 189 LINE",
"70 58 OFFCURVE",
"157 -11 OFFCURVE",
"270 -11 CURVE SMOOTH"
);
}
);
width = 544;
},
{
background = {
paths = (
{
closed = 1;
nodes = (
"236 222 OFFCURVE",
"265 193 OFFCURVE",
"303 193 CURVE SMOOTH",
"341 193 OFFCURVE",
"371 222 OFFCURVE",
"371 260 CURVE SMOOTH",
"371 298 OFFCURVE",
"341 328 OFFCURVE",
"303 328 CURVE SMOOTH",
"265 328 OFFCURVE",
"236 298 OFFCURVE",
"236 260 CURVE SMOOTH"
);
}
);
};
layerId = UUID1;
paths = (
{
closed = 1;
nodes = (
"431 -14 OFFCURVE",
"521 60 OFFCURVE",
"532 177 CURVE SMOOTH",
"540 262 OFFCURVE",
"497 317 OFFCURVE",
"414 354 CURVE SMOOTH",
"292 409 LINE SMOOTH",
"247 428 OFFCURVE",
"227 447 OFFCURVE",
"230 482 CURVE SMOOTH",
"235 524 OFFCURVE",
"274 555 OFFCURVE",
"335 555 CURVE SMOOTH",
"402 555 OFFCURVE",
"431 521 OFFCURVE",
"435 470 CURVE",
"540 470 LINE",
"541 590 OFFCURVE",
"475 662 OFFCURVE",
"345 662 CURVE SMOOTH",
"211 662 OFFCURVE",
"125 590 OFFCURVE",
"114 485 CURVE SMOOTH",
"106 393 OFFCURVE",
"151 348 OFFCURVE",
"238 309 CURVE SMOOTH",
"349 258 LINE SMOOTH",
"398 237 OFFCURVE",
"418 216 OFFCURVE",
"414 173 CURVE SMOOTH",
"409 124 OFFCURVE",
"359 95 OFFCURVE",
"294 95 CURVE SMOOTH",
"227 95 OFFCURVE",
"175 128 OFFCURVE",
"183 203 CURVE",
"77 203 LINE",
"67 55 OFFCURVE",
"164 -14 OFFCURVE",
"285 -14 CURVE SMOOTH"
);
}
);
width = 574;
}
);
unicode = 0053;
},
{
glyphname = T;
lastChange = "2019-04-17 22:43:28 +0000";
layers = (
{
background = {
paths = (
{
closed = 1;
nodes = (
"24 438 LINE",
"166 438 LINE",
"166 0 LINE",
"225 0 LINE",
"225 438 LINE",
"367 438 LINE",
"367 492 LINE",
"24 492 LINE"
);
}
);
};
layerId = UUID0;
paths = (
{
closed = 1;
nodes = (
"261 0 LINE",
"313 561 LINE",
"498 561 LINE",
"505 629 LINE",
"65 629 LINE",
"58 561 LINE",
"242 561 LINE",
"190 0 LINE"
);
}
);
width = 451;
},
{
background = {
paths = (
{
closed = 1;
nodes = (
"24 438 LINE",
"166 438 LINE",
"166 0 LINE",
"225 0 LINE",
"225 438 LINE",
"367 438 LINE",
"367 492 LINE",
"24 492 LINE"
);
}
);
};
layerId = UUID1;
paths = (
{
closed = 1;
nodes = (
"292 0 LINE",
"344 547 LINE",
"525 547 LINE",
"535 649 LINE",
"67 649 LINE",
"57 547 LINE",
"238 547 LINE",
"186 0 LINE"
);
}
);
width = 479;
}
);
unicode = 0054;
},
{
glyphname = U;
lastChange = "2019-04-17 22:43:35 +0000";
layers = (
{
anchors = (
{
name = above;
position = "{293, 635}";
}
);
layerId = UUID0;
paths = (
{
closed = 1;
nodes = (
"422 -11 OFFCURVE",
"515 70 OFFCURVE",
"529 227 CURVE",
"568 629 LINE",
"497 629 LINE",
"458 227 LINE SMOOTH",
"447 110 OFFCURVE",
"385 61 OFFCURVE",
"299 61 CURVE SMOOTH",
"212 61 OFFCURVE",
"159 110 OFFCURVE",
"170 227 CURVE SMOOTH",
"209 629 LINE",
"138 629 LINE",
"99 227 LINE",
"85 70 OFFCURVE",
"160 -11 OFFCURVE",
"292 -11 CURVE SMOOTH"
);
}
);
width = 589;
},
{
anchors = (
{
name = above;
position = "{293, 635}";
}
);
layerId = UUID1;
paths = (
{
closed = 1;
nodes = (
"458 -14 OFFCURVE",
"555 81 OFFCURVE",
"571 245 CURVE",
"609 649 LINE",
"503 649 LINE",
"464 245 LINE SMOOTH",
"454 138 OFFCURVE",
"396 95 OFFCURVE",
"319 95 CURVE SMOOTH",
"243 95 OFFCURVE",
"193 138 OFFCURVE",
"203 245 CURVE SMOOTH",
"242 649 LINE",
"136 649 LINE",
"97 245 LINE",
"82 81 OFFCURVE",
"161 -14 OFFCURVE",
"310 -14 CURVE SMOOTH"
);
}
);
width = 621;
}
);
unicode = 0055;
},
{
glyphname = V;
lastChange = "2019-04-15 20:26:35 +0000";
layers = (
{
background = {
paths = (
{
closed = 1;
nodes = (
"213 57 LINE",
"225 57 LINE",
"81 492 LINE",
"16 492 LINE",
"189 0 LINE",
"248 0 LINE",
"423 492 LINE",
"358 492 LINE"
);
},
{
closed = 1;
nodes = (
"192 34 OFFCURVE",
"199 27 OFFCURVE",
"207 27 CURVE SMOOTH",
"215 27 OFFCURVE",
"222 34 OFFCURVE",
"222 42 CURVE SMOOTH",
"222 50 OFFCURVE",
"215 57 OFFCURVE",
"207 57 CURVE SMOOTH",
"199 57 OFFCURVE",
"192 50 OFFCURVE",
"192 42 CURVE SMOOTH"
);
},
{
closed = 1;
nodes = (
"211 34 OFFCURVE",
"218 27 OFFCURVE",
"226 27 CURVE SMOOTH",
"234 27 OFFCURVE",
"241 34 OFFCURVE",
"241 42 CURVE SMOOTH",
"241 50 OFFCURVE",
"234 57 OFFCURVE",
"226 57 CURVE SMOOTH",
"218 57 OFFCURVE",
"211 50 OFFCURVE",
"211 42 CURVE SMOOTH"
);
},
{
closed = 1;
nodes = (
"319 344 OFFCURVE",
"326 337 OFFCURVE",
"334 337 CURVE SMOOTH",
"342 337 OFFCURVE",
"349 344 OFFCURVE",
"349 352 CURVE SMOOTH",
"349 360 OFFCURVE",
"342 367 OFFCURVE",
"334 367 CURVE SMOOTH",
"326 367 OFFCURVE",
"319 360 OFFCURVE",
"319 352 CURVE SMOOTH"
);
},
{
closed = 1;
nodes = (
"84 344 OFFCURVE",
"91 337 OFFCURVE",
"99 337 CURVE SMOOTH",
"107 337 OFFCURVE",
"114 344 OFFCURVE",
"114 352 CURVE SMOOTH",
"114 360 OFFCURVE",
"107 367 OFFCURVE",
"99 367 CURVE SMOOTH",
"91 367 OFFCURVE",
"84 360 OFFCURVE",
"84 352 CURVE SMOOTH"
);
},
{
closed = 1;
nodes = (
"16 476 OFFCURVE",
"41 451 OFFCURVE",
"73 451 CURVE SMOOTH",
"105 451 OFFCURVE",
"131 476 OFFCURVE",
"131 508 CURVE SMOOTH",
"131 540 OFFCURVE",
"105 566 OFFCURVE",
"73 566 CURVE SMOOTH",
"41 566 OFFCURVE",
"16 540 OFFCURVE",
"16 508 CURVE SMOOTH"
);
},
{
closed = 1;
nodes = (
"127 476 OFFCURVE",
"152 451 OFFCURVE",
"184 451 CURVE SMOOTH",
"216 451 OFFCURVE",
"242 476 OFFCURVE",
"242 508 CURVE SMOOTH",
"242 540 OFFCURVE",
"216 566 OFFCURVE",
"184 566 CURVE SMOOTH",
"152 566 OFFCURVE",
"127 540 OFFCURVE",
"127 508 CURVE SMOOTH"
);
},
{
closed = 1;
nodes = (
"86 347 OFFCURVE",
"111 322 OFFCURVE",
"143 322 CURVE SMOOTH",
"175 322 OFFCURVE",
"201 347 OFFCURVE",
"201 379 CURVE SMOOTH",
"201 411 OFFCURVE",
"175 437 OFFCURVE",
"143 437 CURVE SMOOTH",
"111 437 OFFCURVE",
"86 411 OFFCURVE",
"86 379 CURVE SMOOTH"
);
},
{
closed = 1;
nodes = (
"57 347 OFFCURVE",
"82 322 OFFCURVE",
"114 322 CURVE SMOOTH",
"146 322 OFFCURVE",
"172 347 OFFCURVE",
"172 379 CURVE SMOOTH",
"172 411 OFFCURVE",
"146 437 OFFCURVE",
"114 437 CURVE SMOOTH",
"82 437 OFFCURVE",
"57 411 OFFCURVE",
"57 379 CURVE SMOOTH"
);
}
);
};
layerId = UUID0;
paths = (
{
closed = 1;
nodes = (
"216 0 LINE",
"290 0 LINE",
"550 629 LINE",
"475 629 LINE",
"262 98 LINE",
"150 629 LINE",
"76 629 LINE"
);
}
);
width = 507;
},
{
background = {
paths = (
{
closed = 1;
nodes = (
"213 57 LINE",
"225 57 LINE",
"81 492 LINE",
"16 492 LINE",
"189 0 LINE",
"248 0 LINE",
"423 492 LINE",
"358 492 LINE"
);
},
{
closed = 1;
nodes = (
"192 34 OFFCURVE",
"199 27 OFFCURVE",
"207 27 CURVE SMOOTH",
"215 27 OFFCURVE",
"222 34 OFFCURVE",
"222 42 CURVE SMOOTH",
"222 50 OFFCURVE",
"215 57 OFFCURVE",
"207 57 CURVE SMOOTH",
"199 57 OFFCURVE",
"192 50 OFFCURVE",
"192 42 CURVE SMOOTH"
);
},
{
closed = 1;
nodes = (
"211 34 OFFCURVE",
"218 27 OFFCURVE",
"226 27 CURVE SMOOTH",
"234 27 OFFCURVE",
"241 34 OFFCURVE",
"241 42 CURVE SMOOTH",
"241 50 OFFCURVE",
"234 57 OFFCURVE",
"226 57 CURVE SMOOTH",
"218 57 OFFCURVE",
"211 50 OFFCURVE",
"211 42 CURVE SMOOTH"
);
},
{
closed = 1;
nodes = (
"319 344 OFFCURVE",
"326 337 OFFCURVE",
"334 337 CURVE SMOOTH",
"342 337 OFFCURVE",
"349 344 OFFCURVE",
"349 352 CURVE SMOOTH",
"349 360 OFFCURVE",
"342 367 OFFCURVE",
"334 367 CURVE SMOOTH",
"326 367 OFFCURVE",
"319 360 OFFCURVE",
"319 352 CURVE SMOOTH"
);
},
{
closed = 1;
nodes = (
"84 344 OFFCURVE",
"91 337 OFFCURVE",
"99 337 CURVE SMOOTH",
"107 337 OFFCURVE",
"114 344 OFFCURVE",
"114 352 CURVE SMOOTH",
"114 360 OFFCURVE",
"107 367 OFFCURVE",
"99 367 CURVE SMOOTH",
"91 367 OFFCURVE",
"84 360 OFFCURVE",
"84 352 CURVE SMOOTH"
);
},
{
closed = 1;
nodes = (
"16 476 OFFCURVE",
"41 451 OFFCURVE",
"73 451 CURVE SMOOTH",
"105 451 OFFCURVE",
"131 476 OFFCURVE",
"131 508 CURVE SMOOTH",
"131 540 OFFCURVE",
"105 566 OFFCURVE",
"73 566 CURVE SMOOTH",
"41 566 OFFCURVE",
"16 540 OFFCURVE",
"16 508 CURVE SMOOTH"
);
},
{
closed = 1;
nodes = (
"127 476 OFFCURVE",
"152 451 OFFCURVE",
"184 451 CURVE SMOOTH",
"216 451 OFFCURVE",
"242 476 OFFCURVE",
"242 508 CURVE SMOOTH",
"242 540 OFFCURVE",
"216 566 OFFCURVE",
"184 566 CURVE SMOOTH",
"152 566 OFFCURVE",
"127 540 OFFCURVE",
"127 508 CURVE SMOOTH"
);
},
{
closed = 1;
nodes = (
"86 347 OFFCURVE",
"111 322 OFFCURVE",
"143 322 CURVE SMOOTH",
"175 322 OFFCURVE",
"201 347 OFFCURVE",
"201 379 CURVE SMOOTH",
"201 411 OFFCURVE",
"175 437 OFFCURVE",
"143 437 CURVE SMOOTH",
"111 437 OFFCURVE",
"86 411 OFFCURVE",
"86 379 CURVE SMOOTH"
);
},
{
closed = 1;
nodes = (
"57 347 OFFCURVE",
"82 322 OFFCURVE",
"114 322 CURVE SMOOTH",
"146 322 OFFCURVE",
"172 347 OFFCURVE",
"172 379 CURVE SMOOTH",
"172 411 OFFCURVE",
"146 437 OFFCURVE",
"114 437 CURVE SMOOTH",
"82 437 OFFCURVE",
"57 411 OFFCURVE",
"57 379 CURVE SMOOTH"
);
}
);
};
layerId = UUID1;
paths = (
{
closed = 1;
nodes = (
"216 0 LINE",
"328 0 LINE",
"589 649 LINE",
"478 649 LINE",
"286 148 LINE",
"192 649 LINE",
"79 649 LINE"
);
}
);
width = 546;
}
);
unicode = 0056;
},
{
glyphname = W;
lastChange = "2019-04-15 20:26:35 +0000";
layers = (
{
background = {
paths = (
{
closed = 1;
nodes = (
"28 492 LINE",
"182 0 LINE",
"241 0 LINE",
"363 339 LINE",
"350 339 LINE",
"466 0 LINE",
"524 0 LINE",
"699 492 LINE",
"634 492 LINE",
"491 66 LINE",
"504 66 LINE",
"381 446 LINE",
"335 446 LINE",
"208 63 LINE",
"220 63 LINE",
"97 492 LINE"
);
}
);
};
layerId = UUID0;
paths = (
{
closed = 1;
nodes = (
"192 0 LINE",
"266 0 LINE",
"432 402 LINE",
"517 0 LINE",
"592 0 LINE",
"851 629 LINE",
"773 629 LINE",
"564 105 LINE",
"470 564 LINE",
"422 564 LINE",
"239 107 LINE",
"151 629 LINE",
"72 629 LINE"
);
}
);
width = 805;
},
{
background = {
paths = (
{
closed = 1;
nodes = (
"28 492 LINE",
"182 0 LINE",
"241 0 LINE",
"363 339 LINE",
"350 339 LINE",
"466 0 LINE",
"524 0 LINE",
"699 492 LINE",
"634 492 LINE",
"491 66 LINE",
"504 66 LINE",
"381 446 LINE",
"335 446 LINE",
"208 63 LINE",
"220 63 LINE",
"97 492 LINE"
);
}
);
};
layerId = UUID1;
paths = (
{
closed = 1;
nodes = (
"209 0 LINE",
"320 0 LINE",
"464 366 LINE",
"539 0 LINE",
"651 0 LINE",
"913 649 LINE",
"793 649 LINE",
"608 154 LINE",
"519 606 LINE",
"447 606 LINE",
"279 156 LINE",
"198 649 LINE",
"79 649 LINE"
);
}
);
width = 869;
}
);
unicode = 0057;
},
{
glyphname = X;
lastChange = "2019-04-17 22:43:44 +0000";
layers = (
{
background = {
paths = (
{
closed = 1;
nodes = (
"469 0 LINE",
"395 0 LINE",
"257 192 LINE",
"125 0 LINE",
"47 0 LINE",
"220 243 LINE",
"47 492 LINE",
"119 492 LINE",
"257 294 LINE",
"390 492 LINE",
"463 492 LINE",
"292 241 LINE"
);
}
);
};
layerId = UUID0;
paths = (
{
closed = 1;
nodes = (
"130 0 LINE",
"305 251 LINE",
"445 0 LINE",
"534 0 LINE",
"358 313 LINE",
"584 629 LINE",
"499 629 LINE",
"325 372 LINE",
"187 629 LINE",
"102 629 LINE",
"272 312 LINE",
"43 0 LINE"
);
}
);
width = 578;
},
{
background = {
paths = (
{
closed = 1;
nodes = (
"469 0 LINE",
"395 0 LINE",
"257 192 LINE",
"125 0 LINE",
"47 0 LINE",
"220 243 LINE",
"47 492 LINE",
"119 492 LINE",
"257 294 LINE",
"390 492 LINE",
"463 492 LINE",
"292 241 LINE"
);
}
);
};
layerId = UUID1;
paths = (
{
closed = 1;
nodes = (
"160 0 LINE",
"319 230 LINE",
"451 0 LINE",
"584 0 LINE",
"398 325 LINE",
"625 649 LINE",
"497 649 LINE",
"346 415 LINE",
"221 649 LINE",
"91 649 LINE",
"266 323 LINE",
"31 0 LINE"
);
}
);
width = 616;
}
);
unicode = 0058;
},
{
glyphname = Y;
lastChange = "2019-04-17 22:43:54 +0000";
layers = (
{
layerId = UUID0;
paths = (
{
closed = 1;
nodes = (
"282 0 LINE",
"306 258 LINE",
"544 629 LINE",
"461 629 LINE",
"278 340 LINE",
"153 629 LINE",
"68 629 LINE",
"234 258 LINE",
"210 0 LINE"
);
}
);
width = 494;
},
{
layerId = UUID1;
paths = (
{
closed = 1;
nodes = (
"321 0 LINE",
"346 268 LINE",
"590 649 LINE",
"465 649 LINE",
"305 390 LINE",
"202 649 LINE",
"76 649 LINE",
"240 268 LINE",
"215 0 LINE"
);
}
);
width = 544;
}
);
unicode = 0059;
},
{
glyphname = Z;
lastChange = "2019-04-17 22:43:58 +0000";
layers = (
{
background = {
paths = (
{
closed = 1;
nodes = (
"58 53 LINE",
"327 436 LINE",
"58 441 LINE",
"58 492 LINE",
"398 492 LINE",
"398 439 LINE",
"129 54 LINE",
"398 49 LINE",
"398 0 LINE",
"58 0 LINE"
);
},
{
closed = 1;
nodes = (
"127 147 OFFCURVE",
"152 122 OFFCURVE",
"184 122 CURVE SMOOTH",
"216 122 OFFCURVE",
"242 147 OFFCURVE",
"242 179 CURVE SMOOTH",
"242 211 OFFCURVE",
"216 237 OFFCURVE",
"184 237 CURVE SMOOTH",
"152 237 OFFCURVE",
"127 211 OFFCURVE",
"127 179 CURVE SMOOTH"
);
},
{
closed = 1;
nodes = (
"189 231 OFFCURVE",
"214 206 OFFCURVE",
"246 206 CURVE SMOOTH",
"278 206 OFFCURVE",
"304 231 OFFCURVE",
"304 263 CURVE SMOOTH",
"304 295 OFFCURVE",
"278 321 OFFCURVE",
"246 321 CURVE SMOOTH",
"214 321 OFFCURVE",
"189 295 OFFCURVE",
"189 263 CURVE SMOOTH"
);
},
{
closed = 1;
nodes = (
"121 96 OFFCURVE",
"128 89 OFFCURVE",
"136 89 CURVE SMOOTH",
"144 89 OFFCURVE",
"151 96 OFFCURVE",
"151 104 CURVE SMOOTH",
"151 112 OFFCURVE",
"144 119 OFFCURVE",
"136 119 CURVE SMOOTH",
"128 119 OFFCURVE",
"121 112 OFFCURVE",
"121 104 CURVE SMOOTH"
);
},
{
closed = 1;
nodes = (
"282 343 OFFCURVE",
"289 336 OFFCURVE",
"297 336 CURVE SMOOTH",
"305 336 OFFCURVE",
"312 343 OFFCURVE",
"312 351 CURVE SMOOTH",
"312 359 OFFCURVE",
"305 366 OFFCURVE",
"297 366 CURVE SMOOTH",
"289 366 OFFCURVE",
"282 359 OFFCURVE",
"282 351 CURVE SMOOTH"
);
}
);
};
layerId = UUID0;
paths = (
{
closed = 1;
nodes = (
"481 0 LINE",
"488 72 LINE",
"161 75 LINE",
"534 558 LINE",
"541 629 LINE",
"125 629 LINE",
"118 557 LINE",
"445 554 LINE",
"72 71 LINE",
"66 0 LINE"
);
}
);
width = 533;
},
{
background = {
paths = (
{
closed = 1;
nodes = (
"58 53 LINE",
"327 436 LINE",
"58 441 LINE",
"58 492 LINE",
"398 492 LINE",
"398 439 LINE",
"129 54 LINE",
"398 49 LINE",
"398 0 LINE",
"58 0 LINE"
);
},
{
closed = 1;
nodes = (
"127 147 OFFCURVE",
"152 122 OFFCURVE",
"184 122 CURVE SMOOTH",
"216 122 OFFCURVE",
"242 147 OFFCURVE",
"242 179 CURVE SMOOTH",
"242 211 OFFCURVE",
"216 237 OFFCURVE",
"184 237 CURVE SMOOTH",
"152 237 OFFCURVE",
"127 211 OFFCURVE",
"127 179 CURVE SMOOTH"
);
},
{
closed = 1;
nodes = (
"189 231 OFFCURVE",
"214 206 OFFCURVE",
"246 206 CURVE SMOOTH",
"278 206 OFFCURVE",
"304 231 OFFCURVE",
"304 263 CURVE SMOOTH",
"304 295 OFFCURVE",
"278 321 OFFCURVE",
"246 321 CURVE SMOOTH",
"214 321 OFFCURVE",
"189 295 OFFCURVE",
"189 263 CURVE SMOOTH"
);
},
{
closed = 1;
nodes = (
"121 96 OFFCURVE",
"128 89 OFFCURVE",
"136 89 CURVE SMOOTH",
"144 89 OFFCURVE",
"151 96 OFFCURVE",
"151 104 CURVE SMOOTH",
"151 112 OFFCURVE",
"144 119 OFFCURVE",
"136 119 CURVE SMOOTH",
"128 119 OFFCURVE",
"121 112 OFFCURVE",
"121 104 CURVE SMOOTH"
);
},
{
closed = 1;
nodes = (
"282 343 OFFCURVE",
"289 336 OFFCURVE",
"297 336 CURVE SMOOTH",
"305 336 OFFCURVE",
"312 343 OFFCURVE",
"312 351 CURVE SMOOTH",
"312 359 OFFCURVE",
"305 366 OFFCURVE",
"297 366 CURVE SMOOTH",
"289 366 OFFCURVE",
"282 359 OFFCURVE",
"282 351 CURVE SMOOTH"
);
}
);
};
layerId = UUID1;
paths = (
{
closed = 1;
nodes = (
"508 0 LINE",
"517 108 LINE",
"210 109 LINE",
"559 548 LINE",
"569 649 LINE",
"127 649 LINE",
"116 541 LINE",
"425 540 LINE",
"75 102 LINE",
"66 0 LINE"
);
}
);
width = 566;
}
);
unicode = 005A;
},
{
glyphname = quotesingle;
lastChange = "2019-04-17 22:44:03 +0000";
layers = (
{
background = {
paths = (
{
closed = 1;
nodes = (
"23 586 LINE",
"32 399 LINE",
"76 399 LINE",
"85 586 LINE"
);
}
);
};
layerId = UUID0;
paths = (
{
closed = 1;
nodes = (
"131 457 LINE",
"162 677 LINE",
"88 677 LINE",
"77 457 LINE"
);
}
);
width = 122;
},
{
background = {
paths = (
{
closed = 1;
nodes = (
"23 586 LINE",
"32 399 LINE",
"76 399 LINE",
"85 586 LINE"
);
}
);
};
layerId = UUID1;
paths = (
{
closed = 1;
nodes = (
"161 439 LINE",
"198 677 LINE",
"92 677 LINE",
"83 439 LINE"
);
}
);
width = 162;
}
);
unicode = 0027;
},
{
glyphname = apostrophe;
lastChange = "2019-04-17 22:44:19 +0000";
layers = (
{
background = {
paths = (
{
closed = 1;
nodes = (
"47 442 OFFCURVE",
"65 427 OFFCURVE",
"89 425 CURVE",
"83 397 OFFCURVE",
"60 378 OFFCURVE",
"30 362 CURVE",
"74 338 LINE",
"121 363 OFFCURVE",
"144 407 OFFCURVE",
"144 444 CURVE SMOOTH",
"144 481 OFFCURVE",
"122 508 OFFCURVE",
"91 508 CURVE SMOOTH",
"65 508 OFFCURVE",
"47 489 OFFCURVE",
"47 466 CURVE SMOOTH"
);
}
);
};
layerId = UUID0;
paths = (
{
closed = 1;
nodes = (
"180 448 OFFCURVE",
"212 501 OFFCURVE",
"216 547 CURVE",
"221 591 OFFCURVE",
"199 625 OFFCURVE",
"162 625 CURVE SMOOTH",
"131 625 OFFCURVE",
"108 602 OFFCURVE",
"105 574 CURVE SMOOTH",
"103 544 OFFCURVE",
"122 526 OFFCURVE",
"149 523 CURVE",
"138 490 OFFCURVE",
"110 466 OFFCURVE",
"74 448 CURVE",
"124 419 LINE"
);
}
);
width = 166;
},
{
background = {
paths = (
{
closed = 1;
nodes = (
"47 442 OFFCURVE",
"65 427 OFFCURVE",
"89 425 CURVE",
"83 397 OFFCURVE",
"60 378 OFFCURVE",
"30 362 CURVE",
"74 338 LINE",
"121 363 OFFCURVE",
"144 407 OFFCURVE",
"144 444 CURVE SMOOTH",
"144 481 OFFCURVE",
"122 508 OFFCURVE",
"91 508 CURVE SMOOTH",
"65 508 OFFCURVE",
"47 489 OFFCURVE",
"47 466 CURVE SMOOTH"
);
}
);
};
layerId = UUID1;
paths = (
{
closed = 1;
nodes = (
"213 419 OFFCURVE",
"258 487 OFFCURVE",
"264 549 CURVE",
"270 608 OFFCURVE",
"242 656 OFFCURVE",
"189 656 CURVE SMOOTH",
"146 656 OFFCURVE",
"112 624 OFFCURVE",
"108 584 CURVE SMOOTH",
"105 546 OFFCURVE",
"130 522 OFFCURVE",
"162 515 CURVE",
"149 478 OFFCURVE",
"113 450 OFFCURVE",
"72 428 CURVE",
"146 384 LINE"
);
}
);
width = 213;
}
);
unicode = 02BC;
},
{
glyphname = quoteleft;
lastChange = "2019-04-17 22:44:32 +0000";
layers = (
{
background = {
paths = (
{
closed = 1;
nodes = (
"109 369 OFFCURVE",
"126 388 OFFCURVE",
"126 411 CURVE SMOOTH",
"126 435 OFFCURVE",
"108 450 OFFCURVE",
"85 452 CURVE",
"91 479 OFFCURVE",
"113 499 OFFCURVE",
"144 515 CURVE",
"101 539 LINE",
"55 514 OFFCURVE",
"30 471 OFFCURVE",
"30 433 CURVE SMOOTH",
"30 396 OFFCURVE",
"51 369 OFFCURVE",
"83 369 CURVE"
);
}
);
};
layerId = UUID0;
paths = (
{
closed = 1;
nodes = (
"164 418 OFFCURVE",
"187 442 OFFCURVE",
"190 471 CURVE SMOOTH",
"193 500 OFFCURVE",
"174 518 OFFCURVE",
"147 521 CURVE",
"158 553 OFFCURVE",
"185 577 OFFCURVE",
"221 597 CURVE",
"174 626 LINE",
"118 597 OFFCURVE",
"84 545 OFFCURVE",
"79 497 CURVE SMOOTH",
"75 453 OFFCURVE",
"97 418 OFFCURVE",
"133 418 CURVE SMOOTH"
);
}
);
width = 193;
},
{
background = {
paths = (
{
closed = 1;
nodes = (
"109 369 OFFCURVE",
"126 388 OFFCURVE",
"126 411 CURVE SMOOTH",
"126 435 OFFCURVE",
"108 450 OFFCURVE",
"85 452 CURVE",
"91 479 OFFCURVE",
"113 499 OFFCURVE",
"144 515 CURVE",
"101 539 LINE",
"55 514 OFFCURVE",
"30 471 OFFCURVE",
"30 433 CURVE SMOOTH",
"30 396 OFFCURVE",
"51 369 OFFCURVE",
"83 369 CURVE"
);
}
);
};
layerId = UUID1;
paths = (
{
closed = 1;
nodes = (
"196 379 OFFCURVE",
"229 411 OFFCURVE",
"233 452 CURVE SMOOTH",
"237 489 OFFCURVE",
"211 513 OFFCURVE",
"179 519 CURVE",
"193 557 OFFCURVE",
"229 585 OFFCURVE",
"271 606 CURVE",
"201 652 LINE",
"133 616 OFFCURVE",
"84 550 OFFCURVE",
"78 487 CURVE SMOOTH",
"72 427 OFFCURVE",
"101 379 OFFCURVE",
"153 379 CURVE SMOOTH"
);
}
);
width = 244;
}
);
unicode = 2018;
},
{
glyphname = quoteright;
lastChange = "2019-04-17 22:44:44 +0000";
layers = (
{
background = {
paths = (
{
closed = 1;
nodes = (
"45 539 OFFCURVE",
"28 520 OFFCURVE",
"28 496 CURVE SMOOTH",
"28 473 OFFCURVE",
"46 458 OFFCURVE",
"69 456 CURVE",
"63 429 OFFCURVE",
"41 408 OFFCURVE",
"10 392 CURVE",
"53 369 LINE",
"99 393 OFFCURVE",
"124 436 OFFCURVE",
"124 475 CURVE SMOOTH",
"124 511 OFFCURVE",
"102 539 OFFCURVE",
"71 539 CURVE"
);
}
);
};
layerId = UUID0;
paths = (
{
closed = 1;
nodes = (
"158 449 OFFCURVE",
"193 500 OFFCURVE",
"197 547 CURVE",
"202 593 OFFCURVE",
"180 626 OFFCURVE",
"143 626 CURVE SMOOTH",
"112 626 OFFCURVE",
"89 603 OFFCURVE",
"86 574 CURVE SMOOTH",
"84 545 OFFCURVE",
"103 527 OFFCURVE",
"130 524 CURVE",
"119 492 OFFCURVE",
"92 468 OFFCURVE",
"56 448 CURVE",
"103 418 LINE"
);
}
);
width = 193;
},
{
background = {
paths = (
{
closed = 1;
nodes = (
"45 539 OFFCURVE",
"28 520 OFFCURVE",
"28 496 CURVE SMOOTH",
"28 473 OFFCURVE",
"46 458 OFFCURVE",
"69 456 CURVE",
"63 429 OFFCURVE",
"41 408 OFFCURVE",
"10 392 CURVE",
"53 369 LINE",
"99 393 OFFCURVE",
"124 436 OFFCURVE",
"124 475 CURVE SMOOTH",
"124 511 OFFCURVE",
"102 539 OFFCURVE",
"71 539 CURVE"
);
}
);
};
layerId = UUID1;
paths = (
{
closed = 1;
nodes = (
"202 415 OFFCURVE",
"252 480 OFFCURVE",
"258 544 CURVE",
"264 604 OFFCURVE",
"235 652 OFFCURVE",
"184 652 CURVE SMOOTH",
"140 652 OFFCURVE",
"107 621 OFFCURVE",
"103 580 CURVE SMOOTH",
"99 542 OFFCURVE",
"123 518 OFFCURVE",
"157 512 CURVE",
"143 475 OFFCURVE",
"108 446 OFFCURVE",
"66 424 CURVE",
"135 379 LINE"
);
}
);
width = 244;
}
);
unicode = 2019;
},
{
glyphname = parenleft;
lastChange = "2019-04-15 20:26:35 +0000";
layers = (
{
background = {
paths = (
{
closed = 1;
nodes = (
"60 253 LINE",
"60 283 OFFCURVE",
"115 324 OFFCURVE",
"222 346 CURVE",
"270 361 LINE",
"176 336 OFFCURVE",
"128 287 OFFCURVE",
"128 253 CURVE"
);
}
);
};
layerId = UUID0;
paths = (
{
closed = 1;
nodes = (
"184 609 OFFCURVE",
"109 461 OFFCURVE",
"94 307 CURVE SMOOTH",
"80 154 OFFCURVE",
"127 5 OFFCURVE",
"233 -113 CURVE",
"288 -73 LINE",
"196 42 OFFCURVE",
"156 172 OFFCURVE",
"168 307 CURVE SMOOTH",
"181 443 OFFCURVE",
"247 572 OFFCURVE",
"360 687 CURVE",
"312 728 LINE"
);
}
);
width = 320;
},
{
background = {
paths = (
{
closed = 1;
nodes = (
"60 253 LINE",
"60 283 OFFCURVE",
"115 324 OFFCURVE",
"222 346 CURVE",
"270 361 LINE",
"176 336 OFFCURVE",
"128 287 OFFCURVE",
"128 253 CURVE"
);
}
);
};
layerId = UUID1;
paths = (
{
closed = 1;
nodes = (
"184 628 OFFCURVE",
"111 481 OFFCURVE",
"95 318 CURVE SMOOTH",
"80 156 OFFCURVE",
"125 9 OFFCURVE",
"242 -118 CURVE",
"325 -54 LINE",
"233 65 OFFCURVE",
"193 182 OFFCURVE",
"205 318 CURVE SMOOTH",
"218 455 OFFCURVE",
"282 572 OFFCURVE",
"395 692 CURVE",
"325 754 LINE"
);
}
);
width = 360;
}
);
unicode = 0028;
},
{
glyphname = parenright;
lastChange = "2019-04-17 22:44:49 +0000";
layers = (
{
layerId = UUID0;
paths = (
{
closed = 1;
nodes = (
"193 5 OFFCURVE",
"269 154 OFFCURVE",
"283 307 CURVE SMOOTH",
"298 461 OFFCURVE",
"251 609 OFFCURVE",
"145 728 CURVE",
"90 687 LINE",
"182 572 OFFCURVE",
"222 443 OFFCURVE",
"210 307 CURVE",
"197 172 OFFCURVE",
"131 42 OFFCURVE",
"18 -73 CURVE",
"66 -113 LINE"
);
}
);
width = 320;
},
{
layerId = UUID1;
paths = (
{
closed = 1;
nodes = (
"234 9 OFFCURVE",
"309 156 OFFCURVE",
"324 318 CURVE SMOOTH",
"339 481 OFFCURVE",
"293 628 OFFCURVE",
"177 754 CURVE",
"94 692 LINE",
"186 572 OFFCURVE",
"227 455 OFFCURVE",
"214 318 CURVE",
"202 182 OFFCURVE",
"138 65 OFFCURVE",
"23 -54 CURVE",
"94 -118 LINE"
);
}
);
width = 360;
}
);
unicode = 0029;
},
{
glyphname = plus;
lastChange = "2019-04-15 20:26:35 +0000";
layers = (
{
background = {
paths = (
{
closed = 1;
nodes = (
"186 425 LINE",
"186 239 LINE",
"15 239 LINE",
"15 186 LINE",
"186 186 LINE",
"186 0 LINE",
"245 0 LINE",
"245 186 LINE",
"417 186 LINE",
"417 239 LINE",
"245 239 LINE",
"245 425 LINE"
);
}
);
};
layerId = UUID0;
paths = (
{
closed = 1;
nodes = (
"228 279 LINE",
"42 279 LINE",
"36 212 LINE",
"221 212 LINE",
"202 0 LINE",
"273 0 LINE",
"292 212 LINE",
"478 212 LINE",
"484 279 LINE",
"299 279 LINE",
"319 491 LINE",
"247 491 LINE"
);
}
);
width = 474;
},
{
background = {
paths = (
{
closed = 1;
nodes = (
"186 425 LINE",
"186 239 LINE",
"15 239 LINE",
"15 186 LINE",
"186 186 LINE",
"186 0 LINE",
"245 0 LINE",
"245 186 LINE",
"417 186 LINE",
"417 239 LINE",
"245 239 LINE",
"245 425 LINE"
);
}
);
};
layerId = UUID1;
paths = (
{
closed = 1;
nodes = (
"220 297 LINE",
"44 297 LINE",
"34 194 LINE",
"210 194 LINE",
"192 0 LINE",
"298 0 LINE",
"316 194 LINE",
"491 194 LINE",
"501 297 LINE",
"326 297 LINE",
"344 491 LINE",
"238 491 LINE"
);
}
);
width = 490;
}
);
unicode = 002B;
},
{
glyphname = minus;
lastChange = "2019-04-28 20:15:40 +0000";
layers = (
{
background = {
paths = (
{
closed = 1;
nodes = (
"65 237 LINE",
"65 184 LINE",
"334 184 LINE",
"334 237 LINE"
);
}
);
};
layerId = UUID0;
paths = (
{
closed = 1;
nodes = (
"23 210 LINE",
"461 210 LINE",
"471 277 LINE",
"33 277 LINE"
);
}
);
width = 474;
},
{
background = {
paths = (
{
closed = 1;
nodes = (
"65 237 LINE",
"65 184 LINE",
"334 184 LINE",
"334 237 LINE"
);
}
);
};
layerId = UUID1;
paths = (
{
closed = 1;
nodes = (
"18 191 LINE",
"470 191 LINE",
"485 294 LINE",
"32 294 LINE"
);
}
);
width = 490;
}
);
unicode = 2212;
},
{
glyphname = equal;
lastChange = "2019-04-15 20:26:35 +0000";
layers = (
{
background = {
paths = (
{
closed = 1;
nodes = (
"65 158 LINE",
"65 104 LINE",
"334 104 LINE",
"334 158 LINE"
);
},
{
closed = 1;
nodes = (
"65 321 LINE",
"65 268 LINE",
"334 268 LINE",
"334 321 LINE"
);
}
);
};
layerId = UUID0;
paths = (
{
closed = 1;
nodes = (
"82 117 LINE",
"379 117 LINE",
"385 185 LINE",
"88 185 LINE"
);
},
{
closed = 1;
nodes = (
"100 308 LINE",
"397 308 LINE",
"403 377 LINE",
"106 377 LINE"
);
}
);
width = 439;
},
{
background = {
paths = (
{
closed = 1;
nodes = (
"65 158 LINE",
"65 104 LINE",
"334 104 LINE",
"334 158 LINE"
);
},
{
closed = 1;
nodes = (
"65 321 LINE",
"65 268 LINE",
"334 268 LINE",
"334 321 LINE"
);
}
);
};
layerId = UUID1;
paths = (
{
closed = 1;
nodes = (
"79 95 LINE",
"392 95 LINE",
"402 198 LINE",
"89 198 LINE"
);
},
{
closed = 1;
nodes = (
"100 306 LINE",
"413 306 LINE",
"422 408 LINE",
"109 408 LINE"
);
}
);
width = 455;
}
);
unicode = 003D;
},
{
glyphname = zero;
lastChange = "2019-04-17 22:45:10 +0000";
layers = (
{
layerId = UUID0;
paths = (
{
closed = 1;
nodes = (
"399 -11 OFFCURVE",
"499 97 OFFCURVE",
"519 315 CURVE SMOOTH",
"539 532 OFFCURVE",
"461 640 OFFCURVE",
"328 640 CURVE SMOOTH",
"194 640 OFFCURVE",
"95 532 OFFCURVE",
"76 315 CURVE",
"55 97 OFFCURVE",
"132 -11 OFFCURVE",
"265 -11 CURVE SMOOTH"
);
},
{
closed = 1;
nodes = (
"177 61 OFFCURVE",
"133 152 OFFCURVE",
"149 315 CURVE SMOOTH",
"165 477 OFFCURVE",
"225 568 OFFCURVE",
"320 568 CURVE SMOOTH",
"418 568 OFFCURVE",
"461 477 OFFCURVE",
"445 315 CURVE SMOOTH",
"429 152 OFFCURVE",
"370 61 OFFCURVE",
"273 61 CURVE SMOOTH"
);
}
);
width = 535;
},
{
layerId = UUID1;
paths = (
{
closed = 1;
nodes = (
"426 -14 OFFCURVE",
"536 96 OFFCURVE",
"558 324 CURVE SMOOTH",
"580 553 OFFCURVE",
"490 662 OFFCURVE",
"347 662 CURVE SMOOTH",
"203 662 OFFCURVE",
"94 553 OFFCURVE",
"73 324 CURVE",
"51 96 OFFCURVE",
"139 -14 OFFCURVE",
"283 -14 CURVE SMOOTH"
);
},
{
closed = 1;
nodes = (
"209 95 OFFCURVE",
"168 176 OFFCURVE",
"183 324 CURVE SMOOTH",
"196 473 OFFCURVE",
"253 555 OFFCURVE",
"337 555 CURVE SMOOTH",
"421 555 OFFCURVE",
"462 473 OFFCURVE",
"448 324 CURVE SMOOTH",
"434 176 OFFCURVE",
"377 95 OFFCURVE",
"293 95 CURVE SMOOTH"
);
}
);
width = 570;
}
);
unicode = 0030;
},
{
glyphname = one;
lastChange = "2019-04-15 20:26:35 +0000";
layers = (
{
layerId = UUID0;
paths = (
{
closed = 1;
nodes = (
"174 600 OFFCURVE",
"136 585 OFFCURVE",
"98 580 CURVE",
"91 502 LINE",
"121 504 OFFCURVE",
"156 516 OFFCURVE",
"187 537 CURVE",
"137 0 LINE",
"207 0 LINE",
"266 631 LINE",
"209 631 LINE"
);
}
);
width = 298;
},
{
layerId = UUID1;
paths = (
{
closed = 1;
nodes = (
"175 620 OFFCURVE",
"135 606 OFFCURVE",
"94 600 CURVE",
"84 487 LINE",
"114 487 OFFCURVE",
"146 495 OFFCURVE",
"178 512 CURVE",
"130 0 LINE",
"237 0 LINE",
"298 653 LINE",
"218 653 LINE"
);
}
);
width = 321;
}
);
unicode = 0031;
},
{
glyphname = two;
lastChange = "2019-04-15 20:26:35 +0000";
layers = (
{
layerId = UUID0;
paths = (
{
closed = 1;
nodes = (
"143 157 OFFCURVE",
"174 189 OFFCURVE",
"234 215 CURVE SMOOTH",
"353 266 LINE SMOOTH",
"439 302 OFFCURVE",
"495 359 OFFCURVE",
"505 457 CURVE SMOOTH",
"515 563 OFFCURVE",
"441 640 OFFCURVE",
"331 640 CURVE SMOOTH",
"212 640 OFFCURVE",
"128 579 OFFCURVE",
"112 470 CURVE",
"190 470 LINE",
"203 536 OFFCURVE",
"255 570 OFFCURVE",
"325 570 CURVE SMOOTH",
"396 570 OFFCURVE",
"435 525 OFFCURVE",
"428 461 CURVE",
"423 400 OFFCURVE",
"389 361 OFFCURVE",
"330 336 CURVE SMOOTH",
"214 286 LINE SMOOTH",
"131 251 OFFCURVE",
"76 202 OFFCURVE",
"66 93 CURVE SMOOTH",
"58 0 LINE",
"457 0 LINE",
"463 73 LINE",
"135 73 LINE",
"138 103 LINE"
);
}
);
width = 522;
},
{
layerId = UUID1;
paths = (
{
closed = 1;
nodes = (
"175 166 OFFCURVE",
"197 188 OFFCURVE",
"246 208 CURVE SMOOTH",
"373 260 LINE SMOOTH",
"477 304 OFFCURVE",
"532 365 OFFCURVE",
"541 465 CURVE SMOOTH",
"553 583 OFFCURVE",
"467 662 OFFCURVE",
"349 662 CURVE SMOOTH",
"224 662 OFFCURVE",
"122 597 OFFCURVE",
"107 464 CURVE",
"225 464 LINE",
"238 526 OFFCURVE",
"283 559 OFFCURVE",
"341 559 CURVE SMOOTH",
"402 559 OFFCURVE",
"432 520 OFFCURVE",
"427 470 CURVE",
"423 420 OFFCURVE",
"395 387 OFFCURVE",
"341 364 CURVE SMOOTH",
"216 313 LINE SMOOTH",
"123 275 OFFCURVE",
"75 220 OFFCURVE",
"64 111 CURVE SMOOTH",
"54 0 LINE",
"494 0 LINE",
"504 108 LINE",
"170 108 LINE",
"172 127 LINE"
);
}
);
width = 544;
}
);
unicode = 0032;
},
{
glyphname = three;
lastChange = "2019-04-17 22:45:28 +0000";
layers = (
{
layerId = UUID0;
paths = (
{
closed = 1;
nodes = (
"395 -11 OFFCURVE",
"481 64 OFFCURVE",
"492 173 CURVE",
"499 254 OFFCURVE",
"455 306 OFFCURVE",
"386 329 CURVE",
"453 354 OFFCURVE",
"492 402 OFFCURVE",
"499 468 CURVE",
"508 568 OFFCURVE",
"431 640 OFFCURVE",
"319 640 CURVE SMOOTH",
"218 640 OFFCURVE",
"133 593 OFFCURVE",
"108 476 CURVE",
"182 476 LINE",
"203 546 OFFCURVE",
"255 568 OFFCURVE",
"313 568 CURVE SMOOTH",
"389 568 OFFCURVE",
"427 521 OFFCURVE",
"421 460 CURVE SMOOTH",
"415 394 OFFCURVE",
"357 353 OFFCURVE",
"271 353 CURVE SMOOTH",
"227 353 LINE",
"220 290 LINE",
"285 290 LINE SMOOTH",
"385 290 OFFCURVE",
"422 243 OFFCURVE",
"416 179 CURVE SMOOTH",
"409 112 OFFCURVE",
"356 61 OFFCURVE",
"274 61 CURVE SMOOTH",
"191 61 OFFCURVE",
"132 107 OFFCURVE",
"139 193 CURVE",
"65 193 LINE",
"52 59 OFFCURVE",
"152 -11 OFFCURVE",
"266 -11 CURVE SMOOTH"
);
}
);
width = 532;
},
{
layerId = UUID1;
paths = (
{
closed = 1;
nodes = (
"419 -14 OFFCURVE",
"520 67 OFFCURVE",
"531 182 CURVE",
"538 260 OFFCURVE",
"496 313 OFFCURVE",
"428 340 CURVE",
"494 364 OFFCURVE",
"532 415 OFFCURVE",
"538 481 CURVE",
"548 589 OFFCURVE",
"463 662 OFFCURVE",
"336 662 CURVE SMOOTH",
"216 662 OFFCURVE",
"121 605 OFFCURVE",
"96 472 CURVE",
"208 472 LINE",
"226 533 OFFCURVE",
"275 555 OFFCURVE",
"330 555 CURVE SMOOTH",
"398 555 OFFCURVE",
"427 517 OFFCURVE",
"423 467 CURVE SMOOTH",
"418 411 OFFCURVE",
"373 376 OFFCURVE",
"305 376 CURVE SMOOTH",
"238 376 LINE",
"229 283 LINE",
"307 283 LINE SMOOTH",
"388 283 OFFCURVE",
"422 249 OFFCURVE",
"417 193 CURVE SMOOTH",
"411 136 OFFCURVE",
"363 95 OFFCURVE",
"290 95 CURVE SMOOTH",
"215 95 OFFCURVE",
"169 136 OFFCURVE",
"172 204 CURVE",
"58 204 LINE",
"45 61 OFFCURVE",
"157 -14 OFFCURVE",
"280 -14 CURVE SMOOTH"
);
}
);
width = 560;
}
);
unicode = 0033;
},
{
glyphname = four;
lastChange = "2019-04-17 22:45:34 +0000";
layers = (
{
background = {
paths = (
{
closed = 1;
nodes = (
"53 163 OFFCURVE",
"60 156 OFFCURVE",
"68 156 CURVE SMOOTH",
"76 156 OFFCURVE",
"83 163 OFFCURVE",
"83 171 CURVE SMOOTH",
"83 179 OFFCURVE",
"76 186 OFFCURVE",
"68 186 CURVE SMOOTH",
"60 186 OFFCURVE",
"53 179 OFFCURVE",
"53 171 CURVE SMOOTH"
);
},
{
closed = 1;
nodes = (
"191 341 OFFCURVE",
"198 334 OFFCURVE",
"206 334 CURVE SMOOTH",
"214 334 OFFCURVE",
"221 341 OFFCURVE",
"221 349 CURVE SMOOTH",
"221 357 OFFCURVE",
"214 364 OFFCURVE",
"206 364 CURVE SMOOTH",
"198 364 OFFCURVE",
"191 357 OFFCURVE",
"191 349 CURVE SMOOTH"
);
}
);
};
layerId = UUID0;
paths = (
{
closed = 1;
nodes = (
"385 0 LINE",
"399 152 LINE",
"497 152 LINE",
"504 220 LINE",
"406 220 LINE",
"445 638 LINE",
"380 638 LINE",
"43 213 LINE",
"37 152 LINE",
"329 152 LINE",
"316 0 LINE"
);
},
{
closed = 1;
nodes = (
"365 513 LINE",
"337 213 LINE",
"128 213 LINE"
);
}
);
width = 503;
},
{
background = {
paths = (
{
closed = 1;
nodes = (
"53 163 OFFCURVE",
"60 156 OFFCURVE",
"68 156 CURVE SMOOTH",
"76 156 OFFCURVE",
"83 163 OFFCURVE",
"83 171 CURVE SMOOTH",
"83 179 OFFCURVE",
"76 186 OFFCURVE",
"68 186 CURVE SMOOTH",
"60 186 OFFCURVE",
"53 179 OFFCURVE",
"53 171 CURVE SMOOTH"
);
},
{
closed = 1;
nodes = (
"191 341 OFFCURVE",
"198 334 OFFCURVE",
"206 334 CURVE SMOOTH",
"214 334 OFFCURVE",
"221 341 OFFCURVE",
"221 349 CURVE SMOOTH",
"221 357 OFFCURVE",
"214 364 OFFCURVE",
"206 364 CURVE SMOOTH",
"198 364 OFFCURVE",
"191 357 OFFCURVE",
"191 349 CURVE SMOOTH"
);
}
);
};
layerId = UUID1;
paths = (
{
closed = 1;
nodes = (
"421 0 LINE",
"435 144 LINE",
"536 144 LINE",
"545 245 LINE",
"444 245 LINE",
"482 656 LINE",
"380 656 LINE",
"41 233 LINE",
"33 144 LINE",
"329 144 LINE",
"316 0 LINE"
);
},
{
closed = 1;
nodes = (
"366 481 LINE",
"343 233 LINE",
"167 233 LINE"
);
}
);
width = 535;
}
);
unicode = 0034;
},
{
glyphname = five;
lastChange = "2019-04-17 22:45:41 +0000";
layers = (
{
background = {
paths = (
{
closed = 1;
nodes = (
"107 518 LINE",
"84 266 LINE",
"216 266 LINE SMOOTH",
"302 266 OFFCURVE",
"346 232 OFFCURVE",
"346 166 CURVE SMOOTH",
"346 99 OFFCURVE",
"303 50 OFFCURVE",
"229 50 CURVE SMOOTH",
"166 50 OFFCURVE",
"119 82 OFFCURVE",
"119 144 CURVE",
"53 144 LINE",
"53 43 OFFCURVE",
"136 -9 OFFCURVE",
"229 -9 CURVE SMOOTH",
"344 -9 OFFCURVE",
"413 66 OFFCURVE",
"413 167 CURVE SMOOTH",
"413 260 OFFCURVE",
"347 317 OFFCURVE",
"233 317 CURVE SMOOTH",
"207 317 OFFCURVE",
"173 314 OFFCURVE",
"147 308 CURVE",
"155 301 LINE",
"172 481 LINE",
"159 458 LINE",
"394 458 LINE",
"394 518 LINE"
);
},
{
closed = 1;
nodes = (
"107 518 LINE",
"84 266 LINE",
"216 266 LINE SMOOTH",
"302 266 OFFCURVE",
"346 232 OFFCURVE",
"346 166 CURVE SMOOTH",
"346 99 OFFCURVE",
"303 50 OFFCURVE",
"229 50 CURVE SMOOTH",
"166 50 OFFCURVE",
"119 82 OFFCURVE",
"119 144 CURVE",
"53 144 LINE",
"53 43 OFFCURVE",
"136 -9 OFFCURVE",
"229 -9 CURVE SMOOTH",
"344 -9 OFFCURVE",
"413 66 OFFCURVE",
"413 167 CURVE SMOOTH",
"413 260 OFFCURVE",
"347 317 OFFCURVE",
"233 317 CURVE SMOOTH",
"207 317 OFFCURVE",
"173 314 OFFCURVE",
"147 308 CURVE",
"155 301 LINE",
"172 481 LINE",
"159 458 LINE",
"394 458 LINE",
"394 518 LINE"
);
}
);
};
layerId = UUID0;
paths = (
{
closed = 1;
nodes = (
"378 -11 OFFCURVE",
"465 81 OFFCURVE",
"477 204 CURVE SMOOTH",
"488 323 OFFCURVE",
"418 385 OFFCURVE",
"295 385 CURVE SMOOTH",
"269 385 OFFCURVE",
"234 381 OFFCURVE",
"205 376 CURVE",
"238 557 LINE",
"483 557 LINE",
"490 629 LINE",
"176 629 LINE",
"122 323 LINE",
"274 323 LINE SMOOTH",
"365 323 OFFCURVE",
"410 282 OFFCURVE",
"403 204 CURVE SMOOTH",
"395 122 OFFCURVE",
"340 61 OFFCURVE",
"260 61 CURVE SMOOTH",
"190 61 OFFCURVE",
"139 100 OFFCURVE",
"146 175 CURVE",
"75 175 LINE",
"64 54 OFFCURVE",
"146 -11 OFFCURVE",
"253 -11 CURVE SMOOTH"
);
}
);
width = 508;
},
{
background = {
paths = (
{
closed = 1;
nodes = (
"107 518 LINE",
"84 266 LINE",
"216 266 LINE SMOOTH",
"302 266 OFFCURVE",
"346 232 OFFCURVE",
"346 166 CURVE SMOOTH",
"346 99 OFFCURVE",
"303 50 OFFCURVE",
"229 50 CURVE SMOOTH",
"166 50 OFFCURVE",
"119 82 OFFCURVE",
"119 144 CURVE",
"53 144 LINE",
"53 43 OFFCURVE",
"136 -9 OFFCURVE",
"229 -9 CURVE SMOOTH",
"344 -9 OFFCURVE",
"413 66 OFFCURVE",
"413 167 CURVE SMOOTH",
"413 260 OFFCURVE",
"347 317 OFFCURVE",
"233 317 CURVE SMOOTH",
"207 317 OFFCURVE",
"173 314 OFFCURVE",
"147 308 CURVE",
"155 301 LINE",
"172 481 LINE",
"159 458 LINE",
"394 458 LINE",
"394 518 LINE"
);
},
{
closed = 1;
nodes = (
"107 518 LINE",
"84 266 LINE",
"216 266 LINE SMOOTH",
"302 266 OFFCURVE",
"346 232 OFFCURVE",
"346 166 CURVE SMOOTH",
"346 99 OFFCURVE",
"303 50 OFFCURVE",
"229 50 CURVE SMOOTH",
"166 50 OFFCURVE",
"119 82 OFFCURVE",
"119 144 CURVE",
"53 144 LINE",
"53 43 OFFCURVE",
"136 -9 OFFCURVE",
"229 -9 CURVE SMOOTH",
"344 -9 OFFCURVE",
"413 66 OFFCURVE",
"413 167 CURVE SMOOTH",
"413 260 OFFCURVE",
"347 317 OFFCURVE",
"233 317 CURVE SMOOTH",
"207 317 OFFCURVE",
"173 314 OFFCURVE",
"147 308 CURVE",
"155 301 LINE",
"172 481 LINE",
"159 458 LINE",
"394 458 LINE",
"394 518 LINE"
);
}
);
};
layerId = UUID1;
paths = (
{
closed = 1;
nodes = (
"399 -14 OFFCURVE",
"497 87 OFFCURVE",
"508 216 CURVE SMOOTH",
"520 337 OFFCURVE",
"448 404 OFFCURVE",
"328 404 CURVE SMOOTH",
"302 404 OFFCURVE",
"264 400 OFFCURVE",
"234 395 CURVE",
"261 541 LINE",
"508 541 LINE",
"518 649 LINE",
"168 649 LINE",
"110 315 LINE",
"288 315 LINE SMOOTH",
"368 315 OFFCURVE",
"405 281 OFFCURVE",
"399 216 CURVE SMOOTH",
"392 147 OFFCURVE",
"341 95 OFFCURVE",
"275 95 CURVE SMOOTH",
"214 95 OFFCURVE",
"172 127 OFFCURVE",
"178 194 CURVE",
"69 194 LINE",
"59 61 OFFCURVE",
"139 -14 OFFCURVE",
"265 -14 CURVE SMOOTH"
);
}
);
width = 524;
}
);
unicode = 0035;
},
{
glyphname = six;
lastChange = "2019-04-17 22:46:08 +0000";
layers = (
{
layerId = UUID0;
paths = (
{
closed = 1;
nodes = (
"384 -12 OFFCURVE",
"469 66 OFFCURVE",
"481 182 CURVE SMOOTH",
"491 297 OFFCURVE",
"421 379 OFFCURVE",
"319 379 CURVE SMOOTH",
"240 379 OFFCURVE",
"162 336 OFFCURVE",
"141 204 CURVE",
"133 424 OFFCURVE",
"220 568 OFFCURVE",
"336 568 CURVE SMOOTH",
"396 568 OFFCURVE",
"423 530 OFFCURVE",
"427 470 CURVE",
"503 470 LINE",
"504 571 OFFCURVE",
"443 640 OFFCURVE",
"341 640 CURVE SMOOTH",
"196 640 OFFCURVE",
"94 514 OFFCURVE",
"74 303 CURVE SMOOTH",
"58 124 OFFCURVE",
"133 -12 OFFCURVE",
"269 -12 CURVE SMOOTH"
);
},
{
closed = 1;
nodes = (
"210 61 OFFCURVE",
"163 108 OFFCURVE",
"170 185 CURVE SMOOTH",
"176 255 OFFCURVE",
"233 309 OFFCURVE",
"300 309 CURVE SMOOTH",
"368 309 OFFCURVE",
"414 262 OFFCURVE",
"407 185 CURVE SMOOTH",
"400 108 OFFCURVE",
"345 61 OFFCURVE",
"276 61 CURVE SMOOTH"
);
}
);
width = 516;
},
{
layerId = UUID1;
paths = (
{
closed = 1;
nodes = (
"414 -14 OFFCURVE",
"508 69 OFFCURVE",
"520 192 CURVE SMOOTH",
"531 312 OFFCURVE",
"463 398 OFFCURVE",
"353 398 CURVE SMOOTH",
"276 398 OFFCURVE",
"200 360 OFFCURVE",
"175 238 CURVE",
"175 430 OFFCURVE",
"246 555 OFFCURVE",
"351 555 CURVE SMOOTH",
"401 555 OFFCURVE",
"425 523 OFFCURVE",
"427 471 CURVE",
"540 471 LINE",
"546 586 OFFCURVE",
"473 662 OFFCURVE",
"357 662 CURVE SMOOTH",
"206 662 OFFCURVE",
"92 537 OFFCURVE",
"71 313 CURVE SMOOTH",
"53 124 OFFCURVE",
"142 -14 OFFCURVE",
"289 -14 CURVE SMOOTH"
);
},
{
closed = 1;
nodes = (
"242 95 OFFCURVE",
"201 135 OFFCURVE",
"207 197 CURVE SMOOTH",
"212 259 OFFCURVE",
"262 301 OFFCURVE",
"318 301 CURVE SMOOTH",
"375 301 OFFCURVE",
"416 262 OFFCURVE",
"410 197 CURVE SMOOTH",
"404 135 OFFCURVE",
"356 95 OFFCURVE",
"299 95 CURVE SMOOTH"
);
}
);
width = 546;
}
);
unicode = 0036;
},
{
glyphname = seven;
lastChange = "2019-04-17 22:46:18 +0000";
layers = (
{
layerId = UUID0;
paths = (
{
closed = 1;
nodes = (
"148 0 LINE",
"459 556 LINE",
"466 629 LINE",
"81 629 LINE",
"74 553 LINE",
"376 553 LINE",
"52 0 LINE"
);
}
);
width = 423;
},
{
layerId = UUID1;
paths = (
{
closed = 1;
nodes = (
"183 0 LINE",
"482 536 LINE",
"493 649 LINE",
"83 649 LINE",
"72 535 LINE",
"357 535 LINE",
"40 0 LINE"
);
}
);
width = 448;
}
);
unicode = 0037;
},
{
glyphname = eight;
lastChange = "2019-04-17 22:46:39 +0000";
layers = (
{
background = {
paths = (
{
closed = 1;
nodes = (
"133 527 OFFCURVE",
"63 469 OFFCURVE",
"63 390 CURVE SMOOTH",
"63 318 OFFCURVE",
"126 277 OFFCURVE",
"177 257 CURVE SMOOTH",
"320 202 LINE SMOOTH",
"365 186 OFFCURVE",
"394 163 OFFCURVE",
"394 127 CURVE SMOOTH",
"394 81 OFFCURVE",
"342 50 OFFCURVE",
"253 50 CURVE SMOOTH",
"173 50 OFFCURVE",
"113 84 OFFCURVE",
"113 143 CURVE SMOOTH",
"113 193 OFFCURVE",
"168 238 OFFCURVE",
"250 238 CURVE",
"250 259 LINE",
"232 263 OFFCURVE",
"219 265 OFFCURVE",
"202 265 CURVE SMOOTH",
"112 265 OFFCURVE",
"45 217 OFFCURVE",
"45 138 CURVE SMOOTH",
"45 53 OFFCURVE",
"131 -9 OFFCURVE",
"253 -9 CURVE SMOOTH",
"385 -9 OFFCURVE",
"462 47 OFFCURVE",
"462 130 CURVE SMOOTH",
"462 196 OFFCURVE",
"420 231 OFFCURVE",
"344 260 CURVE SMOOTH",
"201 315 LINE SMOOTH",
"156 332 OFFCURVE",
"130 350 OFFCURVE",
"130 387 CURVE SMOOTH",
"130 432 OFFCURVE",
"183 467 OFFCURVE",
"253 467 CURVE SMOOTH",
"325 467 OFFCURVE",
"374 431 OFFCURVE",
"374 379 CURVE SMOOTH",
"374 326 OFFCURVE",
"322 290 OFFCURVE",
"256 290 CURVE",
"256 269 LINE",
"273 264 OFFCURVE",
"285 263 OFFCURVE",
"300 263 CURVE SMOOTH",
"393 263 OFFCURVE",
"442 319 OFFCURVE",
"442 383 CURVE SMOOTH",
"442 465 OFFCURVE",
"362 527 OFFCURVE",
"253 527 CURVE SMOOTH"
);
}
);
};
layerId = UUID0;
paths = (
{
closed = 1;
nodes = (
"418 -11 OFFCURVE",
"509 57 OFFCURVE",
"519 157 CURVE SMOOTH",
"527 238 OFFCURVE",
"485 280 OFFCURVE",
"406 315 CURVE SMOOTH",
"391 321 LINE",
"472 335 OFFCURVE",
"520 397 OFFCURVE",
"526 465 CURVE SMOOTH",
"536 565 OFFCURVE",
"456 640 OFFCURVE",
"337 640 CURVE SMOOTH",
"205 640 OFFCURVE",
"121 570 OFFCURVE",
"112 473 CURVE SMOOTH",
"104 393 OFFCURVE",
"160 344 OFFCURVE",
"210 318 CURVE",
"131 305 OFFCURVE",
"72 250 OFFCURVE",
"65 168 CURVE SMOOTH",
"55 65 OFFCURVE",
"141 -11 OFFCURVE",
"274 -11 CURVE SMOOTH"
);
},
{
closed = 1;
nodes = (
"195 61 OFFCURVE",
"132 102 OFFCURVE",
"139 175 CURVE SMOOTH",
"144 230 OFFCURVE",
"199 280 OFFCURVE",
"275 289 CURVE",
"373 247 LINE",
"420 227 OFFCURVE",
"449 198 OFFCURVE",
"445 155 CURVE SMOOTH",
"440 99 OFFCURVE",
"379 61 OFFCURVE",
"282 61 CURVE SMOOTH"
);
},
{
closed = 1;
nodes = (
"256 381 LINE SMOOTH",
"209 402 OFFCURVE",
"183 425 OFFCURVE",
"187 470 CURVE SMOOTH",
"193 524 OFFCURVE",
"253 568 OFFCURVE",
"329 568 CURVE SMOOTH",
"409 568 OFFCURVE",
"459 524 OFFCURVE",
"453 461 CURVE SMOOTH",
"446 398 OFFCURVE",
"389 355 OFFCURVE",
"319 353 CURVE"
);
}
);
width = 553;
},
{
background = {
paths = (
{
closed = 1;
nodes = (
"133 527 OFFCURVE",
"63 469 OFFCURVE",
"63 390 CURVE SMOOTH",
"63 318 OFFCURVE",
"126 277 OFFCURVE",
"177 257 CURVE SMOOTH",
"320 202 LINE SMOOTH",
"365 186 OFFCURVE",
"394 163 OFFCURVE",
"394 127 CURVE SMOOTH",
"394 81 OFFCURVE",
"342 50 OFFCURVE",
"253 50 CURVE SMOOTH",
"173 50 OFFCURVE",
"113 84 OFFCURVE",
"113 143 CURVE SMOOTH",
"113 193 OFFCURVE",
"168 238 OFFCURVE",
"250 238 CURVE",
"250 259 LINE",
"232 263 OFFCURVE",
"219 265 OFFCURVE",
"202 265 CURVE SMOOTH",
"112 265 OFFCURVE",
"45 217 OFFCURVE",
"45 138 CURVE SMOOTH",
"45 53 OFFCURVE",
"131 -9 OFFCURVE",
"253 -9 CURVE SMOOTH",
"385 -9 OFFCURVE",
"462 47 OFFCURVE",
"462 130 CURVE SMOOTH",
"462 196 OFFCURVE",
"420 231 OFFCURVE",
"344 260 CURVE SMOOTH",
"201 315 LINE SMOOTH",
"156 332 OFFCURVE",
"130 350 OFFCURVE",
"130 387 CURVE SMOOTH",
"130 432 OFFCURVE",
"183 467 OFFCURVE",
"253 467 CURVE SMOOTH",
"325 467 OFFCURVE",
"374 431 OFFCURVE",
"374 379 CURVE SMOOTH",
"374 326 OFFCURVE",
"322 290 OFFCURVE",
"256 290 CURVE",
"256 269 LINE",
"273 264 OFFCURVE",
"285 263 OFFCURVE",
"300 263 CURVE SMOOTH",
"393 263 OFFCURVE",
"442 319 OFFCURVE",
"442 383 CURVE SMOOTH",
"442 465 OFFCURVE",
"362 527 OFFCURVE",
"253 527 CURVE SMOOTH"
);
}
);
};
layerId = UUID1;
paths = (
{
closed = 1;
nodes = (
"446 -14 OFFCURVE",
"544 64 OFFCURVE",
"554 172 CURVE SMOOTH",
"562 258 OFFCURVE",
"518 300 OFFCURVE",
"436 337 CURVE SMOOTH",
"432 339 LINE",
"508 354 OFFCURVE",
"556 411 OFFCURVE",
"562 476 CURVE SMOOTH",
"572 584 OFFCURVE",
"481 662 OFFCURVE",
"353 662 CURVE SMOOTH",
"209 662 OFFCURVE",
"120 594 OFFCURVE",
"109 485 CURVE SMOOTH",
"102 401 OFFCURVE",
"157 348 OFFCURVE",
"210 319 CURVE",
"130 308 OFFCURVE",
"68 256 OFFCURVE",
"60 175 CURVE SMOOTH",
"50 67 OFFCURVE",
"139 -14 OFFCURVE",
"289 -14 CURVE SMOOTH"
);
},
{
closed = 1;
nodes = (
"223 95 OFFCURVE",
"166 129 OFFCURVE",
"171 187 CURVE SMOOTH",
"175 234 OFFCURVE",
"229 274 OFFCURVE",
"299 278 CURVE",
"389 239 LINE",
"426 222 OFFCURVE",
"446 199 OFFCURVE",
"444 166 CURVE SMOOTH",
"440 124 OFFCURVE",
"392 95 OFFCURVE",
"299 95 CURVE SMOOTH"
);
},
{
closed = 1;
nodes = (
"272 411 LINE SMOOTH",
"234 428 OFFCURVE",
"215 447 OFFCURVE",
"219 480 CURVE SMOOTH",
"222 523 OFFCURVE",
"277 555 OFFCURVE",
"343 555 CURVE SMOOTH",
"412 555 OFFCURVE",
"456 521 OFFCURVE",
"452 468 CURVE SMOOTH",
"446 417 OFFCURVE",
"394 383 OFFCURVE",
"336 382 CURVE"
);
}
);
width = 582;
}
);
unicode = 0038;
},
{
glyphname = nine;
lastChange = "2019-04-17 22:46:56 +0000";
layers = (
{
background = {
paths = (
{
closed = 1;
nodes = (
"304 310 LINE",
"298 336 OFFCURVE",
"285 353 OFFCURVE",
"255 353 CURVE SMOOTH",
"211 353 OFFCURVE",
"188 314 OFFCURVE",
"188 251 CURVE SMOOTH",
"188 238 OFFCURVE",
"188 217 OFFCURVE",
"190 203 CURVE",
"184 249 OFFCURVE",
"208 265 OFFCURVE",
"236 265 CURVE SMOOTH",
"256 265 OFFCURVE",
"280 248 OFFCURVE",
"280 224 CURVE SMOOTH",
"280 201 OFFCURVE",
"268 187 OFFCURVE",
"248 187 CURVE SMOOTH",
"222 187 OFFCURVE",
"211 221 OFFCURVE",
"211 255 CURVE SMOOTH",
"211 298 OFFCURVE",
"222 330 OFFCURVE",
"257 330 CURVE SMOOTH",
"268 330 OFFCURVE",
"272 322 OFFCURVE",
"280 310 CURVE"
);
},
{
closed = 1;
nodes = (
"213 279 OFFCURVE",
"192 251 OFFCURVE",
"192 221 CURVE SMOOTH",
"192 185 OFFCURVE",
"213 165 OFFCURVE",
"248 165 CURVE SMOOTH",
"283 165 OFFCURVE",
"304 185 OFFCURVE",
"304 221 CURVE SMOOTH",
"304 256 OFFCURVE",
"283 279 OFFCURVE",
"248 279 CURVE"
);
}
);
};
layerId = UUID0;
paths = (
{
closed = 1;
nodes = (
"405 -11 OFFCURVE",
"488 118 OFFCURVE",
"508 326 CURVE SMOOTH",
"526 517 OFFCURVE",
"441 640 OFFCURVE",
"311 640 CURVE SMOOTH",
"198 640 OFFCURVE",
"112 563 OFFCURVE",
"101 447 CURVE SMOOTH",
"90 332 OFFCURVE",
"160 250 OFFCURVE",
"262 250 CURVE SMOOTH",
"347 250 OFFCURVE",
"416 303 OFFCURVE",
"438 411 CURVE",
"439 384 OFFCURVE",
"438 363 OFFCURVE",
"436 337 CURVE SMOOTH",
"419 169 OFFCURVE",
"365 61 OFFCURVE",
"259 61 CURVE SMOOTH",
"188 61 OFFCURVE",
"148 110 OFFCURVE",
"154 186 CURVE",
"79 186 LINE",
"68 72 OFFCURVE",
"141 -11 OFFCURVE",
"254 -11 CURVE SMOOTH"
);
},
{
closed = 1;
nodes = (
"213 319 OFFCURVE",
"167 366 OFFCURVE",
"175 443 CURVE SMOOTH",
"182 520 OFFCURVE",
"237 567 OFFCURVE",
"304 567 CURVE SMOOTH",
"372 567 OFFCURVE",
"418 520 OFFCURVE",
"411 443 CURVE SMOOTH",
"405 373 OFFCURVE",
"348 319 OFFCURVE",
"282 319 CURVE SMOOTH"
);
}
);
width = 523;
},
{
background = {
paths = (
{
closed = 1;
nodes = (
"304 310 LINE",
"298 336 OFFCURVE",
"285 353 OFFCURVE",
"255 353 CURVE SMOOTH",
"211 353 OFFCURVE",
"188 314 OFFCURVE",
"188 251 CURVE SMOOTH",
"188 238 OFFCURVE",
"188 217 OFFCURVE",
"190 203 CURVE",
"184 249 OFFCURVE",
"208 265 OFFCURVE",
"236 265 CURVE SMOOTH",
"256 265 OFFCURVE",
"280 248 OFFCURVE",
"280 224 CURVE SMOOTH",
"280 201 OFFCURVE",
"268 187 OFFCURVE",
"248 187 CURVE SMOOTH",
"222 187 OFFCURVE",
"211 221 OFFCURVE",
"211 255 CURVE SMOOTH",
"211 298 OFFCURVE",
"222 330 OFFCURVE",
"257 330 CURVE SMOOTH",
"268 330 OFFCURVE",
"272 322 OFFCURVE",
"280 310 CURVE"
);
},
{
closed = 1;
nodes = (
"213 279 OFFCURVE",
"192 251 OFFCURVE",
"192 221 CURVE SMOOTH",
"192 185 OFFCURVE",
"213 165 OFFCURVE",
"248 165 CURVE SMOOTH",
"283 165 OFFCURVE",
"304 185 OFFCURVE",
"304 221 CURVE SMOOTH",
"304 256 OFFCURVE",
"283 279 OFFCURVE",
"248 279 CURVE"
);
}
);
};
layerId = UUID1;
paths = (
{
closed = 1;
nodes = (
"426 -14 OFFCURVE",
"518 122 OFFCURVE",
"539 335 CURVE SMOOTH",
"557 531 OFFCURVE",
"460 662 OFFCURVE",
"320 662 CURVE SMOOTH",
"196 662 OFFCURVE",
"102 580 OFFCURVE",
"90 456 CURVE SMOOTH",
"79 336 OFFCURVE",
"148 251 OFFCURVE",
"256 251 CURVE SMOOTH",
"336 251 OFFCURVE",
"407 294 OFFCURVE",
"435 404 CURVE",
"436 383 OFFCURVE",
"435 365 OFFCURVE",
"433 345 CURVE SMOOTH",
"418 194 OFFCURVE",
"370 95 OFFCURVE",
"272 95 CURVE SMOOTH",
"216 95 OFFCURVE",
"179 132 OFFCURVE",
"183 192 CURVE",
"72 192 LINE",
"60 70 OFFCURVE",
"145 -14 OFFCURVE",
"265 -14 CURVE SMOOTH"
);
},
{
closed = 1;
nodes = (
"235 348 OFFCURVE",
"193 386 OFFCURVE",
"200 451 CURVE SMOOTH",
"206 514 OFFCURVE",
"255 554 OFFCURVE",
"310 554 CURVE SMOOTH",
"366 554 OFFCURVE",
"409 514 OFFCURVE",
"403 451 CURVE SMOOTH",
"397 390 OFFCURVE",
"346 348 OFFCURVE",
"292 348 CURVE SMOOTH"
);
}
);
width = 549;
}
);
unicode = 0039;
},
{
glyphname = zero.propold;
lastChange = "2019-04-17 22:47:16 +0000";
layers = (
{
layerId = UUID0;
paths = (
{
closed = 1;
nodes = (
"351 -11 OFFCURVE",
"440 83 OFFCURVE",
"458 270 CURVE SMOOTH",
"476 457 OFFCURVE",
"404 551 OFFCURVE",
"291 551 CURVE SMOOTH",
"176 551 OFFCURVE",
"89 457 OFFCURVE",
"71 270 CURVE SMOOTH",
"53 83 OFFCURVE",
"123 -11 OFFCURVE",
"238 -11 CURVE SMOOTH"
);
},
{
closed = 1;
nodes = (
"162 59 OFFCURVE",
"130 132 OFFCURVE",
"144 270 CURVE SMOOTH",
"157 408 OFFCURVE",
"202 482 OFFCURVE",
"284 482 CURVE SMOOTH",
"367 482 OFFCURVE",
"398 408 OFFCURVE",
"385 270 CURVE SMOOTH",
"372 132 OFFCURVE",
"328 59 OFFCURVE",
"245 59 CURVE SMOOTH"
);
}
);
width = 478;
},
{
layerId = UUID1;
paths = (
{
closed = 1;
nodes = (
"380 -14 OFFCURVE",
"478 92 OFFCURVE",
"496 285 CURVE SMOOTH",
"515 478 OFFCURVE",
"436 583 OFFCURVE",
"311 583 CURVE SMOOTH",
"187 583 OFFCURVE",
"87 478 OFFCURVE",
"68 285 CURVE SMOOTH",
"50 92 OFFCURVE",
"130 -14 OFFCURVE",
"255 -14 CURVE SMOOTH"
);
},
{
closed = 1;
nodes = (
"193 93 OFFCURVE",
"164 156 OFFCURVE",
"175 285 CURVE SMOOTH",
"188 415 OFFCURVE",
"230 477 OFFCURVE",
"301 477 CURVE SMOOTH",
"373 477 OFFCURVE",
"403 415 OFFCURVE",
"391 285 CURVE SMOOTH",
"379 156 OFFCURVE",
"337 93 OFFCURVE",
"265 93 CURVE SMOOTH"
);
}
);
width = 513;
}
);
},
{
glyphname = one.propold;
lastChange = "2019-04-17 22:47:20 +0000";
layers = (
{
layerId = UUID0;
paths = (
{
closed = 1;
nodes = (
"207 0 LINE",
"257 541 LINE",
"200 541 LINE",
"165 510 OFFCURVE",
"128 495 OFFCURVE",
"90 489 CURVE",
"83 412 LINE",
"113 413 OFFCURVE",
"147 425 OFFCURVE",
"178 446 CURVE",
"137 0 LINE"
);
}
);
width = 298;
},
{
layerId = UUID1;
paths = (
{
closed = 1;
nodes = (
"237 0 LINE",
"291 571 LINE",
"211 571 LINE",
"166 537 OFFCURVE",
"127 523 OFFCURVE",
"86 518 CURVE",
"76 404 LINE",
"106 405 OFFCURVE",
"138 413 OFFCURVE",
"171 430 CURVE",
"130 0 LINE"
);
}
);
width = 321;
}
);
},
{
glyphname = two.propold;
lastChange = "2019-04-17 22:47:38 +0000";
layers = (
{
background = {
paths = (
{
closed = 1;
nodes = (
"172 156 OFFCURVE",
"179 149 OFFCURVE",
"187 149 CURVE SMOOTH",
"195 149 OFFCURVE",
"202 156 OFFCURVE",
"202 164 CURVE SMOOTH",
"202 172 OFFCURVE",
"195 179 OFFCURVE",
"187 179 CURVE SMOOTH",
"179 179 OFFCURVE",
"172 172 OFFCURVE",
"172 164 CURVE SMOOTH"
);
},
{
closed = 1;
nodes = (
"237 177 OFFCURVE",
"244 170 OFFCURVE",
"252 170 CURVE SMOOTH",
"260 170 OFFCURVE",
"267 177 OFFCURVE",
"267 185 CURVE SMOOTH",
"267 193 OFFCURVE",
"260 200 OFFCURVE",
"252 200 CURVE SMOOTH",
"244 200 OFFCURVE",
"237 193 OFFCURVE",
"237 185 CURVE SMOOTH"
);
}
);
};
layerId = UUID0;
paths = (
{
closed = 1;
nodes = (
"450 0 LINE",
"456 73 LINE",
"135 73 LINE",
"139 105 LINE SMOOTH",
"142 152 OFFCURVE",
"170 188 OFFCURVE",
"235 204 CURVE SMOOTH",
"337 231 LINE SMOOTH",
"430 255 OFFCURVE",
"479 301 OFFCURVE",
"487 386 CURVE SMOOTH",
"495 474 OFFCURVE",
"427 551 OFFCURVE",
"317 551 CURVE SMOOTH",
"199 551 OFFCURVE",
"120 492 OFFCURVE",
"103 388 CURVE",
"182 388 LINE",
"195 450 OFFCURVE",
"245 481 OFFCURVE",
"313 481 CURVE SMOOTH",
"383 481 OFFCURVE",
"420 439 OFFCURVE",
"415 390 CURVE SMOOTH",
"410 336 OFFCURVE",
"377 305 OFFCURVE",
"312 289 CURVE SMOOTH",
"217 264 LINE SMOOTH",
"124 241 OFFCURVE",
"76 191 OFFCURVE",
"65 84 CURVE SMOOTH",
"58 0 LINE"
);
}
);
width = 517;
},
{
background = {
paths = (
{
closed = 1;
nodes = (
"172 156 OFFCURVE",
"179 149 OFFCURVE",
"187 149 CURVE SMOOTH",
"195 149 OFFCURVE",
"202 156 OFFCURVE",
"202 164 CURVE SMOOTH",
"202 172 OFFCURVE",
"195 179 OFFCURVE",
"187 179 CURVE SMOOTH",
"179 179 OFFCURVE",
"172 172 OFFCURVE",
"172 164 CURVE SMOOTH"
);
},
{
closed = 1;
nodes = (
"237 177 OFFCURVE",
"244 170 OFFCURVE",
"252 170 CURVE SMOOTH",
"260 170 OFFCURVE",
"267 177 OFFCURVE",
"267 185 CURVE SMOOTH",
"267 193 OFFCURVE",
"260 200 OFFCURVE",
"252 200 CURVE SMOOTH",
"244 200 OFFCURVE",
"237 193 OFFCURVE",
"237 185 CURVE SMOOTH"
);
}
);
};
layerId = UUID1;
paths = (
{
closed = 1;
nodes = (
"480 0 LINE",
"490 108 LINE",
"170 108 LINE",
"172 132 LINE SMOOTH",
"175 166 OFFCURVE",
"198 190 OFFCURVE",
"250 204 CURVE SMOOTH",
"347 230 LINE SMOOTH",
"455 259 OFFCURVE",
"505 310 OFFCURVE",
"514 404 CURVE SMOOTH",
"524 505 OFFCURVE",
"452 583 OFFCURVE",
"331 583 CURVE SMOOTH",
"208 583 OFFCURVE",
"115 523 OFFCURVE",
"102 400 CURVE",
"220 400 LINE",
"230 455 OFFCURVE",
"271 480 OFFCURVE",
"327 480 CURVE SMOOTH",
"382 480 OFFCURVE",
"411 446 OFFCURVE",
"408 405 CURVE SMOOTH",
"403 358 OFFCURVE",
"376 329 OFFCURVE",
"309 311 CURVE SMOOTH",
"221 288 LINE SMOOTH",
"123 262 OFFCURVE",
"74 211 OFFCURVE",
"63 98 CURVE SMOOTH",
"54 0 LINE"
);
}
);
width = 535;
}
);
},
{
glyphname = three.propold;
lastChange = "2019-04-17 22:48:01 +0000";
layers = (
{
layerId = UUID0;
paths = (
{
closed = 1;
nodes = (
"348 -114 OFFCURVE",
"440 -35 OFFCURVE",
"450 74 CURVE SMOOTH",
"458 157 OFFCURVE",
"418 226 OFFCURVE",
"347 252 CURVE",
"411 277 OFFCURVE",
"451 317 OFFCURVE",
"457 384 CURVE SMOOTH",
"466 481 OFFCURVE",
"397 551 OFFCURVE",
"284 551 CURVE SMOOTH",
"184 551 OFFCURVE",
"103 507 OFFCURVE",
"77 390 CURVE",
"152 390 LINE",
"171 455 OFFCURVE",
"220 483 OFFCURVE",
"279 483 CURVE SMOOTH",
"351 483 OFFCURVE",
"391 439 OFFCURVE",
"384 378 CURVE SMOOTH",
"378 309 OFFCURVE",
"321 274 OFFCURVE",
"235 274 CURVE SMOOTH",
"196 274 LINE",
"191 211 LINE",
"246 211 LINE SMOOTH",
"346 211 OFFCURVE",
"384 149 OFFCURVE",
"378 79 CURVE SMOOTH",
"371 7 OFFCURVE",
"309 -46 OFFCURVE",
"228 -46 CURVE SMOOTH",
"150 -46 OFFCURVE",
"98 -4 OFFCURVE",
"105 88 CURVE",
"33 88 LINE",
"20 -48 OFFCURVE",
"109 -114 OFFCURVE",
"221 -114 CURVE SMOOTH"
);
}
);
width = 506;
},
{
layerId = UUID1;
paths = (
{
closed = 1;
nodes = (
"369 -119 OFFCURVE",
"467 -32 OFFCURVE",
"478 84 CURVE SMOOTH",
"486 167 OFFCURVE",
"451 235 OFFCURVE",
"381 266 CURVE",
"444 293 OFFCURVE",
"482 338 OFFCURVE",
"489 407 CURVE SMOOTH",
"499 507 OFFCURVE",
"427 583 OFFCURVE",
"300 583 CURVE SMOOTH",
"180 583 OFFCURVE",
"93 532 OFFCURVE",
"67 398 CURVE",
"180 398 LINE",
"193 452 OFFCURVE",
"237 484 OFFCURVE",
"292 484 CURVE SMOOTH",
"352 484 OFFCURVE",
"386 446 OFFCURVE",
"382 394 CURVE SMOOTH",
"376 335 OFFCURVE",
"330 300 OFFCURVE",
"262 300 CURVE SMOOTH",
"207 300 LINE",
"198 207 LINE",
"258 207 LINE SMOOTH",
"337 207 OFFCURVE",
"378 158 OFFCURVE",
"372 94 CURVE SMOOTH",
"366 29 OFFCURVE",
"313 -19 OFFCURVE",
"244 -19 CURVE SMOOTH",
"178 -19 OFFCURVE",
"131 15 OFFCURVE",
"134 95 CURVE",
"26 95 LINE",
"13 -52 OFFCURVE",
"114 -119 OFFCURVE",
"234 -119 CURVE SMOOTH"
);
}
);
width = 529;
}
);
},
{
glyphname = four.propold;
lastChange = "2019-04-17 22:48:11 +0000";
layers = (
{
layerId = UUID0;
paths = (
{
closed = 1;
nodes = (
"373 -105 LINE",
"389 54 LINE",
"487 54 LINE",
"493 121 LINE",
"395 121 LINE",
"436 546 LINE",
"369 546 LINE",
"32 115 LINE",
"26 54 LINE",
"319 54 LINE",
"303 -105 LINE"
);
},
{
closed = 1;
nodes = (
"355 422 LINE",
"327 115 LINE",
"112 115 LINE"
);
}
);
width = 504;
},
{
layerId = UUID1;
paths = (
{
closed = 1;
nodes = (
"409 -108 LINE",
"424 49 LINE",
"525 49 LINE",
"534 151 LINE",
"433 151 LINE",
"473 574 LINE",
"369 574 LINE",
"29 138 LINE",
"21 49 LINE",
"317 49 LINE",
"301 -108 LINE"
);
},
{
closed = 1;
nodes = (
"355 401 LINE",
"330 138 LINE",
"146 138 LINE"
);
}
);
width = 536;
}
);
},
{
glyphname = five.propold;
lastChange = "2019-04-17 22:48:17 +0000";
layers = (
{
background = {
paths = (
{
closed = 1;
nodes = (
"110 260 OFFCURVE",
"140 230 OFFCURVE",
"176 230 CURVE SMOOTH",
"212 230 OFFCURVE",
"242 260 OFFCURVE",
"242 296 CURVE SMOOTH",
"242 332 OFFCURVE",
"212 362 OFFCURVE",
"176 362 CURVE SMOOTH",
"140 362 OFFCURVE",
"110 332 OFFCURVE",
"110 296 CURVE SMOOTH"
);
}
);
};
layerId = UUID0;
paths = (
{
closed = 1;
nodes = (
"355 -114 OFFCURVE",
"453 -21 OFFCURVE",
"465 106 CURVE SMOOTH",
"477 230 OFFCURVE",
"407 306 OFFCURVE",
"282 306 CURVE SMOOTH",
"254 306 OFFCURVE",
"225 303 OFFCURVE",
"196 296 CURVE",
"229 474 LINE",
"473 474 LINE",
"481 545 LINE",
"170 545 LINE",
"116 241 LINE",
"262 241 LINE SMOOTH",
"356 241 OFFCURVE",
"400 189 OFFCURVE",
"393 106 CURVE SMOOTH",
"385 21 OFFCURVE",
"320 -42 OFFCURVE",
"238 -42 CURVE SMOOTH",
"169 -42 OFFCURVE",
"127 -1 OFFCURVE",
"134 75 CURVE",
"65 75 LINE",
"53 -48 OFFCURVE",
"133 -114 OFFCURVE",
"231 -114 CURVE SMOOTH"
);
}
);
width = 512;
},
{
background = {
paths = (
{
closed = 1;
nodes = (
"110 260 OFFCURVE",
"140 230 OFFCURVE",
"176 230 CURVE SMOOTH",
"212 230 OFFCURVE",
"242 260 OFFCURVE",
"242 296 CURVE SMOOTH",
"242 332 OFFCURVE",
"212 362 OFFCURVE",
"176 362 CURVE SMOOTH",
"140 362 OFFCURVE",
"110 332 OFFCURVE",
"110 296 CURVE SMOOTH"
);
}
);
};
layerId = UUID1;
paths = (
{
closed = 1;
nodes = (
"373 -119 OFFCURVE",
"481 -21 OFFCURVE",
"494 115 CURVE SMOOTH",
"506 244 OFFCURVE",
"434 329 OFFCURVE",
"309 329 CURVE SMOOTH",
"277 329 OFFCURVE",
"251 324 OFFCURVE",
"222 316 CURVE",
"251 473 LINE",
"497 473 LINE",
"508 581 LINE",
"165 581 LINE",
"103 233 LINE",
"269 233 LINE SMOOTH",
"356 233 OFFCURVE",
"394 189 OFFCURVE",
"388 115 CURVE SMOOTH",
"381 40 OFFCURVE",
"324 -11 OFFCURVE",
"256 -11 CURVE SMOOTH",
"195 -11 OFFCURVE",
"158 24 OFFCURVE",
"165 92 CURVE",
"59 92 LINE",
"47 -45 OFFCURVE",
"137 -119 OFFCURVE",
"244 -119 CURVE SMOOTH"
);
}
);
width = 530;
}
);
},
{
glyphname = six.propold;
lastChange = "2019-04-17 22:51:13 +0000";
layers = (
{
background = {
paths = (
{
closed = 1;
nodes = (
"352 402 LINE",
"343 454 OFFCURVE",
"320 479 OFFCURVE",
"271 479 CURVE SMOOTH",
"171 479 OFFCURVE",
"107 378 OFFCURVE",
"107 240 CURVE SMOOTH",
"107 219 OFFCURVE",
"108 190 OFFCURVE",
"111 168 CURVE",
"117 277 OFFCURVE",
"184 316 OFFCURVE",
"259 316 CURVE SMOOTH",
"352 316 OFFCURVE",
"424 248 OFFCURVE",
"424 153 CURVE SMOOTH",
"424 56 OFFCURVE",
"353 -9 OFFCURVE",
"248 -9 CURVE SMOOTH",
"123 -9 OFFCURVE",
"42 102 OFFCURVE",
"42 254 CURVE SMOOTH",
"42 424 OFFCURVE",
"132 538 OFFCURVE",
"270 538 CURVE SMOOTH",
"358 538 OFFCURVE",
"414 487 OFFCURVE",
"422 402 CURVE"
);
},
{
closed = 1;
nodes = (
"187 259 OFFCURVE",
"140 210 OFFCURVE",
"140 152 CURVE SMOOTH",
"140 89 OFFCURVE",
"187 49 OFFCURVE",
"248 49 CURVE SMOOTH",
"310 49 OFFCURVE",
"356 89 OFFCURVE",
"356 152 CURVE SMOOTH",
"356 216 OFFCURVE",
"310 259 OFFCURVE",
"248 259 CURVE SMOOTH"
);
}
);
};
layerId = UUID0;
paths = (
{
closed = 1;
nodes = (
"384 -12 OFFCURVE",
"469 66 OFFCURVE",
"481 182 CURVE SMOOTH",
"491 297 OFFCURVE",
"421 379 OFFCURVE",
"319 379 CURVE SMOOTH",
"240 379 OFFCURVE",
"162 336 OFFCURVE",
"141 204 CURVE",
"133 424 OFFCURVE",
"220 568 OFFCURVE",
"336 568 CURVE SMOOTH",
"396 568 OFFCURVE",
"423 530 OFFCURVE",
"427 470 CURVE",
"503 470 LINE",
"504 571 OFFCURVE",
"443 640 OFFCURVE",
"341 640 CURVE SMOOTH",
"196 640 OFFCURVE",
"94 514 OFFCURVE",
"74 303 CURVE SMOOTH",
"58 124 OFFCURVE",
"133 -12 OFFCURVE",
"269 -12 CURVE SMOOTH"
);
},
{
closed = 1;
nodes = (
"210 61 OFFCURVE",
"163 108 OFFCURVE",
"170 185 CURVE SMOOTH",
"176 255 OFFCURVE",
"233 309 OFFCURVE",
"300 309 CURVE SMOOTH",
"368 309 OFFCURVE",
"414 262 OFFCURVE",
"407 185 CURVE SMOOTH",
"400 108 OFFCURVE",
"345 61 OFFCURVE",
"276 61 CURVE SMOOTH"
);
}
);
width = 516;
},
{
background = {
paths = (
{
closed = 1;
nodes = (
"352 402 LINE",
"343 454 OFFCURVE",
"320 479 OFFCURVE",
"271 479 CURVE SMOOTH",
"171 479 OFFCURVE",
"107 378 OFFCURVE",
"107 240 CURVE SMOOTH",
"107 219 OFFCURVE",
"108 190 OFFCURVE",
"111 168 CURVE",
"117 277 OFFCURVE",
"184 316 OFFCURVE",
"259 316 CURVE SMOOTH",
"352 316 OFFCURVE",
"424 248 OFFCURVE",
"424 153 CURVE SMOOTH",
"424 56 OFFCURVE",
"353 -9 OFFCURVE",
"248 -9 CURVE SMOOTH",
"123 -9 OFFCURVE",
"42 102 OFFCURVE",
"42 254 CURVE SMOOTH",
"42 424 OFFCURVE",
"132 538 OFFCURVE",
"270 538 CURVE SMOOTH",
"358 538 OFFCURVE",
"414 487 OFFCURVE",
"422 402 CURVE"
);
},
{
closed = 1;
nodes = (
"187 259 OFFCURVE",
"140 210 OFFCURVE",
"140 152 CURVE SMOOTH",
"140 89 OFFCURVE",
"187 49 OFFCURVE",
"248 49 CURVE SMOOTH",
"310 49 OFFCURVE",
"356 89 OFFCURVE",
"356 152 CURVE SMOOTH",
"356 216 OFFCURVE",
"310 259 OFFCURVE",
"248 259 CURVE SMOOTH"
);
}
);
};
layerId = UUID1;
paths = (
{
closed = 1;
nodes = (
"414 -14 OFFCURVE",
"508 69 OFFCURVE",
"520 192 CURVE SMOOTH",
"531 312 OFFCURVE",
"463 398 OFFCURVE",
"353 398 CURVE SMOOTH",
"276 398 OFFCURVE",
"200 360 OFFCURVE",
"175 238 CURVE",
"175 430 OFFCURVE",
"246 555 OFFCURVE",
"351 555 CURVE SMOOTH",
"401 555 OFFCURVE",
"425 523 OFFCURVE",
"427 471 CURVE",
"540 471 LINE",
"546 586 OFFCURVE",
"473 662 OFFCURVE",
"357 662 CURVE SMOOTH",
"206 662 OFFCURVE",
"92 537 OFFCURVE",
"71 313 CURVE SMOOTH",
"53 124 OFFCURVE",
"142 -14 OFFCURVE",
"289 -14 CURVE SMOOTH"
);
},
{
closed = 1;
nodes = (
"242 95 OFFCURVE",
"201 135 OFFCURVE",
"207 197 CURVE SMOOTH",
"212 259 OFFCURVE",
"262 301 OFFCURVE",
"318 301 CURVE SMOOTH",
"375 301 OFFCURVE",
"416 262 OFFCURVE",
"410 197 CURVE SMOOTH",
"404 135 OFFCURVE",
"356 95 OFFCURVE",
"299 95 CURVE SMOOTH"
);
}
);
width = 546;
}
);
},
{
glyphname = seven.propold;
lastChange = "2019-04-15 20:26:35 +0000";
layers = (
{
layerId = UUID0;
paths = (
{
closed = 1;
nodes = (
"67 481 LINE",
"377 481 LINE",
"40 -98 LINE",
"127 -98 LINE",
"452 484 LINE",
"458 551 LINE",
"73 551 LINE"
);
}
);
width = 423;
},
{
layerId = UUID1;
paths = (
{
closed = 1;
nodes = (
"67 480 LINE",
"368 480 LINE",
"22 -104 LINE",
"152 -104 LINE",
"477 481 LINE",
"487 583 LINE",
"76 583 LINE"
);
}
);
width = 448;
}
);
},
{
glyphname = eight.propold;
lastChange = "2019-04-17 22:53:44 +0000";
layers = (
{
layerId = UUID0;
paths = (
{
closed = 1;
nodes = (
"418 -11 OFFCURVE",
"509 57 OFFCURVE",
"519 157 CURVE SMOOTH",
"527 238 OFFCURVE",
"485 280 OFFCURVE",
"406 315 CURVE SMOOTH",
"391 321 LINE",
"472 335 OFFCURVE",
"520 397 OFFCURVE",
"526 465 CURVE SMOOTH",
"536 565 OFFCURVE",
"456 640 OFFCURVE",
"337 640 CURVE SMOOTH",
"205 640 OFFCURVE",
"121 570 OFFCURVE",
"112 473 CURVE SMOOTH",
"104 393 OFFCURVE",
"160 344 OFFCURVE",
"210 318 CURVE",
"131 305 OFFCURVE",
"72 250 OFFCURVE",
"65 168 CURVE SMOOTH",
"55 65 OFFCURVE",
"141 -11 OFFCURVE",
"274 -11 CURVE SMOOTH"
);
},
{
closed = 1;
nodes = (
"195 61 OFFCURVE",
"132 102 OFFCURVE",
"139 175 CURVE SMOOTH",
"144 230 OFFCURVE",
"199 280 OFFCURVE",
"275 289 CURVE",
"373 247 LINE",
"420 227 OFFCURVE",
"449 198 OFFCURVE",
"445 155 CURVE SMOOTH",
"440 99 OFFCURVE",
"379 61 OFFCURVE",
"282 61 CURVE SMOOTH"
);
},
{
closed = 1;
nodes = (
"256 381 LINE SMOOTH",
"209 402 OFFCURVE",
"183 425 OFFCURVE",
"187 470 CURVE SMOOTH",
"193 524 OFFCURVE",
"253 568 OFFCURVE",
"329 568 CURVE SMOOTH",
"409 568 OFFCURVE",
"459 524 OFFCURVE",
"453 461 CURVE SMOOTH",
"446 398 OFFCURVE",
"389 355 OFFCURVE",
"319 353 CURVE"
);
}
);
width = 553;
},
{
layerId = UUID1;
paths = (
{
closed = 1;
nodes = (
"446 -14 OFFCURVE",
"544 64 OFFCURVE",
"554 172 CURVE SMOOTH",
"562 258 OFFCURVE",
"518 300 OFFCURVE",
"436 337 CURVE SMOOTH",
"432 339 LINE",
"508 354 OFFCURVE",
"556 411 OFFCURVE",
"562 476 CURVE SMOOTH",
"572 584 OFFCURVE",
"481 662 OFFCURVE",
"353 662 CURVE SMOOTH",
"209 662 OFFCURVE",
"120 594 OFFCURVE",
"109 485 CURVE SMOOTH",
"102 401 OFFCURVE",
"157 348 OFFCURVE",
"210 319 CURVE",
"130 308 OFFCURVE",
"68 256 OFFCURVE",
"60 175 CURVE SMOOTH",
"50 67 OFFCURVE",
"139 -14 OFFCURVE",
"289 -14 CURVE SMOOTH"
);
},
{
closed = 1;
nodes = (
"223 95 OFFCURVE",
"166 129 OFFCURVE",
"171 187 CURVE SMOOTH",
"175 234 OFFCURVE",
"229 274 OFFCURVE",
"299 278 CURVE",
"389 239 LINE",
"426 222 OFFCURVE",
"446 199 OFFCURVE",
"444 166 CURVE SMOOTH",
"440 124 OFFCURVE",
"392 95 OFFCURVE",
"299 95 CURVE SMOOTH"
);
},
{
closed = 1;
nodes = (
"272 411 LINE SMOOTH",
"234 428 OFFCURVE",
"215 447 OFFCURVE",
"219 480 CURVE SMOOTH",
"222 523 OFFCURVE",
"277 555 OFFCURVE",
"343 555 CURVE SMOOTH",
"412 555 OFFCURVE",
"456 521 OFFCURVE",
"452 468 CURVE SMOOTH",
"446 417 OFFCURVE",
"394 383 OFFCURVE",
"336 382 CURVE"
);
}
);
width = 582;
}
);
},
{
glyphname = nine.propold;
lastChange = "2019-04-17 22:54:17 +0000";
layers = (
{
layerId = UUID0;
paths = (
{
closed = 1;
nodes = (
"387 -114 OFFCURVE",
"478 15 OFFCURVE",
"498 227 CURVE SMOOTH",
"515 407 OFFCURVE",
"445 551 OFFCURVE",
"302 551 CURVE SMOOTH",
"189 551 OFFCURVE",
"103 470 OFFCURVE",
"93 354 CURVE SMOOTH",
"82 239 OFFCURVE",
"156 156 OFFCURVE",
"257 156 CURVE SMOOTH",
"343 156 OFFCURVE",
"410 216 OFFCURVE",
"429 318 CURVE",
"430 290 OFFCURVE",
"428 265 OFFCURVE",
"427 238 CURVE",
"409 65 OFFCURVE",
"354 -42 OFFCURVE",
"248 -42 CURVE SMOOTH",
"175 -42 OFFCURVE",
"139 7 OFFCURVE",
"145 83 CURVE",
"70 83 LINE",
"59 -31 OFFCURVE",
"131 -114 OFFCURVE",
"242 -114 CURVE SMOOTH"
);
},
{
closed = 1;
nodes = (
"201 226 OFFCURVE",
"159 276 OFFCURVE",
"166 354 CURVE SMOOTH",
"174 431 OFFCURVE",
"225 481 OFFCURVE",
"296 481 CURVE SMOOTH",
"367 481 OFFCURVE",
"410 431 OFFCURVE",
"403 354 CURVE SMOOTH",
"396 284 OFFCURVE",
"343 226 OFFCURVE",
"273 226 CURVE SMOOTH"
);
}
);
width = 522;
},
{
layerId = UUID1;
paths = (
{
closed = 1;
nodes = (
"398 -119 OFFCURVE",
"508 13 OFFCURVE",
"528 237 CURVE SMOOTH",
"545 412 OFFCURVE",
"478 583 OFFCURVE",
"313 583 CURVE SMOOTH",
"189 583 OFFCURVE",
"94 494 OFFCURVE",
"82 371 CURVE SMOOTH",
"71 250 OFFCURVE",
"149 163 OFFCURVE",
"258 163 CURVE SMOOTH",
"337 163 OFFCURVE",
"405 217 OFFCURVE",
"427 317 CURVE",
"427 295 OFFCURVE",
"426 271 OFFCURVE",
"423 246 CURVE",
"409 89 OFFCURVE",
"356 -11 OFFCURVE",
"261 -11 CURVE SMOOTH",
"202 -11 OFFCURVE",
"173 25 OFFCURVE",
"175 86 CURVE",
"64 86 LINE",
"52 -36 OFFCURVE",
"133 -119 OFFCURVE",
"251 -119 CURVE SMOOTH"
);
},
{
closed = 1;
nodes = (
"220 260 OFFCURVE",
"186 306 OFFCURVE",
"192 371 CURVE SMOOTH",
"198 433 OFFCURVE",
"240 480 OFFCURVE",
"303 480 CURVE SMOOTH",
"366 480 OFFCURVE",
"401 433 OFFCURVE",
"395 371 CURVE SMOOTH",
"390 309 OFFCURVE",
"346 260 OFFCURVE",
"283 260 CURVE SMOOTH"
);
}
);
width = 548;
}
);
},
{
glyphname = dollar;
lastChange = "2019-04-17 11:38:46 +0000";
layers = (
{
layerId = UUID0;
paths = (
{
closed = 1;
nodes = (
"303 -91 LINE",
"310 -10 LINE",
"442 -1 OFFCURVE",
"513 81 OFFCURVE",
"522 165 CURVE SMOOTH",
"530 251 OFFCURVE",
"485 300 OFFCURVE",
"406 330 CURVE SMOOTH",
"345 353 LINE",
"365 568 LINE",
"423 559 OFFCURVE",
"455 526 OFFCURVE",
"460 476 CURVE",
"530 476 LINE",
"525 567 OFFCURVE",
"474 628 OFFCURVE",
"372 637 CURVE",
"379 713 LINE",
"323 713 LINE",
"316 638 LINE",
"197 629 OFFCURVE",
"129 564 OFFCURVE",
"121 474 CURVE SMOOTH",
"112 386 OFFCURVE",
"161 345 OFFCURVE",
"256 310 CURVE SMOOTH",
"284 299 LINE",
"261 63 LINE",
"187 71 OFFCURVE",
"141 110 OFFCURVE",
"148 189 CURVE",
"79 189 LINE",
"68 68 OFFCURVE",
"148 1 OFFCURVE",
"254 -9 CURVE",
"247 -91 LINE"
);
},
{
closed = 1;
nodes = (
"338 282 LINE",
"370 270 LINE SMOOTH",
"420 251 OFFCURVE",
"447 217 OFFCURVE",
"443 167 CURVE SMOOTH",
"437 116 OFFCURVE",
"394 69 OFFCURVE",
"317 62 CURVE"
);
},
{
closed = 1;
nodes = (
"265 381 LINE SMOOTH",
"214 400 OFFCURVE",
"193 425 OFFCURVE",
"197 471 CURVE SMOOTH",
"201 522 OFFCURVE",
"241 561 OFFCURVE",
"309 568 CURVE",
"291 371 LINE"
);
}
);
width = 569;
},
{
layerId = UUID1;
paths = (
{
closed = 1;
nodes = (
"338 -101 LINE",
"346 -13 LINE",
"494 -3 OFFCURVE",
"569 84 OFFCURVE",
"578 173 CURVE SMOOTH",
"586 259 OFFCURVE",
"546 308 OFFCURVE",
"460 343 CURVE SMOOTH",
"383 374 LINE",
"401 556 LINE",
"449 543 OFFCURVE",
"476 510 OFFCURVE",
"479 470 CURVE",
"584 470 LINE",
"577 576 OFFCURVE",
"524 646 OFFCURVE",
"410 660 CURVE",
"418 737 LINE",
"342 737 LINE",
"334 661 LINE",
"201 651 OFFCURVE",
"124 582 OFFCURVE",
"114 485 CURVE SMOOTH",
"106 393 OFFCURVE",
"159 347 OFFCURVE",
"256 309 CURVE SMOOTH",
"300 292 LINE",
"282 98 LINE",
"212 107 OFFCURVE",
"176 139 OFFCURVE",
"183 203 CURVE",
"77 203 LINE",
"64 70 OFFCURVE",
"153 2 OFFCURVE",
"271 -11 CURVE",
"263 -101 LINE"
);
},
{
closed = 1;
nodes = (
"373 271 LINE",
"401 259 LINE SMOOTH",
"441 242 OFFCURVE",
"462 214 OFFCURVE",
"458 176 CURVE SMOOTH",
"454 136 OFFCURVE",
"422 102 OFFCURVE",
"357 96 CURVE"
);
},
{
closed = 1;
nodes = (
"284 410 LINE SMOOTH",
"244 426 OFFCURVE",
"227 447 OFFCURVE",
"230 481 CURVE SMOOTH",
"234 521 OFFCURVE",
"266 551 OFFCURVE",
"325 559 CURVE",
"310 397 LINE"
);
}
);
width = 620;
}
);
unicode = 0024;
},
{
glyphname = question;
lastChange = "2019-04-17 22:55:17 +0000";
layers = (
{
layerId = UUID0;
paths = (
{
closed = 1;
nodes = (
"244 161 LINE",
"248 200 LINE SMOOTH",
"254 266 OFFCURVE",
"275 286 OFFCURVE",
"338 322 CURVE SMOOTH",
"412 364 OFFCURVE",
"445 406 OFFCURVE",
"452 475 CURVE SMOOTH",
"461 565 OFFCURVE",
"397 640 OFFCURVE",
"282 640 CURVE SMOOTH",
"161 640 OFFCURVE",
"89 574 OFFCURVE",
"72 476 CURVE",
"148 476 LINE",
"163 534 OFFCURVE",
"203 568 OFFCURVE",
"276 568 CURVE SMOOTH",
"343 568 OFFCURVE",
"380 530 OFFCURVE",
"375 477 CURVE SMOOTH",
"370 426 OFFCURVE",
"346 403 OFFCURVE",
"283 366 CURVE SMOOTH",
"211 326 OFFCURVE",
"186 292 OFFCURVE",
"178 206 CURVE SMOOTH",
"174 161 LINE"
);
},
{
closed = 1;
nodes = (
"224 -11 OFFCURVE",
"250 13 OFFCURVE",
"253 44 CURVE SMOOTH",
"256 76 OFFCURVE",
"235 102 OFFCURVE",
"204 102 CURVE SMOOTH",
"174 102 OFFCURVE",
"149 76 OFFCURVE",
"147 44 CURVE SMOOTH",
"144 13 OFFCURVE",
"163 -11 OFFCURVE",
"193 -11 CURVE SMOOTH"
);
}
);
width = 449;
},
{
layerId = UUID1;
paths = (
{
closed = 1;
nodes = (
"282 194 LINE",
"284 223 LINE SMOOTH",
"289 275 OFFCURVE",
"310 296 OFFCURVE",
"370 329 CURVE SMOOTH",
"440 366 OFFCURVE",
"475 411 OFFCURVE",
"481 481 CURVE SMOOTH",
"491 583 OFFCURVE",
"420 662 OFFCURVE",
"292 662 CURVE SMOOTH",
"162 662 OFFCURVE",
"83 586 OFFCURVE",
"66 470 CURVE",
"176 470 LINE",
"185 521 OFFCURVE",
"223 555 OFFCURVE",
"286 555 CURVE SMOOTH",
"339 555 OFFCURVE",
"369 524 OFFCURVE",
"364 482 CURVE SMOOTH",
"361 443 OFFCURVE",
"344 422 OFFCURVE",
"283 390 CURVE SMOOTH",
"216 354 OFFCURVE",
"187 321 OFFCURVE",
"179 234 CURVE SMOOTH",
"175 194 LINE"
);
},
{
closed = 1;
nodes = (
"255 -14 OFFCURVE",
"291 20 OFFCURVE",
"294 65 CURVE SMOOTH",
"299 110 OFFCURVE",
"270 143 OFFCURVE",
"227 143 CURVE SMOOTH",
"183 143 OFFCURVE",
"149 110 OFFCURVE",
"145 65 CURVE SMOOTH",
"141 20 OFFCURVE",
"167 -14 OFFCURVE",
"211 -14 CURVE SMOOTH"
);
}
);
width = 465;
}
);
unicode = 003F;
},
{
glyphname = sterling;
lastChange = "2019-04-15 20:26:35 +0000";
layers = (
{
layerId = UUID0;
paths = (
{
closed = 1;
nodes = (
"310 0 LINE SMOOTH",
"428 0 OFFCURVE",
"475 59 OFFCURVE",
"490 154 CURVE",
"415 154 LINE",
"402 96 OFFCURVE",
"375 69 OFFCURVE",
"317 69 CURVE SMOOTH",
"151 69 LINE",
"178 87 OFFCURVE",
"189 118 OFFCURVE",
"194 163 CURVE SMOOTH",
"204 267 LINE",
"368 267 LINE",
"373 323 LINE",
"209 323 LINE",
"220 432 LINE SMOOTH",
"229 527 OFFCURVE",
"269 568 OFFCURVE",
"328 568 CURVE SMOOTH",
"370 568 OFFCURVE",
"401 542 OFFCURVE",
"406 490 CURVE",
"475 490 LINE",
"471 588 OFFCURVE",
"419 640 OFFCURVE",
"335 640 CURVE SMOOTH",
"226 640 OFFCURVE",
"162 563 OFFCURVE",
"149 432 CURVE SMOOTH",
"139 323 LINE",
"57 323 LINE",
"52 267 LINE",
"133 267 LINE",
"123 159 LINE SMOOTH",
"118 98 OFFCURVE",
"95 69 OFFCURVE",
"49 69 CURVE SMOOTH",
"24 69 LINE",
"18 0 LINE"
);
}
);
width = 508;
},
{
layerId = UUID1;
paths = (
{
closed = 1;
nodes = (
"306 0 LINE SMOOTH",
"452 0 OFFCURVE",
"512 68 OFFCURVE",
"526 184 CURVE",
"410 184 LINE",
"399 131 OFFCURVE",
"374 107 OFFCURVE",
"315 107 CURVE SMOOTH",
"192 107 LINE",
"217 128 OFFCURVE",
"229 159 OFFCURVE",
"234 202 CURVE SMOOTH",
"241 281 LINE",
"395 281 LINE",
"402 360 LINE",
"248 360 LINE",
"256 444 LINE SMOOTH",
"264 520 OFFCURVE",
"299 555 OFFCURVE",
"345 555 CURVE SMOOTH",
"382 555 OFFCURVE",
"405 531 OFFCURVE",
"407 487 CURVE",
"511 487 LINE",
"508 603 OFFCURVE",
"454 662 OFFCURVE",
"355 662 CURVE SMOOTH",
"244 662 OFFCURVE",
"164 588 OFFCURVE",
"150 444 CURVE SMOOTH",
"142 360 LINE",
"67 360 LINE",
"60 281 LINE",
"135 281 LINE",
"127 194 LINE SMOOTH",
"121 135 OFFCURVE",
"103 107 OFFCURVE",
"58 107 CURVE SMOOTH",
"30 107 LINE",
"20 0 LINE"
);
}
);
width = 542;
}
);
unicode = 00A3;
},
{
glyphname = grave;
lastChange = "2019-04-15 20:26:35 +0000";
layers = (
{
anchors = (
{
name = _above;
position = "{141, 635}";
}
);
layerId = UUID0;
paths = (
{
closed = 1;
nodes = (
"306 677 LINE",
"331 727 LINE",
"132 860 LINE",
"96 790 LINE"
);
}
);
width = 283;
},
{
anchors = (
{
name = _above;
position = "{141, 635}";
}
);
layerId = UUID1;
paths = (
{
closed = 1;
nodes = (
"337 694 LINE",
"372 768 LINE",
"144 900 LINE",
"96 798 LINE"
);
}
);
width = 320;
}
);
unicode = 0060;
},
{
glyphname = acute;
lastChange = "2019-04-17 22:55:42 +0000";
layers = (
{
anchors = (
{
name = _above;
position = "{141, 635}";
}
);
layerId = UUID0;
paths = (
{
closed = 1;
nodes = (
"336 790 LINE",
"313 860 LINE",
"89 727 LINE",
"105 677 LINE"
);
}
);
width = 283;
},
{
anchors = (
{
name = _above;
position = "{141, 635}";
}
);
layerId = UUID1;
paths = (
{
closed = 1;
nodes = (
"373 798 LINE",
"346 900 LINE",
"93 768 LINE",
"112 694 LINE"
);
}
);
width = 320;
}
);
unicode = 00B4;
},
{
glyphname = agrave;
lastChange = "2019-04-17 22:56:00 +0000";
layers = (
{
layerId = UUID0;
paths = (
{
closed = 1;
nodes = (
"273 -11 OFFCURVE",
"326 20 OFFCURVE",
"358 80 CURVE",
"358 53 OFFCURVE",
"357 27 OFFCURVE",
"357 0 CURVE",
"418 0 LINE",
"447 308 LINE SMOOTH",
"459 437 OFFCURVE",
"395 490 OFFCURVE",
"295 490 CURVE SMOOTH",
"193 490 OFFCURVE",
"114 450 OFFCURVE",
"104 346 CURVE",
"183 346 LINE",
"188 405 OFFCURVE",
"234 431 OFFCURVE",
"290 431 CURVE SMOOTH",
"357 431 OFFCURVE",
"385 395 OFFCURVE",
"377 310 CURVE",
"371 249 LINE",
"332 266 OFFCURVE",
"290 275 OFFCURVE",
"246 275 CURVE SMOOTH",
"153 275 OFFCURVE",
"76 229 OFFCURVE",
"67 134 CURVE",
"59 60 OFFCURVE",
"109 -11 OFFCURVE",
"205 -11 CURVE SMOOTH"
);
},
{
closed = 1;
nodes = (
"159 50 OFFCURVE",
"138 87 OFFCURVE",
"142 134 CURVE SMOOTH",
"148 197 OFFCURVE",
"195 219 OFFCURVE",
"253 219 CURVE SMOOTH",
"288 219 OFFCURVE",
"329 211 OFFCURVE",
"366 199 CURVE",
"366 108 OFFCURVE",
"289 50 OFFCURVE",
"226 50 CURVE SMOOTH"
);
},
{
closed = 1;
nodes = (
"431 598 LINE",
"232 731 LINE",
"196 661 LINE",
"406 548 LINE"
);
}
);
width = 496;
},
{
layerId = UUID1;
paths = (
{
closed = 1;
nodes = (
"285 -14 OFFCURVE",
"330 18 OFFCURVE",
"360 66 CURVE",
"361 44 OFFCURVE",
"361 22 OFFCURVE",
"362 0 CURVE",
"454 0 LINE",
"483 309 LINE SMOOTH",
"495 440 OFFCURVE",
"427 499 OFFCURVE",
"313 499 CURVE SMOOTH",
"188 499 OFFCURVE",
"109 452 OFFCURVE",
"98 342 CURVE",
"214 342 LINE",
"219 387 OFFCURVE",
"254 413 OFFCURVE",
"305 413 CURVE SMOOTH",
"364 413 OFFCURVE",
"384 381 OFFCURVE",
"377 313 CURVE",
"372 265 LINE",
"335 276 OFFCURVE",
"297 284 OFFCURVE",
"254 284 CURVE SMOOTH",
"144 284 OFFCURVE",
"70 234 OFFCURVE",
"62 142 CURVE",
"54 59 OFFCURVE",
"105 -14 OFFCURVE",
"222 -14 CURVE SMOOTH"
);
},
{
closed = 1;
nodes = (
"196 76 OFFCURVE",
"172 106 OFFCURVE",
"175 142 CURVE SMOOTH",
"179 188 OFFCURVE",
"219 206 OFFCURVE",
"268 206 CURVE SMOOTH",
"298 206 OFFCURVE",
"336 199 OFFCURVE",
"365 190 CURVE",
"359 125 OFFCURVE",
"308 76 OFFCURVE",
"252 76 CURVE SMOOTH"
);
},
{
closed = 1;
nodes = (
"466 632 LINE",
"238 764 LINE",
"190 662 LINE",
"431 558 LINE"
);
}
);
width = 526;
}
);
unicode = 00E0;
},
{
glyphname = egrave;
lastChange = "2019-04-17 22:56:21 +0000";
layers = (
{
layerId = UUID0;
paths = (
{
closed = 1;
nodes = (
"332 -11 OFFCURVE",
"405 45 OFFCURVE",
"428 140 CURVE",
"355 140 LINE",
"341 82 OFFCURVE",
"301 53 OFFCURVE",
"245 53 CURVE SMOOTH",
"163 53 OFFCURVE",
"130 125 OFFCURVE",
"137 222 CURVE",
"432 222 LINE",
"437 245 OFFCURVE",
"440 269 OFFCURVE",
"441 291 CURVE SMOOTH",
"445 402 OFFCURVE",
"397 490 OFFCURVE",
"286 490 CURVE SMOOTH",
"174 490 OFFCURVE",
"83 395 OFFCURVE",
"68 238 CURVE SMOOTH",
"53 83 OFFCURVE",
"127 -11 OFFCURVE",
"239 -11 CURVE SMOOTH"
);
},
{
closed = 1;
nodes = (
"158 361 OFFCURVE",
"206 427 OFFCURVE",
"281 427 CURVE SMOOTH",
"362 427 OFFCURVE",
"381 357 OFFCURVE",
"374 282 CURVE",
"144 282 LINE"
);
},
{
closed = 1;
nodes = (
"410 603 LINE",
"211 736 LINE",
"175 666 LINE",
"385 553 LINE"
);
}
);
width = 463;
},
{
layerId = UUID1;
paths = (
{
closed = 1;
nodes = (
"346 -14 OFFCURVE",
"424 51 OFFCURVE",
"446 145 CURVE",
"339 145 LINE",
"327 102 OFFCURVE",
"295 81 OFFCURVE",
"255 81 CURVE SMOOTH",
"189 81 OFFCURVE",
"161 136 OFFCURVE",
"167 214 CURVE",
"450 214 LINE",
"454 232 OFFCURVE",
"457 249 OFFCURVE",
"459 267 CURVE SMOOTH",
"470 388 OFFCURVE",
"421 499 OFFCURVE",
"294 499 CURVE SMOOTH",
"181 499 OFFCURVE",
"80 403 OFFCURVE",
"65 243 CURVE SMOOTH",
"50 88 OFFCURVE",
"133 -14 OFFCURVE",
"246 -14 CURVE SMOOTH"
);
},
{
closed = 1;
nodes = (
"187 356 OFFCURVE",
"227 405 OFFCURVE",
"286 405 CURVE SMOOTH",
"352 405 OFFCURVE",
"367 348 OFFCURVE",
"362 289 CURVE",
"175 289 LINE"
);
},
{
closed = 1;
nodes = (
"439 642 LINE",
"211 774 LINE",
"163 672 LINE",
"404 568 LINE"
);
}
);
width = 477;
}
);
unicode = 00E8;
},
{
glyphname = ograve;
lastChange = "2019-04-17 22:57:01 +0000";
layers = (
{
layerId = UUID0;
paths = (
{
closed = 1;
nodes = (
"361 -11 OFFCURVE",
"454 75 OFFCURVE",
"470 239 CURVE",
"485 404 OFFCURVE",
"409 490 OFFCURVE",
"293 490 CURVE SMOOTH",
"176 490 OFFCURVE",
"84 404 OFFCURVE",
"68 239 CURVE SMOOTH",
"52 75 OFFCURVE",
"129 -11 OFFCURVE",
"245 -11 CURVE SMOOTH"
);
},
{
closed = 1;
nodes = (
"166 57 OFFCURVE",
"131 126 OFFCURVE",
"141 239 CURVE SMOOTH",
"152 353 OFFCURVE",
"204 422 OFFCURVE",
"288 422 CURVE SMOOTH",
"371 422 OFFCURVE",
"409 353 OFFCURVE",
"398 239 CURVE SMOOTH",
"387 126 OFFCURVE",
"332 57 OFFCURVE",
"249 57 CURVE SMOOTH"
);
},
{
closed = 1;
nodes = (
"424 598 LINE",
"225 731 LINE",
"189 661 LINE",
"399 548 LINE"
);
}
);
width = 492;
},
{
layerId = UUID1;
paths = (
{
closed = 1;
nodes = (
"371 -14 OFFCURVE",
"474 71 OFFCURVE",
"490 242 CURVE",
"507 416 OFFCURVE",
"419 499 OFFCURVE",
"302 499 CURVE SMOOTH",
"183 499 OFFCURVE",
"81 416 OFFCURVE",
"65 242 CURVE SMOOTH",
"49 71 OFFCURVE",
"134 -14 OFFCURVE",
"254 -14 CURVE SMOOTH"
);
},
{
closed = 1;
nodes = (
"197 89 OFFCURVE",
"162 141 OFFCURVE",
"172 242 CURVE SMOOTH",
"182 345 OFFCURVE",
"232 397 OFFCURVE",
"296 397 CURVE SMOOTH",
"359 397 OFFCURVE",
"393 345 OFFCURVE",
"383 242 CURVE SMOOTH",
"373 141 OFFCURVE",
"323 89 OFFCURVE",
"260 89 CURVE SMOOTH"
);
},
{
closed = 1;
nodes = (
"454 632 LINE",
"226 764 LINE",
"178 662 LINE",
"419 558 LINE"
);
}
);
width = 509;
}
);
unicode = 00F2;
},
{
glyphname = Agrave;
lastChange = "2019-04-17 22:57:06 +0000";
layers = (
{
layerId = UUID0;
paths = (
{
closed = 1;
nodes = (
"98 0 LINE",
"162 160 LINE",
"387 160 LINE",
"420 0 LINE",
"494 0 LINE",
"364 629 LINE",
"277 629 LINE",
"23 0 LINE"
);
},
{
closed = 1;
nodes = (
"310 533 LINE",
"374 222 LINE",
"186 222 LINE"
);
},
{
closed = 1;
nodes = (
"451 727 LINE",
"252 860 LINE",
"216 790 LINE",
"426 677 LINE"
);
}
);
width = 517;
},
{
layerId = UUID1;
paths = (
{
closed = 1;
nodes = (
"132 0 LINE",
"187 140 LINE",
"403 140 LINE",
"431 0 LINE",
"544 0 LINE",
"413 649 LINE",
"280 649 LINE",
"20 0 LINE"
);
},
{
closed = 1;
nodes = (
"331 509 LINE",
"386 229 LINE",
"222 229 LINE"
);
},
{
closed = 1;
nodes = (
"497 768 LINE",
"269 900 LINE",
"221 798 LINE",
"462 694 LINE"
);
}
);
width = 563;
}
);
unicode = 00C0;
},
{
glyphname = Egrave;
lastChange = "2019-04-17 22:57:11 +0000";
layers = (
{
layerId = UUID0;
paths = (
{
closed = 1;
nodes = (
"438 0 LINE",
"445 69 LINE",
"167 69 LINE",
"187 283 LINE",
"448 283 LINE",
"454 350 LINE",
"193 350 LINE",
"213 561 LINE",
"490 561 LINE",
"498 629 LINE",
"149 629 LINE",
"90 0 LINE"
);
},
{
closed = 1;
nodes = (
"454 727 LINE",
"255 860 LINE",
"219 790 LINE",
"429 677 LINE"
);
}
);
width = 508;
},
{
layerId = UUID1;
paths = (
{
closed = 1;
nodes = (
"459 0 LINE",
"468 103 LINE",
"198 103 LINE",
"214 274 LINE",
"467 274 LINE",
"477 376 LINE",
"224 376 LINE",
"240 547 LINE",
"510 547 LINE",
"520 649 LINE",
"144 649 LINE",
"83 0 LINE"
);
},
{
closed = 1;
nodes = (
"484 768 LINE",
"256 900 LINE",
"208 798 LINE",
"449 694 LINE"
);
}
);
width = 529;
}
);
unicode = 00C8;
},
{
glyphname = ugrave;
lastChange = "2019-04-17 22:57:17 +0000";
layers = (
{
layerId = UUID0;
paths = (
{
closed = 1;
nodes = (
"303 -9 OFFCURVE",
"357 28 OFFCURVE",
"392 95 CURVE",
"383 0 LINE",
"454 0 LINE",
"499 479 LINE",
"428 479 LINE",
"406 246 LINE SMOOTH",
"396 138 OFFCURVE",
"336 60 OFFCURVE",
"256 60 CURVE SMOOTH",
"190 60 OFFCURVE",
"158 101 OFFCURVE",
"166 181 CURVE SMOOTH",
"194 479 LINE",
"123 479 LINE",
"94 175 LINE",
"83 50 OFFCURVE",
"142 -9 OFFCURVE",
"239 -9 CURVE SMOOTH"
);
},
{
closed = 1;
nodes = (
"451 636 LINE",
"252 769 LINE",
"216 699 LINE",
"426 586 LINE"
);
}
);
width = 545;
},
{
layerId = UUID1;
paths = (
{
closed = 1;
nodes = (
"298 -9 OFFCURVE",
"348 22 OFFCURVE",
"382 87 CURVE",
"374 0 LINE",
"481 0 LINE",
"526 487 LINE",
"420 487 LINE",
"398 255 LINE SMOOTH",
"388 149 OFFCURVE",
"331 94 OFFCURVE",
"268 94 CURVE SMOOTH",
"219 94 OFFCURVE",
"193 126 OFFCURVE",
"198 189 CURVE SMOOTH",
"227 487 LINE",
"121 487 LINE",
"91 177 LINE",
"78 43 OFFCURVE",
"147 -9 OFFCURVE",
"240 -9 CURVE SMOOTH"
);
},
{
closed = 1;
nodes = (
"482 652 LINE",
"254 784 LINE",
"206 682 LINE",
"447 578 LINE"
);
}
);
width = 564;
}
);
unicode = 00F9;
},
{
glyphname = aacute;
lastChange = "2019-04-17 22:57:34 +0000";
layers = (
{
layerId = UUID0;
paths = (
{
closed = 1;
nodes = (
"273 -11 OFFCURVE",
"326 20 OFFCURVE",
"358 80 CURVE",
"358 53 OFFCURVE",
"357 27 OFFCURVE",
"357 0 CURVE",
"418 0 LINE",
"447 308 LINE SMOOTH",
"459 437 OFFCURVE",
"395 490 OFFCURVE",
"295 490 CURVE SMOOTH",
"193 490 OFFCURVE",
"114 450 OFFCURVE",
"104 346 CURVE",
"183 346 LINE",
"188 405 OFFCURVE",
"234 431 OFFCURVE",
"290 431 CURVE SMOOTH",
"357 431 OFFCURVE",
"385 395 OFFCURVE",
"377 310 CURVE",
"371 249 LINE",
"332 266 OFFCURVE",
"290 275 OFFCURVE",
"246 275 CURVE SMOOTH",
"153 275 OFFCURVE",
"76 229 OFFCURVE",
"67 134 CURVE",
"59 60 OFFCURVE",
"109 -11 OFFCURVE",
"205 -11 CURVE SMOOTH"
);
},
{
closed = 1;
nodes = (
"159 50 OFFCURVE",
"138 87 OFFCURVE",
"142 134 CURVE SMOOTH",
"148 197 OFFCURVE",
"195 219 OFFCURVE",
"253 219 CURVE SMOOTH",
"288 219 OFFCURVE",
"329 211 OFFCURVE",
"366 199 CURVE",
"366 108 OFFCURVE",
"289 50 OFFCURVE",
"226 50 CURVE SMOOTH"
);
},
{
closed = 1;
nodes = (
"436 661 LINE",
"413 731 LINE",
"189 598 LINE",
"205 548 LINE"
);
}
);
width = 496;
},
{
layerId = UUID1;
paths = (
{
closed = 1;
nodes = (
"285 -14 OFFCURVE",
"330 18 OFFCURVE",
"360 66 CURVE",
"361 44 OFFCURVE",
"361 22 OFFCURVE",
"362 0 CURVE",
"454 0 LINE",
"483 309 LINE SMOOTH",
"495 440 OFFCURVE",
"427 499 OFFCURVE",
"313 499 CURVE SMOOTH",
"188 499 OFFCURVE",
"109 452 OFFCURVE",
"98 342 CURVE",
"214 342 LINE",
"219 387 OFFCURVE",
"254 413 OFFCURVE",
"305 413 CURVE SMOOTH",
"364 413 OFFCURVE",
"384 381 OFFCURVE",
"377 313 CURVE",
"372 265 LINE",
"335 276 OFFCURVE",
"297 284 OFFCURVE",
"254 284 CURVE SMOOTH",
"144 284 OFFCURVE",
"70 234 OFFCURVE",
"62 142 CURVE",
"54 59 OFFCURVE",
"105 -14 OFFCURVE",
"222 -14 CURVE SMOOTH"
);
},
{
closed = 1;
nodes = (
"196 76 OFFCURVE",
"172 106 OFFCURVE",
"175 142 CURVE SMOOTH",
"179 188 OFFCURVE",
"219 206 OFFCURVE",
"268 206 CURVE SMOOTH",
"298 206 OFFCURVE",
"336 199 OFFCURVE",
"365 190 CURVE",
"359 125 OFFCURVE",
"308 76 OFFCURVE",
"252 76 CURVE SMOOTH"
);
},
{
closed = 1;
nodes = (
"467 662 LINE",
"440 764 LINE",
"187 632 LINE",
"206 558 LINE"
);
}
);
width = 526;
}
);
unicode = 00E1;
},
{
glyphname = eacute;
lastChange = "2019-04-17 22:57:45 +0000";
layers = (
{
layerId = UUID0;
paths = (
{
closed = 1;
nodes = (
"332 -11 OFFCURVE",
"405 45 OFFCURVE",
"428 140 CURVE",
"355 140 LINE",
"341 82 OFFCURVE",
"301 53 OFFCURVE",
"245 53 CURVE SMOOTH",
"163 53 OFFCURVE",
"130 125 OFFCURVE",
"137 222 CURVE",
"432 222 LINE",
"437 245 OFFCURVE",
"440 269 OFFCURVE",
"441 291 CURVE SMOOTH",
"445 402 OFFCURVE",
"397 490 OFFCURVE",
"286 490 CURVE SMOOTH",
"174 490 OFFCURVE",
"83 395 OFFCURVE",
"68 238 CURVE SMOOTH",
"53 83 OFFCURVE",
"127 -11 OFFCURVE",
"239 -11 CURVE SMOOTH"
);
},
{
closed = 1;
nodes = (
"158 361 OFFCURVE",
"206 427 OFFCURVE",
"281 427 CURVE SMOOTH",
"362 427 OFFCURVE",
"381 357 OFFCURVE",
"374 282 CURVE",
"144 282 LINE"
);
},
{
closed = 1;
nodes = (
"415 666 LINE",
"392 736 LINE",
"168 603 LINE",
"184 553 LINE"
);
}
);
width = 463;
},
{
layerId = UUID1;
paths = (
{
closed = 1;
nodes = (
"346 -14 OFFCURVE",
"424 51 OFFCURVE",
"446 145 CURVE",
"339 145 LINE",
"327 102 OFFCURVE",
"295 81 OFFCURVE",
"255 81 CURVE SMOOTH",
"189 81 OFFCURVE",
"161 136 OFFCURVE",
"167 214 CURVE",
"450 214 LINE",
"454 232 OFFCURVE",
"457 249 OFFCURVE",
"459 267 CURVE SMOOTH",
"470 388 OFFCURVE",
"421 499 OFFCURVE",
"294 499 CURVE SMOOTH",
"181 499 OFFCURVE",
"80 403 OFFCURVE",
"65 243 CURVE SMOOTH",
"50 88 OFFCURVE",
"133 -14 OFFCURVE",
"246 -14 CURVE SMOOTH"
);
},
{
closed = 1;
nodes = (
"187 356 OFFCURVE",
"227 405 OFFCURVE",
"286 405 CURVE SMOOTH",
"352 405 OFFCURVE",
"367 348 OFFCURVE",
"362 289 CURVE",
"175 289 LINE"
);
},
{
closed = 1;
nodes = (
"440 672 LINE",
"413 774 LINE",
"160 642 LINE",
"179 568 LINE"
);
}
);
width = 477;
}
);
unicode = 00E9;
},
{
glyphname = oacute;
lastChange = "2019-04-17 22:58:14 +0000";
layers = (
{
layerId = UUID0;
paths = (
{
closed = 1;
nodes = (
"361 -11 OFFCURVE",
"454 75 OFFCURVE",
"470 239 CURVE",
"485 404 OFFCURVE",
"409 490 OFFCURVE",
"293 490 CURVE SMOOTH",
"176 490 OFFCURVE",
"84 404 OFFCURVE",
"68 239 CURVE SMOOTH",
"52 75 OFFCURVE",
"129 -11 OFFCURVE",
"245 -11 CURVE SMOOTH"
);
},
{
closed = 1;
nodes = (
"166 57 OFFCURVE",
"131 126 OFFCURVE",
"141 239 CURVE SMOOTH",
"152 353 OFFCURVE",
"204 422 OFFCURVE",
"288 422 CURVE SMOOTH",
"371 422 OFFCURVE",
"409 353 OFFCURVE",
"398 239 CURVE SMOOTH",
"387 126 OFFCURVE",
"332 57 OFFCURVE",
"249 57 CURVE SMOOTH"
);
},
{
closed = 1;
nodes = (
"429 661 LINE",
"406 731 LINE",
"182 598 LINE",
"198 548 LINE"
);
}
);
width = 492;
},
{
layerId = UUID1;
paths = (
{
closed = 1;
nodes = (
"371 -14 OFFCURVE",
"474 71 OFFCURVE",
"490 242 CURVE",
"507 416 OFFCURVE",
"419 499 OFFCURVE",
"302 499 CURVE SMOOTH",
"183 499 OFFCURVE",
"81 416 OFFCURVE",
"65 242 CURVE SMOOTH",
"49 71 OFFCURVE",
"134 -14 OFFCURVE",
"254 -14 CURVE SMOOTH"
);
},
{
closed = 1;
nodes = (
"197 89 OFFCURVE",
"162 141 OFFCURVE",
"172 242 CURVE SMOOTH",
"182 345 OFFCURVE",
"232 397 OFFCURVE",
"296 397 CURVE SMOOTH",
"359 397 OFFCURVE",
"393 345 OFFCURVE",
"383 242 CURVE SMOOTH",
"373 141 OFFCURVE",
"323 89 OFFCURVE",
"260 89 CURVE SMOOTH"
);
},
{
closed = 1;
nodes = (
"455 662 LINE",
"428 764 LINE",
"175 632 LINE",
"194 558 LINE"
);
}
);
width = 509;
}
);
unicode = 00F3;
},
{
glyphname = uacute;
lastChange = "2019-04-15 20:26:35 +0000";
layers = (
{
layerId = UUID0;
paths = (
{
closed = 1;
nodes = (
"94 175 LINE",
"83 50 OFFCURVE",
"142 -9 OFFCURVE",
"239 -9 CURVE SMOOTH",
"303 -9 OFFCURVE",
"357 28 OFFCURVE",
"392 95 CURVE",
"383 0 LINE",
"454 0 LINE",
"499 479 LINE",
"428 479 LINE",
"406 246 LINE SMOOTH",
"396 138 OFFCURVE",
"336 60 OFFCURVE",
"256 60 CURVE SMOOTH",
"190 60 OFFCURVE",
"158 101 OFFCURVE",
"166 181 CURVE SMOOTH",
"194 479 LINE",
"123 479 LINE"
);
},
{
closed = 1;
nodes = (
"225 586 LINE",
"209 636 LINE",
"433 769 LINE",
"456 699 LINE"
);
}
);
width = 545;
},
{
layerId = UUID1;
paths = (
{
closed = 1;
nodes = (
"91 177 LINE",
"78 43 OFFCURVE",
"147 -9 OFFCURVE",
"240 -9 CURVE SMOOTH",
"298 -9 OFFCURVE",
"348 22 OFFCURVE",
"382 87 CURVE",
"374 0 LINE",
"481 0 LINE",
"526 487 LINE",
"420 487 LINE",
"398 255 LINE SMOOTH",
"388 149 OFFCURVE",
"331 94 OFFCURVE",
"268 94 CURVE SMOOTH",
"219 94 OFFCURVE",
"193 126 OFFCURVE",
"198 189 CURVE SMOOTH",
"227 487 LINE",
"121 487 LINE"
);
},
{
closed = 1;
nodes = (
"222 578 LINE",
"203 652 LINE",
"456 784 LINE",
"483 682 LINE"
);
}
);
width = 564;
}
);
unicode = 00FA;
},
{
glyphname = Aacute;
lastChange = "2019-04-17 22:58:27 +0000";
layers = (
{
layerId = UUID0;
paths = (
{
closed = 1;
nodes = (
"98 0 LINE",
"162 160 LINE",
"387 160 LINE",
"420 0 LINE",
"494 0 LINE",
"364 629 LINE",
"277 629 LINE",
"23 0 LINE"
);
},
{
closed = 1;
nodes = (
"310 533 LINE",
"374 222 LINE",
"186 222 LINE"
);
},
{
closed = 1;
nodes = (
"456 790 LINE",
"433 860 LINE",
"209 727 LINE",
"225 677 LINE"
);
}
);
width = 517;
},
{
layerId = UUID1;
paths = (
{
closed = 1;
nodes = (
"132 0 LINE",
"187 140 LINE",
"403 140 LINE",
"431 0 LINE",
"544 0 LINE",
"413 649 LINE",
"280 649 LINE",
"20 0 LINE"
);
},
{
closed = 1;
nodes = (
"331 509 LINE",
"386 229 LINE",
"222 229 LINE"
);
},
{
closed = 1;
nodes = (
"498 798 LINE",
"471 900 LINE",
"218 768 LINE",
"237 694 LINE"
);
}
);
width = 563;
}
);
unicode = 00C1;
},
{
glyphname = Eacute;
lastChange = "2019-04-17 22:58:30 +0000";
layers = (
{
layerId = UUID0;
paths = (
{
closed = 1;
nodes = (
"438 0 LINE",
"445 69 LINE",
"167 69 LINE",
"187 283 LINE",
"448 283 LINE",
"454 350 LINE",
"193 350 LINE",
"213 561 LINE",
"490 561 LINE",
"498 629 LINE",
"149 629 LINE",
"90 0 LINE"
);
},
{
closed = 1;
nodes = (
"459 790 LINE",
"436 860 LINE",
"212 727 LINE",
"228 677 LINE"
);
}
);
width = 508;
},
{
layerId = UUID1;
paths = (
{
closed = 1;
nodes = (
"459 0 LINE",
"468 103 LINE",
"198 103 LINE",
"214 274 LINE",
"467 274 LINE",
"477 376 LINE",
"224 376 LINE",
"240 547 LINE",
"510 547 LINE",
"520 649 LINE",
"144 649 LINE",
"83 0 LINE"
);
},
{
closed = 1;
nodes = (
"224 694 LINE",
"205 768 LINE",
"458 900 LINE",
"485 798 LINE"
);
}
);
width = 529;
}
);
unicode = 00C9;
},
{
glyphname = Igrave;
lastChange = "2019-04-17 22:58:37 +0000";
layers = (
{
layerId = UUID0;
paths = (
{
closed = 1;
nodes = (
"162 0 LINE",
"221 629 LINE",
"150 629 LINE",
"91 0 LINE"
);
},
{
closed = 1;
nodes = (
"316 727 LINE",
"117 860 LINE",
"81 790 LINE",
"291 677 LINE"
);
}
);
width = 252;
},
{
layerId = UUID1;
paths = (
{
closed = 1;
nodes = (
"190 0 LINE",
"251 649 LINE",
"145 649 LINE",
"84 0 LINE"
);
},
{
closed = 1;
nodes = (
"314 694 LINE",
"349 768 LINE",
"121 900 LINE",
"73 798 LINE"
);
}
);
width = 274;
}
);
unicode = 00CC;
},
{
glyphname = Iacute;
lastChange = "2019-04-15 20:26:35 +0000";
layers = (
{
layerId = UUID0;
paths = (
{
closed = 1;
nodes = (
"162 0 LINE",
"221 629 LINE",
"150 629 LINE",
"91 0 LINE"
);
},
{
closed = 1;
nodes = (
"90 677 LINE",
"74 727 LINE",
"298 860 LINE",
"321 790 LINE"
);
}
);
width = 252;
},
{
layerId = UUID1;
paths = (
{
closed = 1;
nodes = (
"190 0 LINE",
"251 649 LINE",
"145 649 LINE",
"84 0 LINE"
);
},
{
closed = 1;
nodes = (
"89 694 LINE",
"70 768 LINE",
"323 900 LINE",
"350 798 LINE"
);
}
);
width = 274;
}
);
unicode = 00CD;
},
{
glyphname = Ograve;
lastChange = "2019-04-15 20:26:35 +0000";
layers = (
{
layerId = UUID0;
paths = (
{
closed = 1;
nodes = (
"210 640 OFFCURVE",
"96 533 OFFCURVE",
"76 314 CURVE",
"55 96 OFFCURVE",
"148 -11 OFFCURVE",
"289 -11 CURVE SMOOTH",
"430 -11 OFFCURVE",
"544 94 OFFCURVE",
"566 314 CURVE",
"586 531 OFFCURVE",
"492 640 OFFCURVE",
"351 640 CURVE SMOOTH",
"351 640 LINE"
);
},
{
closed = 1;
nodes = (
"449 569 OFFCURVE",
"508 477 OFFCURVE",
"492 314 CURVE SMOOTH",
"476 148 OFFCURVE",
"401 61 OFFCURVE",
"296 61 CURVE SMOOTH",
"191 61 OFFCURVE",
"133 148 OFFCURVE",
"149 314 CURVE SMOOTH",
"165 477 OFFCURVE",
"238 569 OFFCURVE",
"344 569 CURVE SMOOTH",
"344 569 LINE"
);
},
{
closed = 1;
nodes = (
"455 677 LINE",
"480 727 LINE",
"281 860 LINE",
"245 790 LINE"
);
}
);
width = 581;
},
{
layerId = UUID1;
paths = (
{
closed = 1;
nodes = (
"213 662 OFFCURVE",
"94 553 OFFCURVE",
"73 325 CURVE",
"51 101 OFFCURVE",
"149 -14 OFFCURVE",
"305 -14 CURVE SMOOTH",
"463 -14 OFFCURVE",
"581 98 OFFCURVE",
"603 325 CURVE",
"624 548 OFFCURVE",
"526 662 OFFCURVE",
"369 662 CURVE SMOOTH",
"369 662 LINE"
);
},
{
closed = 1;
nodes = (
"454 556 OFFCURVE",
"507 471 OFFCURVE",
"493 326 CURVE SMOOTH",
"479 175 OFFCURVE",
"410 93 OFFCURVE",
"315 93 CURVE SMOOTH",
"221 93 OFFCURVE",
"168 175 OFFCURVE",
"183 325 CURVE SMOOTH",
"196 471 OFFCURVE",
"265 556 OFFCURVE",
"359 556 CURVE SMOOTH",
"359 556 LINE"
);
},
{
closed = 1;
nodes = (
"483 694 LINE",
"518 768 LINE",
"290 900 LINE",
"242 798 LINE"
);
}
);
width = 615;
}
);
unicode = 00D2;
},
{
glyphname = Oacute;
lastChange = "2019-04-15 20:26:35 +0000";
layers = (
{
layerId = UUID0;
paths = (
{
closed = 1;
nodes = (
"210 640 OFFCURVE",
"96 533 OFFCURVE",
"76 314 CURVE",
"55 96 OFFCURVE",
"148 -11 OFFCURVE",
"289 -11 CURVE SMOOTH",
"430 -11 OFFCURVE",
"544 94 OFFCURVE",
"566 314 CURVE",
"586 531 OFFCURVE",
"492 640 OFFCURVE",
"351 640 CURVE SMOOTH",
"351 640 LINE"
);
},
{
closed = 1;
nodes = (
"449 569 OFFCURVE",
"508 477 OFFCURVE",
"492 314 CURVE SMOOTH",
"476 148 OFFCURVE",
"401 61 OFFCURVE",
"296 61 CURVE SMOOTH",
"191 61 OFFCURVE",
"133 148 OFFCURVE",
"149 314 CURVE SMOOTH",
"165 477 OFFCURVE",
"238 569 OFFCURVE",
"344 569 CURVE SMOOTH",
"344 569 LINE"
);
},
{
closed = 1;
nodes = (
"254 677 LINE",
"238 727 LINE",
"462 860 LINE",
"485 790 LINE"
);
}
);
width = 581;
},
{
layerId = UUID1;
paths = (
{
closed = 1;
nodes = (
"213 662 OFFCURVE",
"94 553 OFFCURVE",
"73 325 CURVE",
"51 101 OFFCURVE",
"149 -14 OFFCURVE",
"305 -14 CURVE SMOOTH",
"463 -14 OFFCURVE",
"581 98 OFFCURVE",
"603 325 CURVE",
"624 548 OFFCURVE",
"526 662 OFFCURVE",
"369 662 CURVE SMOOTH",
"369 662 LINE"
);
},
{
closed = 1;
nodes = (
"454 556 OFFCURVE",
"507 471 OFFCURVE",
"493 326 CURVE SMOOTH",
"479 175 OFFCURVE",
"410 93 OFFCURVE",
"315 93 CURVE SMOOTH",
"221 93 OFFCURVE",
"168 175 OFFCURVE",
"183 325 CURVE SMOOTH",
"196 471 OFFCURVE",
"265 556 OFFCURVE",
"359 556 CURVE SMOOTH",
"359 556 LINE"
);
},
{
closed = 1;
nodes = (
"258 694 LINE",
"239 768 LINE",
"492 900 LINE",
"519 798 LINE"
);
}
);
width = 615;
}
);
unicode = 00D3;
},
{
glyphname = Ugrave;
lastChange = "2019-04-15 20:26:35 +0000";
layers = (
{
layerId = UUID0;
paths = (
{
closed = 1;
nodes = (
"99 227 LINE",
"85 70 OFFCURVE",
"160 -11 OFFCURVE",
"292 -11 CURVE SMOOTH",
"422 -11 OFFCURVE",
"515 70 OFFCURVE",
"529 227 CURVE",
"568 629 LINE",
"497 629 LINE",
"458 227 LINE SMOOTH",
"447 110 OFFCURVE",
"385 61 OFFCURVE",
"299 61 CURVE SMOOTH",
"212 61 OFFCURVE",
"159 110 OFFCURVE",
"170 227 CURVE SMOOTH",
"209 629 LINE",
"138 629 LINE"
);
},
{
closed = 1;
nodes = (
"458 677 LINE",
"483 727 LINE",
"284 860 LINE",
"248 790 LINE"
);
}
);
width = 589;
},
{
layerId = UUID1;
paths = (
{
closed = 1;
nodes = (
"97 245 LINE",
"82 81 OFFCURVE",
"161 -14 OFFCURVE",
"310 -14 CURVE SMOOTH",
"458 -14 OFFCURVE",
"555 81 OFFCURVE",
"571 245 CURVE",
"609 649 LINE",
"503 649 LINE",
"464 245 LINE SMOOTH",
"454 138 OFFCURVE",
"396 95 OFFCURVE",
"319 95 CURVE SMOOTH",
"243 95 OFFCURVE",
"193 138 OFFCURVE",
"203 245 CURVE SMOOTH",
"242 649 LINE",
"136 649 LINE"
);
},
{
closed = 1;
nodes = (
"487 694 LINE",
"522 768 LINE",
"294 900 LINE",
"246 798 LINE"
);
}
);
width = 621;
}
);
unicode = 00D9;
},
{
glyphname = Uacute;
lastChange = "2019-04-15 20:26:35 +0000";
layers = (
{
layerId = UUID0;
paths = (
{
closed = 1;
nodes = (
"99 227 LINE",
"85 70 OFFCURVE",
"160 -11 OFFCURVE",
"292 -11 CURVE SMOOTH",
"422 -11 OFFCURVE",
"515 70 OFFCURVE",
"529 227 CURVE",
"568 629 LINE",
"497 629 LINE",
"458 227 LINE SMOOTH",
"447 110 OFFCURVE",
"385 61 OFFCURVE",
"299 61 CURVE SMOOTH",
"212 61 OFFCURVE",
"159 110 OFFCURVE",
"170 227 CURVE SMOOTH",
"209 629 LINE",
"138 629 LINE"
);
},
{
closed = 1;
nodes = (
"257 677 LINE",
"241 727 LINE",
"465 860 LINE",
"488 790 LINE"
);
}
);
width = 589;
},
{
layerId = UUID1;
paths = (
{
closed = 1;
nodes = (
"97 245 LINE",
"82 81 OFFCURVE",
"161 -14 OFFCURVE",
"310 -14 CURVE SMOOTH",
"458 -14 OFFCURVE",
"555 81 OFFCURVE",
"571 245 CURVE",
"609 649 LINE",
"503 649 LINE",
"464 245 LINE SMOOTH",
"454 138 OFFCURVE",
"396 95 OFFCURVE",
"319 95 CURVE SMOOTH",
"243 95 OFFCURVE",
"193 138 OFFCURVE",
"203 245 CURVE SMOOTH",
"242 649 LINE",
"136 649 LINE"
);
},
{
closed = 1;
nodes = (
"262 694 LINE",
"243 768 LINE",
"496 900 LINE",
"523 798 LINE"
);
}
);
width = 621;
}
);
unicode = 00DA;
},
{
glyphname = circumflex;
lastChange = "2019-04-15 20:26:35 +0000";
layers = (
{
anchors = (
{
name = _above;
position = "{184, 635}";
}
);
background = {
paths = (
{
closed = 1;
nodes = (
"167 646 LINE",
"197 557 LINE",
"181 589 LINE",
"167 718 LINE"
);
}
);
};
layerId = UUID0;
paths = (
{
closed = 1;
nodes = (
"89 716 LINE",
"130 677 LINE",
"257 785 LINE",
"364 677 LINE",
"412 716 LINE",
"265 872 LINE"
);
}
);
width = 366;
},
{
anchors = (
{
name = _above;
position = "{184, 635}";
}
);
background = {
paths = (
{
closed = 1;
nodes = (
"167 646 LINE",
"197 557 LINE",
"181 589 LINE",
"167 718 LINE"
);
}
);
};
layerId = UUID1;
paths = (
{
closed = 1;
nodes = (
"93 752 LINE",
"154 693 LINE",
"284 794 LINE",
"394 693 LINE",
"468 752 LINE",
"295 913 LINE"
);
}
);
width = 418;
}
);
unicode = 02C6;
},
{
glyphname = acircumflex;
lastChange = "2019-04-15 20:26:35 +0000";
layers = (
{
layerId = UUID0;
paths = (
{
closed = 1;
nodes = (
"385 395 OFFCURVE",
"357 431 OFFCURVE",
"290 431 CURVE SMOOTH",
"234 431 OFFCURVE",
"188 405 OFFCURVE",
"183 346 CURVE",
"104 346 LINE",
"114 450 OFFCURVE",
"193 490 OFFCURVE",
"295 490 CURVE SMOOTH",
"395 490 OFFCURVE",
"459 437 OFFCURVE",
"447 308 CURVE SMOOTH",
"418 0 LINE",
"357 0 LINE",
"357 27 OFFCURVE",
"358 53 OFFCURVE",
"358 80 CURVE",
"326 20 OFFCURVE",
"273 -11 OFFCURVE",
"205 -11 CURVE SMOOTH",
"109 -11 OFFCURVE",
"59 60 OFFCURVE",
"67 134 CURVE",
"76 229 OFFCURVE",
"153 275 OFFCURVE",
"246 275 CURVE SMOOTH",
"290 275 OFFCURVE",
"332 266 OFFCURVE",
"371 249 CURVE",
"377 310 LINE"
);
},
{
closed = 1;
nodes = (
"147 587 LINE",
"188 548 LINE",
"315 656 LINE",
"422 548 LINE",
"470 587 LINE",
"323 743 LINE"
);
},
{
closed = 1;
nodes = (
"195 219 OFFCURVE",
"148 197 OFFCURVE",
"142 134 CURVE SMOOTH",
"138 87 OFFCURVE",
"159 50 OFFCURVE",
"226 50 CURVE SMOOTH",
"288 50 OFFCURVE",
"366 109 OFFCURVE",
"366 199 CURVE",
"329 211 OFFCURVE",
"288 219 OFFCURVE",
"253 219 CURVE SMOOTH",
"253 219 LINE"
);
}
);
width = 496;
},
{
layerId = UUID1;
paths = (
{
closed = 1;
nodes = (
"384 381 OFFCURVE",
"364 413 OFFCURVE",
"305 413 CURVE SMOOTH",
"254 413 OFFCURVE",
"219 387 OFFCURVE",
"214 342 CURVE",
"98 342 LINE",
"109 452 OFFCURVE",
"188 499 OFFCURVE",
"313 499 CURVE SMOOTH",
"427 499 OFFCURVE",
"495 440 OFFCURVE",
"483 309 CURVE SMOOTH",
"454 0 LINE",
"362 0 LINE",
"361 22 OFFCURVE",
"361 44 OFFCURVE",
"360 66 CURVE",
"330 18 OFFCURVE",
"285 -14 OFFCURVE",
"222 -14 CURVE SMOOTH",
"105 -14 OFFCURVE",
"54 59 OFFCURVE",
"62 142 CURVE",
"70 234 OFFCURVE",
"144 284 OFFCURVE",
"254 284 CURVE SMOOTH",
"297 284 OFFCURVE",
"335 276 OFFCURVE",
"372 265 CURVE",
"377 313 LINE"
);
},
{
closed = 1;
nodes = (
"138 616 LINE",
"199 557 LINE",
"329 658 LINE",
"439 557 LINE",
"513 616 LINE",
"340 777 LINE"
);
},
{
closed = 1;
nodes = (
"219 206 OFFCURVE",
"179 188 OFFCURVE",
"175 142 CURVE SMOOTH",
"172 106 OFFCURVE",
"196 76 OFFCURVE",
"252 76 CURVE SMOOTH",
"308 76 OFFCURVE",
"359 125 OFFCURVE",
"365 190 CURVE",
"336 199 OFFCURVE",
"298 206 OFFCURVE",
"268 206 CURVE SMOOTH",
"268 206 LINE"
);
}
);
width = 526;
}
);
unicode = 00E2;
},
{
glyphname = ecircumflex;
lastChange = "2019-04-15 20:26:35 +0000";
layers = (
{
layerId = UUID0;
paths = (
{
closed = 1;
nodes = (
"440 245 OFFCURVE",
"443 269 OFFCURVE",
"444 291 CURVE SMOOTH",
"448 402 OFFCURVE",
"400 490 OFFCURVE",
"289 490 CURVE SMOOTH",
"177 490 OFFCURVE",
"86 395 OFFCURVE",
"71 238 CURVE SMOOTH",
"56 83 OFFCURVE",
"130 -11 OFFCURVE",
"242 -11 CURVE SMOOTH",
"335 -11 OFFCURVE",
"408 45 OFFCURVE",
"431 140 CURVE",
"358 140 LINE",
"344 82 OFFCURVE",
"304 53 OFFCURVE",
"248 53 CURVE SMOOTH",
"166 53 OFFCURVE",
"133 125 OFFCURVE",
"140 222 CURVE",
"435 222 LINE"
);
},
{
closed = 1;
nodes = (
"129 592 LINE",
"170 553 LINE",
"297 661 LINE",
"404 553 LINE",
"452 592 LINE",
"305 748 LINE"
);
},
{
closed = 1;
nodes = (
"365 427 OFFCURVE",
"384 357 OFFCURVE",
"377 282 CURVE",
"147 282 LINE",
"161 361 OFFCURVE",
"209 427 OFFCURVE",
"284 427 CURVE SMOOTH",
"284 427 LINE"
);
}
);
width = 463;
},
{
layerId = UUID1;
paths = (
{
closed = 1;
nodes = (
"460 232 OFFCURVE",
"463 249 OFFCURVE",
"465 267 CURVE SMOOTH",
"476 388 OFFCURVE",
"427 499 OFFCURVE",
"300 499 CURVE SMOOTH",
"187 499 OFFCURVE",
"86 403 OFFCURVE",
"71 243 CURVE SMOOTH",
"56 88 OFFCURVE",
"139 -14 OFFCURVE",
"252 -14 CURVE SMOOTH",
"352 -14 OFFCURVE",
"430 51 OFFCURVE",
"452 145 CURVE",
"345 145 LINE",
"333 102 OFFCURVE",
"301 81 OFFCURVE",
"261 81 CURVE SMOOTH",
"195 81 OFFCURVE",
"167 136 OFFCURVE",
"173 214 CURVE",
"456 214 LINE"
);
},
{
closed = 1;
nodes = (
"115 626 LINE",
"176 567 LINE",
"306 668 LINE",
"416 567 LINE",
"490 626 LINE",
"317 787 LINE"
);
},
{
closed = 1;
nodes = (
"358 405 OFFCURVE",
"373 348 OFFCURVE",
"368 289 CURVE",
"181 289 LINE",
"193 356 OFFCURVE",
"233 405 OFFCURVE",
"292 405 CURVE SMOOTH",
"292 405 LINE"
);
}
);
width = 477;
}
);
unicode = 00EA;
},
{
glyphname = ocircumflex;
lastChange = "2019-04-15 20:26:35 +0000";
layers = (
{
layerId = UUID0;
paths = (
{
closed = 1;
nodes = (
"176 490 OFFCURVE",
"84 404 OFFCURVE",
"68 239 CURVE SMOOTH",
"52 75 OFFCURVE",
"129 -11 OFFCURVE",
"245 -11 CURVE SMOOTH",
"361 -11 OFFCURVE",
"454 75 OFFCURVE",
"470 239 CURVE",
"485 404 OFFCURVE",
"409 490 OFFCURVE",
"293 490 CURVE SMOOTH",
"293 490 LINE"
);
},
{
closed = 1;
nodes = (
"371 422 OFFCURVE",
"409 353 OFFCURVE",
"398 239 CURVE SMOOTH",
"387 126 OFFCURVE",
"332 57 OFFCURVE",
"249 57 CURVE SMOOTH",
"166 57 OFFCURVE",
"131 126 OFFCURVE",
"141 239 CURVE SMOOTH",
"152 353 OFFCURVE",
"204 422 OFFCURVE",
"288 422 CURVE SMOOTH",
"288 422 LINE"
);
},
{
closed = 1;
nodes = (
"139 587 LINE",
"180 548 LINE",
"307 656 LINE",
"414 548 LINE",
"462 587 LINE",
"315 743 LINE"
);
}
);
width = 492;
},
{
layerId = UUID1;
paths = (
{
closed = 1;
nodes = (
"183 499 OFFCURVE",
"81 416 OFFCURVE",
"65 242 CURVE SMOOTH",
"49 71 OFFCURVE",
"134 -14 OFFCURVE",
"254 -14 CURVE SMOOTH",
"371 -14 OFFCURVE",
"474 71 OFFCURVE",
"490 242 CURVE",
"507 416 OFFCURVE",
"419 499 OFFCURVE",
"302 499 CURVE SMOOTH",
"302 499 LINE"
);
},
{
closed = 1;
nodes = (
"359 397 OFFCURVE",
"393 345 OFFCURVE",
"383 242 CURVE SMOOTH",
"373 141 OFFCURVE",
"323 89 OFFCURVE",
"260 89 CURVE SMOOTH",
"197 89 OFFCURVE",
"162 141 OFFCURVE",
"172 242 CURVE SMOOTH",
"182 345 OFFCURVE",
"232 397 OFFCURVE",
"296 397 CURVE SMOOTH",
"296 397 LINE"
);
},
{
closed = 1;
nodes = (
"125 616 LINE",
"186 557 LINE",
"316 658 LINE",
"426 557 LINE",
"500 616 LINE",
"327 777 LINE"
);
}
);
width = 509;
}
);
unicode = 00F4;
},
{
glyphname = ucircumflex;
lastChange = "2019-04-15 20:26:35 +0000";
layers = (
{
layerId = UUID0;
paths = (
{
closed = 1;
nodes = (
"94 175 LINE",
"83 50 OFFCURVE",
"142 -9 OFFCURVE",
"239 -9 CURVE SMOOTH",
"303 -9 OFFCURVE",
"357 28 OFFCURVE",
"392 95 CURVE",
"383 0 LINE",
"454 0 LINE",
"499 479 LINE",
"428 479 LINE",
"406 246 LINE SMOOTH",
"396 138 OFFCURVE",
"336 60 OFFCURVE",
"256 60 CURVE SMOOTH",
"190 60 OFFCURVE",
"158 101 OFFCURVE",
"166 181 CURVE SMOOTH",
"194 479 LINE",
"123 479 LINE"
);
},
{
closed = 1;
nodes = (
"167 625 LINE",
"208 586 LINE",
"335 694 LINE",
"442 586 LINE",
"490 625 LINE",
"343 781 LINE"
);
}
);
width = 545;
},
{
layerId = UUID1;
paths = (
{
closed = 1;
nodes = (
"91 177 LINE",
"78 43 OFFCURVE",
"147 -9 OFFCURVE",
"240 -9 CURVE SMOOTH",
"298 -9 OFFCURVE",
"348 22 OFFCURVE",
"382 87 CURVE",
"374 0 LINE",
"481 0 LINE",
"526 487 LINE",
"420 487 LINE",
"398 255 LINE SMOOTH",
"388 149 OFFCURVE",
"331 94 OFFCURVE",
"268 94 CURVE SMOOTH",
"219 94 OFFCURVE",
"193 126 OFFCURVE",
"198 189 CURVE SMOOTH",
"227 487 LINE",
"121 487 LINE"
);
},
{
closed = 1;
nodes = (
"153 636 LINE",
"214 577 LINE",
"344 678 LINE",
"454 577 LINE",
"528 636 LINE",
"355 797 LINE"
);
}
);
width = 564;
}
);
unicode = 00FB;
},
{
glyphname = Acircumflex;
lastChange = "2019-04-17 23:00:02 +0000";
layers = (
{
layerId = UUID0;
paths = (
{
closed = 1;
nodes = (
"98 0 LINE",
"162 160 LINE",
"387 160 LINE",
"420 0 LINE",
"494 0 LINE",
"364 629 LINE",
"277 629 LINE",
"23 0 LINE"
);
},
{
closed = 1;
nodes = (
"310 533 LINE",
"374 222 LINE",
"186 222 LINE"
);
},
{
closed = 1;
nodes = (
"334 785 LINE",
"441 677 LINE",
"489 716 LINE",
"342 872 LINE",
"166 716 LINE",
"207 677 LINE"
);
}
);
width = 517;
},
{
layerId = UUID1;
paths = (
{
closed = 1;
nodes = (
"132 0 LINE",
"187 140 LINE",
"403 140 LINE",
"431 0 LINE",
"544 0 LINE",
"413 649 LINE",
"280 649 LINE",
"20 0 LINE"
);
},
{
closed = 1;
nodes = (
"331 509 LINE",
"386 229 LINE",
"222 229 LINE"
);
},
{
closed = 1;
nodes = (
"359 794 LINE",
"469 693 LINE",
"543 752 LINE",
"370 913 LINE",
"168 752 LINE",
"229 693 LINE"
);
}
);
width = 563;
}
);
unicode = 00C2;
},
{
glyphname = Ecircumflex;
lastChange = "2019-04-15 20:26:35 +0000";
layers = (
{
layerId = UUID0;
paths = (
{
closed = 1;
nodes = (
"442 0 LINE",
"449 69 LINE",
"171 69 LINE",
"191 283 LINE",
"452 283 LINE",
"458 350 LINE",
"197 350 LINE",
"217 561 LINE",
"494 561 LINE",
"502 629 LINE",
"153 629 LINE",
"94 0 LINE"
);
},
{
closed = 1;
nodes = (
"175 716 LINE",
"216 677 LINE",
"343 785 LINE",
"450 677 LINE",
"498 716 LINE",
"351 872 LINE"
);
}
);
width = 508;
},
{
layerId = UUID1;
paths = (
{
closed = 1;
nodes = (
"468 0 LINE",
"477 103 LINE",
"207 103 LINE",
"223 274 LINE",
"476 274 LINE",
"486 376 LINE",
"233 376 LINE",
"249 547 LINE",
"519 547 LINE",
"529 649 LINE",
"153 649 LINE",
"92 0 LINE"
);
},
{
closed = 1;
nodes = (
"164 752 LINE",
"225 693 LINE",
"355 794 LINE",
"465 693 LINE",
"539 752 LINE",
"366 913 LINE"
);
}
);
width = 529;
}
);
unicode = 00CA;
},
{
glyphname = Icircumflex;
lastChange = "2019-04-15 20:26:35 +0000";
layers = (
{
layerId = UUID0;
paths = (
{
closed = 1;
nodes = (
"162 0 LINE",
"221 629 LINE",
"150 629 LINE",
"91 0 LINE"
);
},
{
closed = 1;
nodes = (
"32 716 LINE",
"73 677 LINE",
"200 785 LINE",
"307 677 LINE",
"355 716 LINE",
"208 872 LINE"
);
}
);
width = 252;
},
{
layerId = UUID1;
paths = (
{
closed = 1;
nodes = (
"190 0 LINE",
"251 649 LINE",
"145 649 LINE",
"84 0 LINE"
);
},
{
closed = 1;
nodes = (
"21 752 LINE",
"82 693 LINE",
"212 794 LINE",
"322 693 LINE",
"396 752 LINE",
"223 913 LINE"
);
}
);
width = 274;
}
);
unicode = 00CE;
},
